<svg xmlns="http://www.w3.org/2000/svg" width="78.007" height="90.986" viewBox="0 0 78.007 90.986">
  <g id="组_2564" data-name="组 2564" transform="translate(-916.454 -197.523)">
    <g id="组_2284" data-name="组 2284" transform="translate(24312.621 4917.033)">
      <path id="路径_4445" data-name="路径 4445" d="M103.267,6810.55a6.6,6.6,0,0,1,1.941.371,1.491,1.491,0,0,1,1.427,1.306.712.712,0,0,1,.128.414v.479c0,.991,1.32.378,1.613,1.477a1.269,1.269,0,0,1,.136.771,1.706,1.706,0,0,0,.442.236c1.17.392,1.113,1.363,1.3,1.9.114.335.371.421.578.656a1.084,1.084,0,0,1-.043,1.7,20.15,20.15,0,0,1-5.03,2.526c-.428.136-3.8,1.021-4.281.5-.157,0-.157,0-.285-.179a2.709,2.709,0,0,1-.264-2.54c.121-.592-.457-.5-.642-1.1a1.892,1.892,0,0,1,.221-1.427c.129-.385.207-.257.114-.771a.714.714,0,0,1,.171-.671c.05-.713-.114-.363-.442-.813a1.134,1.134,0,0,1,0-1.049c.485-.935,1.077-.806.635-1.626a3.082,3.082,0,0,1-.285-2.14c.214-.542.714-1.25,1.27-1.335.164.492.1.521.485.849a2.024,2.024,0,0,0,.385.257C102.988,6810.421,103.2,6810.493,103.267,6810.55Z" transform="translate(-23495.738 -11527.813)" fill="#fff" fill-rule="evenodd"/>
      <g id="组_2563" data-name="组 2563">
        <path id="路径_4446" data-name="路径 4446" d="M170.577,6846.693a13.428,13.428,0,0,1,1.2,5.986,13.843,13.843,0,0,1-1.527,6.022,15.634,15.634,0,0,1-1.5,2.419,17.113,17.113,0,0,1-4.067,3.8,20.3,20.3,0,0,1-5.309,2.54,22.529,22.529,0,0,1-18.972-2.725c-5.109-3.468-8.291-9.918-6.571-16.118a14.653,14.653,0,0,1,2.669-5.193,17.762,17.762,0,0,1,9.654-6.08,3.764,3.764,0,0,1,1.67.178,27.448,27.448,0,0,0,9.133,0,4.44,4.44,0,0,1,3.246.3,18.67,18.67,0,0,1,7.3,4.467,14.1,14.1,0,0,1,3.075,4.409Z" transform="translate(-23505.232 -11535.858)" fill="#fff" fill-rule="evenodd"/>
      </g>
      <path id="路径_4447" data-name="路径 4447" d="M162.726,6830.728a2.534,2.534,0,0,0-.407,1.461,27.248,27.248,0,0,1-3.018.358c-2,.207-7.057.228-8.562-.436,0-.393.25-.393.128-.813-.214-.713-1.113-2.654-1.384-3.489a9.409,9.409,0,0,0-.528-1.377c-.535-.072-.714.078-1.17-.243-.606-.45-.371-1.534.136-2,.9-.821,2.554.093,2.076,1.284-.121.292-.171.242,0,.528a10.887,10.887,0,0,0,.885,1.163c.342.414,1.691,1.848,2.3,1.841s2.141-2.226,2.519-2.968a1.425,1.425,0,0,0,.3-1.027c-1.47-.857-.9-2.5.614-2.434,1.384.05,2.055,1.677.671,2.434a1.735,1.735,0,0,0,.385.82,13.552,13.552,0,0,0,2.084,2.854c.171.186.421.493.835.328a5.98,5.98,0,0,0,1.427-1.055,12.048,12.048,0,0,0,1.156-1.306c.286-.378.343-.364.129-.849a1.276,1.276,0,0,1,.043-1.013c.6-1.37,2.633-.678,2.626.834a1.184,1.184,0,0,1-.392,1.028c-.521.363-.45.213-1.078.207C164.317,6827.01,162.926,6830.256,162.726,6830.728Z" transform="translate(-23509.262 -11531.637)" fill="#fff" fill-rule="evenodd"/>
      <path id="路径_4448" data-name="路径 4448" d="M127.951,6895.434c-.542,0-3.568-.278-4.081-.335-2.932-.321-8.327-1.12-10.153-3.025a1.527,1.527,0,0,1-.435-1.627,4.613,4.613,0,0,1,.449-.671,21.4,21.4,0,0,0,2.754-7.078c.178-.756.564-3.639.635-3.76l.592,2.854a21.342,21.342,0,0,0,8.22,12.265c.342.25.663.464,1.02.713.25.165.87.435,1,.714Zm30.681-1.07a22.113,22.113,0,0,0,3.9-3.325,19.48,19.48,0,0,0,2.947-4.223c.1-.214.2-.414.307-.6l.785-1.9a22.437,22.437,0,0,0,.806-2.79c.713-3.061.478-3.654.528-6.622a.8.8,0,0,1,.221.436l1.192,3.21c.478,1.228.942,2.347,1.427,3.532a40.376,40.376,0,0,0,2.547,4.931c.335.592-.221,1.427-.457,1.784-1.163,1.712-3.832,3.189-5.993,3.953a34.839,34.839,0,0,1-3.889,1.091c-.713.15-1.427.271-2.1.4-.371.071-.785.035-1.149.114a4.533,4.533,0,0,1-.585.072c-.671.063-.392.063-.521-.065Zm-10.546-33.948c.15-.15.535-.164.821-.25a20.64,20.64,0,0,0,8.99-4.909l1.042-1.049a1.662,1.662,0,0,1,.813,1.427c.078.92-.3,1.427.628,1.605a3.118,3.118,0,0,1,2.141,2.354c-.143.122-.235.107-.435.214l-1.085.713a11.7,11.7,0,0,1-1.527.878,12.532,12.532,0,0,1-8.184.578,9.279,9.279,0,0,1-3.211-1.606Zm-23.753-5.986a2.716,2.716,0,0,1,1.648-.963c.478-.05.5.185.778.5l.606.678a19.979,19.979,0,0,0,7.913,4.931c.3.107,1.791.528,1.926.627a13.976,13.976,0,0,1-1.791,1.091,9.522,9.522,0,0,1-7.135.664c-2.761-.834-3.082-2.854-3.375-5.294a6.355,6.355,0,0,0-.578-2.233Zm11.017,7.891a12.636,12.636,0,0,1-5.094.885,7.2,7.2,0,0,1-4.4-1.648c-1.869-1.691-1.584-4.816-2.055-6.186-.15-.449-.464-.428-1.313-.935a9.779,9.779,0,0,0-.92-.571c1.1,2.7,2.2,5.373,3.254,8.1.714,1.948,1.67,3.889,2.34,5.836.771,2.227,1.741,4.4,2.611,6.593.507,1.263,1.056,2.519,1.548,3.781.307.771.621,1.22-.071,1.855-.471.435-1.655.713-2,.243l-.821-1.862c-.257-.514-.535-1.491-.714-1.919-.4-.821-1.17-2.762-1.577-3.725-.128-.314-.278-.6-.407-.928s-.25-.642-.4-.949c-.278-.578-.485-1.234-.756-1.919l-1.591-3.76-.806-1.87c-.264-.621-.485-1.3-.756-1.912l-2.383-5.587c-.15-.342-.257-.621-.392-.949s-.221-.635-.357-.978c-.464-1.191-1.1-2.519-1.6-3.76-.143-.356-.414-.356-.963-.285-2.733.371-2.433,4.509-1.855,6.7a18.927,18.927,0,0,0,5.13,8.241c.242.243.464.371.713.643s.492.392.714.613c.378.371,0,1.113-.635.585a2.668,2.668,0,0,0-.414-.307c-.121.378-.35.813-.442,1.213s-.257.927-.35,1.363l-.478,2.961a23.139,23.139,0,0,0,4.866,18.229c.607.713,1.085,1.12,1.7,1.727a22.649,22.649,0,0,0,8.691,4.895c7.47,2.141,15.7,2.02,22.668-1.762a22.5,22.5,0,0,0,4.038-2.7,19.131,19.131,0,0,0,4.581-5.579,23.166,23.166,0,0,0,1.869-4.937c.093-.471.207-.906.3-1.427a36.13,36.13,0,0,0,.235-4.9c-.036-1.1-.193-2.14-.3-3.161a18.535,18.535,0,0,0-3.439-8.5c-.285-.356-.713-.571-.321-1.07.578-.064.842.371,1.327,1.021a23.152,23.152,0,0,1,2.376,4.517c3.3.264,5.522-1.284,7.321-3.511,1-1.077,3.118-5.123,2.447-5.33-.428,0-.514.342-.714.656s-.714.435-.863,0c-.307-.792-.535-1.342-1.306-1.591a2.19,2.19,0,0,0-1.191,0c-.571.071-.564-.236-.8-.622-.328-.535-1.063-1.206-1.848-.578-.043.5.428.864.143,1.534a1.777,1.777,0,0,1-.942.877c-2.3,1.213-4.167.885-6.343,1.021-.578.036-.621.185-1.242.606a12.672,12.672,0,0,1-11.759.928c-.307-.136-1.056-.578-1.242-.614l-.828-.635c-.492-.371-.264-.428-1.035-.342-.442.05-.9.121-1.334.157a9.159,9.159,0,0,1-1.341.136,22.775,22.775,0,0,1-4.2-.292c-1.905-.342-.828-.357-2.7.792a17.8,17.8,0,0,0-1.548.878Zm25.5-24.045a14.112,14.112,0,0,0-3.075-4.417,18.675,18.675,0,0,0-7.314-4.474,4.445,4.445,0,0,0-3.246-.3,27.436,27.436,0,0,1-9.133,0,3.785,3.785,0,0,0-1.67-.178,17.6,17.6,0,0,0-9.654,6.079,14.658,14.658,0,0,0-2.669,5.194c-1.72,6.2,1.427,12.65,6.571,16.118a22.533,22.533,0,0,0,18.972,2.726,20.288,20.288,0,0,0,5.308-2.541,17.136,17.136,0,0,0,4.067-3.8,15.667,15.667,0,0,0,1.5-2.419,13.846,13.846,0,0,0,1.527-6.022,13.429,13.429,0,0,0-1.2-5.987Zm-29.967,40.848c-1.213-3.068-2.383-6.2-3.675-9.226-.385-.892-.714-1.769-1.02-2.675l-3.2-7.849c-.664-1.841-1.334-3.468-2.091-5.287-.364-.878-.714-1.8-1.07-2.64s-.642-1.791-1.02-2.676-.714-1.7-1.063-2.619l-1.605-3.91c-.193-.429-.321-.978-.485-1.392l-1.07-2.6a6,6,0,0,0-.714.528,3.254,3.254,0,0,1-1.013.264,10.335,10.335,0,0,0,.507,1.256c.186.428.35.892.507,1.313.549,1.491,1.641,3.689,2.141,5.037.15.428.385.85.549,1.27.342.864.321.942.756,1.913.086.2.2.471.278.627l1.085,2.547c.164.428.328.885.528,1.292l3.739,8.9c.2.442.342.885.5,1.327.293.813.714,1.712,1.063,2.512.678,1.6,1.534,3.5,2.141,5.1.314.864.756,1.684,1.077,2.562s1.163,2.7,1.613,3.8c.093.228.186.4.285.621s.143.506.243.664c.378.05,1.184-.114,1.07-.627Zm-18.594-42.917c.078-.071,0,0,.114-.071l.114-.05.3-.086a6.356,6.356,0,0,1,.664-.335c.214-.128.428-.392.621-.435a2.676,2.676,0,0,1,.471,1.748,2.857,2.857,0,0,1-1.113,1.121,2,2,0,0,1-1.827-.086,2.141,2.141,0,0,1-.714-1.249v-.192c0-.129,1.327-.364,1.334-.364Zm-2.74-2.141a2.412,2.412,0,0,0,.849,1.727c.435.271,3.125-.528,3.439-1.513a2.287,2.287,0,0,0-.564-1.941,6.221,6.221,0,0,1-3.425,1.634c-.207,0-.157,0-.3.092Zm2.233-8.918c.086.107.036,0,.071.2v.256c0,.072.043.308.057.479a1.532,1.532,0,0,1,.064.713c.05.064,0,0,.057.128l.093.756c0,.093.335,1.749.392,2.083s.093.713.143,1.092.2.756,0,.978a2.857,2.857,0,0,1-1.427,1,6.213,6.213,0,0,1-2.026.442,6.354,6.354,0,0,1-.492-.628c-.828-1.035-1.427-1.948-2.3-3.054-.293-.371-.564-.856-.885-1.249l-.942-1.206c-.257-.335-.557-.856-.863-1.27-.157-.207-.307-.371-.478-.6l-.9-1.241a3.777,3.777,0,0,0-.228-.307c-.235-.3-.164-.214-.107-.257a11.666,11.666,0,0,1,1.427-.157,17.113,17.113,0,0,0,6.643-2.646c.193-.136.714-.557.956-.535.086.228.756,4.831.714,5.037Zm34.591-2.633c-.371-.321-.756-.6-.564-1.306a1.063,1.063,0,0,1,2.076.235c0,.756-.5.92-.713,1.12a7.157,7.157,0,0,0,.157.963c0,.064-.514.535-.714.492a.719.719,0,0,1-.464-.635,4.184,4.184,0,0,0,.257-.871Zm-8.027.042a1.077,1.077,0,0,1,.264-2.1,1.056,1.056,0,0,1,.507,2.026,3.874,3.874,0,0,0,.457,1.27c.029.164-.171.257-.35.192l-.592-.442C138.154,6823.092,138.375,6823.206,138.346,6822.557Zm10.631,4.01c.2-.478,1.591-3.725,1.727-3.889.628,0,.557.157,1.077-.207a1.185,1.185,0,0,0,.392-1.027c0-1.513-2.026-2.2-2.626-.834a1.276,1.276,0,0,0-.043,1.013c.214.485.157.471-.128.849a12.088,12.088,0,0,1-1.156,1.306,5.971,5.971,0,0,1-1.427,1.056c-.414.164-.664-.143-.835-.328a13.565,13.565,0,0,1-2.083-2.854c-.157-.257-.4-.521-.385-.821,1.384-.756.713-2.382-.671-2.433-1.513-.063-2.083,1.577-.614,2.433a1.429,1.429,0,0,1-.3,1.028c-.4.713-1.905,2.961-2.519,2.968s-1.962-1.427-2.3-1.841a10.821,10.821,0,0,1-.885-1.163c-.164-.285-.114-.235,0-.528.478-1.191-1.177-2.1-2.076-1.284-.507.463-.714,1.548-.136,2,.435.321.635.171,1.17.243a9.427,9.427,0,0,1,.528,1.378c.271.834,1.17,2.753,1.384,3.489.121.42-.121.42-.128.813,1.527.664,6.579.642,8.562.435a27.015,27.015,0,0,0,3.018-.356,2.54,2.54,0,0,1,.407-1.463Zm-45.935-16.361c-.071-.049-.278-.128-.4-.2a2.03,2.03,0,0,1-.385-.257c-.385-.328-.321-.357-.485-.849-.549.085-1.056.792-1.27,1.334a3.084,3.084,0,0,0,.285,2.141c.442.82-.15.713-.635,1.626a1.135,1.135,0,0,0,0,1.049c.328.449.492.1.442.813a.715.715,0,0,0-.171.671c.093.514,0,.385-.114.771a1.89,1.89,0,0,0-.221,1.427c.186.6.763.507.642,1.1a2.709,2.709,0,0,0,.264,2.54c.128.158.128.158.285.179.464.521,3.839-.364,4.281-.5a20.151,20.151,0,0,0,5.03-2.526,1.084,1.084,0,0,0,.043-1.7c-.207-.236-.464-.321-.578-.656-.186-.536-.128-1.505-1.3-1.9a1.691,1.691,0,0,1-.442-.236,1.273,1.273,0,0,0-.136-.771c-.293-1.1-1.627-.485-1.612-1.476v-.478a.715.715,0,0,0-.128-.414,1.49,1.49,0,0,0-1.427-1.306,6.6,6.6,0,0,0-1.941-.372Zm37.659,10.061a4.281,4.281,0,0,0,.607.964,5.429,5.429,0,0,1-1.256,2.019l-.2-.414c.278-.45.592-.614.571-1.427a1.7,1.7,0,0,0-2.233-1.548c-.792.264-.714.642-1.077.87-.157-.235-.093-.763-.8-1.305a2.14,2.14,0,0,0-2.983,2.932c.714.82,1.07.292,1.363.885l.913,2.183c.193.435.321.913.485,1.341a2.28,2.28,0,0,1,.243.627s-.164.614-.185.664a17.5,17.5,0,0,1-1.912.656c-.6.221-1.191.493-1.8.757a16.347,16.347,0,0,0-9.318,11.167c-.171.713-.207,1.527-.357,2.211-.342,1.548.606,5.109,1.134,6.422a18.216,18.216,0,0,0,1.306,2.547,6.524,6.524,0,0,1,.471.771,10.659,10.659,0,0,0-1.206.57,6.787,6.787,0,0,0-.949.8,8.082,8.082,0,0,1-2.141-1.427c-.456-.364-.464-.457-.713-1.105-.178-.464-.328-.792-.514-1.249-.378-.927-.714-1.691-1.027-2.568l-1.563-3.839c-.171-.449-.278-.849-.471-1.3l-1.591-3.81c-.164-.428-.464-.856-.314-1.363a2.858,2.858,0,0,0-.649-2.668,3.959,3.959,0,0,0-.064-1.691,2.022,2.022,0,0,0-.714-1.07c-.3-.242-.221-.285-.285-.678l-.606-4c-.078-.535-.193-.956-.278-1.534-.164-1.077-.285-2.183-.457-3.246l-.478-3.2c-.093-.778.15-.9-.293-1.591-.314-.492-.656-.713-.714-1.077-.385-1.826-1.363-1.491-1.734-1.969-.157-.2.164-.664-.492-1.27a3.071,3.071,0,0,0-1.142-.678,3.2,3.2,0,0,0-.435-1.755,2.584,2.584,0,0,0-1.249-.949c-1.734-.607-2.932-.136-3.111-1.284-.043-.271-.057-.657-.407-.714a2.506,2.506,0,0,0-.756.292,2.854,2.854,0,0,0-1.584,2.8,3.067,3.067,0,0,0,.157.92c.335,1.063.414.5-.186,1.427a5.153,5.153,0,0,0-.314.75c-.328.97.407,1.391.435,1.626a1.428,1.428,0,0,0-.114.528,1.427,1.427,0,0,1,0,.6c-.378.984-.557,2.141.335,2.8a4.639,4.639,0,0,0,0,2.555,1.519,1.519,0,0,0,.713.756c.407.264.621.834.9,1.241l.935,1.206a7.345,7.345,0,0,1,.6.834,13.856,13.856,0,0,0,1.234,1.613c.107.149.214.278.314.435a5.642,5.642,0,0,0,.592.842c.328.464,1.006,1.234,1.227,1.62a20.7,20.7,0,0,0,1.527,2.055,4.06,4.06,0,0,1,.257.436,4.345,4.345,0,0,0,.314.385c.414.507.093,1.591,1.142,2.5.828.713.25.371.713,1.427a2.4,2.4,0,0,0,1.427,1.427c.243.129.364.664.485.956l2.561,5.994c.157.378.243.635.385,1.063a20.4,20.4,0,0,1,.806,1.983,3.017,3.017,0,0,0-2.39.935,4.369,4.369,0,0,0-1.027,2.24,11.759,11.759,0,0,0,.649,5.708,18.858,18.858,0,0,0,3.717,6.128l1.591,1.685c-.114.442-.442,1.113-.614,1.591a27.124,27.124,0,0,0-1.07,5.472c-.078,1.327-.285,2.619-.442,3.861a57.306,57.306,0,0,1-1.227,7.449,25.573,25.573,0,0,1-1.2,3.132,6.772,6.772,0,0,1-.713,1.427l-.778,1.37a2.482,2.482,0,0,0,.956,3c2.9,2.291,9.589,2.9,14.049,3.225.628.05,1.427.121,2.091.129a23.233,23.233,0,0,1,3.225,1.091c7.92,2.276,16.1,2.09,23.424-1.741a3.422,3.422,0,0,1,.714-.371c.143,0,.292.064.478.057a35.669,35.669,0,0,0,6.165-.872c3.111-.713,6.621-1.9,8.89-4.159a5.248,5.248,0,0,0,1.662-2.661,2.141,2.141,0,0,0-.5-1.626,63.866,63.866,0,0,1-4.638-10.5c-.385-1.035-.792-2.14-1.113-3.232-.235-.713-1.006-2.647-1.085-3.218a16.287,16.287,0,0,0,2.633-.306c3.289-.921,6.008-4.189,7.228-7.278,1.3-3.3-.507-3.3-1.227-2.619-.136.121,0,.057-.193.143-.407-.449-.492-.813-1.092-1.17-.714-.421-1.042-.285-1.905-.314-.15-.171-.243-.371-.385-.549-.863-1.085-2.561-1.1-3.018-.1-.271.592.2,1,.171,1.427-.043.578-1.705,1.063-2.383,1.234a11.677,11.677,0,0,1-3.318.271,4.079,4.079,0,0,0-2.854-3.4c0-1.427-.178-2.219-1.077-2.912a3.948,3.948,0,0,1,.535-.777,14.069,14.069,0,0,0,1.427-2.5,14.663,14.663,0,0,0-.121-12.958,16.154,16.154,0,0,0-4.874-5.707,21.076,21.076,0,0,0-5.13-2.8c-.257-.107-1.848-.57-1.948-.663-.25-.429.093-.864.235-1.264l1.049-2.318c.749-1.542.464-.913,1.22-1.306a2.235,2.235,0,0,0,.114-3.732,4.537,4.537,0,0,0-.535-.32,2.039,2.039,0,0,0-2.761,1.354c-.15.778.2,1.042.164,1.427-.385.214-.763.821-1.063.992,0-.35.714-.535.628-1.691a1.705,1.705,0,0,0-2.79-1.113c-1.2,1.049.25,2.9-.835,1.512a1.225,1.225,0,0,1-.307-.556c0-.222.713-.764.421-1.849a2.3,2.3,0,0,0-2.975-1.427,1.841,1.841,0,0,0-1.37,2.4Z" transform="translate(-23495.479 -11527.44)" fill="#070001" fill-rule="evenodd"/>
      <path id="路径_4449" data-name="路径 4449" d="M182.41,6921.257c.128.129-.15.129.521.064a4.711,4.711,0,0,0,.585-.071c.364-.079.778-.043,1.149-.114.649-.129,1.427-.25,2.1-.4a34.726,34.726,0,0,0,3.889-1.09c2.14-.764,4.83-2.242,5.993-3.954.235-.35.792-1.191.457-1.784a40.333,40.333,0,0,1-2.547-4.93c-.514-1.184-.978-2.3-1.427-3.532l-1.192-3.211a.8.8,0,0,0-.221-.435c-.05,2.968.157,3.567-.528,6.621a21.27,21.27,0,0,1-.806,2.79l-.785,1.9c-.107.186-.207.385-.307.6a19.49,19.49,0,0,1-2.947,4.224,22.378,22.378,0,0,1-3.931,3.325Z" transform="translate(-23519.285 -11554.334)" fill="#d41652" fill-rule="evenodd"/>
      <path id="路径_4450" data-name="路径 4450" d="M140.986,6879.149c.114-.136,1.12-.607,1.548-.878,1.869-1.148.792-1.134,2.7-.792a22.776,22.776,0,0,0,4.2.292,9.294,9.294,0,0,0,1.341-.136c.435-.036.892-.107,1.334-.157.771-.086.542,0,1.035.342l.828.635c.186.036.935.478,1.242.613a12.673,12.673,0,0,0,11.759-.927c.621-.421.664-.571,1.241-.607,2.141-.136,4.046.192,6.343-1.021a1.775,1.775,0,0,0,.942-.877c.285-.671-.186-1.035-.143-1.534.785-.628,1.52.043,1.848.578.235.385.228.713.8.621a2.19,2.19,0,0,1,1.191,0c.771.249,1,.8,1.306,1.591.171.442.621.414.863,0s.271-.649.714-.656c.671.207-1.427,4.281-2.447,5.33-1.8,2.227-4.017,3.774-7.321,3.511a23.166,23.166,0,0,0-2.376-4.517c-.485-.649-.714-1.084-1.327-1.021-.378.5,0,.714.321,1.07a18.386,18.386,0,0,1,3.439,8.5c.107,1.049.264,2.063.3,3.161a36.1,36.1,0,0,1-.235,4.895c-.093.5-.207.935-.3,1.427a23.157,23.157,0,0,1-1.869,4.937,19.146,19.146,0,0,1-4.581,5.58,22.521,22.521,0,0,1-4.038,2.7c-6.957,3.782-15.2,3.882-22.668,1.763a22.643,22.643,0,0,1-8.69-4.895c-.614-.606-1.092-1.035-1.7-1.727a23.14,23.14,0,0,1-4.866-18.23l.478-2.96c.093-.435.25-.906.35-1.363a11.841,11.841,0,0,1,.442-1.213,2.742,2.742,0,0,1,.414.307c.664.528,1.013-.214.635-.585-.228-.221-.492-.364-.714-.614s-.457-.4-.714-.642a18.929,18.929,0,0,1-5.13-8.241c-.578-2.19-.878-6.329,1.855-6.7.549-.071.821-.071.963.285.5,1.242,1.134,2.569,1.6,3.76.136.342.221.628.357.978s.243.606.392.949l2.383,5.587c.271.614.492,1.292.756,1.913l.806,1.87,1.591,3.76c.271.713.478,1.341.756,1.919.15.307.264.621.4.949s.278.614.407.927c.407.963,1.177,2.9,1.577,3.725.214.428.492,1.427.714,1.919l.821,1.862c.35.435,1.534.192,2-.243.714-.635.378-1.084.071-1.855-.492-1.263-1.042-2.518-1.548-3.781-.87-2.19-1.841-4.367-2.611-6.593-.671-1.948-1.655-3.889-2.34-5.836-1.049-2.726-2.141-5.4-3.254-8.1a9.871,9.871,0,0,1,.92.57c.849.507,1.163.485,1.313.935.471,1.37.186,4.495,2.055,6.186a7.2,7.2,0,0,0,4.4,1.648A12.252,12.252,0,0,0,140.986,6879.149Z" transform="translate(-23501.145 -11544.269)" fill="#fff" fill-rule="evenodd"/>
      <path id="路径_4451" data-name="路径 4451" d="M133.528,6923.927c-.128-.265-.714-.535-1-.714a9.97,9.97,0,0,1-1.02-.713,21.348,21.348,0,0,1-8.22-12.266l-.592-2.854c-.071.122-.457,3-.635,3.761a21.417,21.417,0,0,1-2.754,7.078,4.526,4.526,0,0,0-.45.671,1.527,1.527,0,0,0,.436,1.626c1.826,1.905,7.22,2.7,10.153,3.025C129.989,6923.648,132.986,6923.94,133.528,6923.927Z" transform="translate(-23501.057 -11555.933)" fill="#d41652" fill-rule="evenodd"/>
      <path id="路径_4452" data-name="路径 4452" d="M119.934,6852.825c-.107-.292-.178-.457-.293-.713s-.264-.463-.2-.713c.392-.25.614.606.856,1.163l1.777,4.281c.385,1.006.792,1.876,1.192,2.854s.778,1.919,1.17,2.854c.813,1.947,1.548,3.725,2.376,5.708l1.049,2.469c.057.143.078.221.136.356l.6,1.427a7.23,7.23,0,0,1,.3.713c.121.314.3.386,0,.643-.314-.036-.335-.271-.457-.571l-.878-2.141c-.392-.913-.771-1.827-1.177-2.819-1.106-2.689-2.44-5.757-3.518-8.462-.378-.949-.8-1.869-1.17-2.8-.5-1.27-1.32-3.054-1.762-4.231Zm-1.734-1.634a10.225,10.225,0,0,0,.506,1.255c.186.428.357.892.507,1.313.549,1.491,1.641,3.688,2.141,5.038.15.428.385.849.549,1.27.342.863.321.941.756,1.912.086.2.2.471.278.628l1.085,2.547c.164.428.328.885.528,1.292l3.739,8.9c.2.443.342.885.5,1.327.293.813.714,1.712,1.063,2.511.678,1.606,1.534,3.5,2.141,5.1.314.863.756,1.684,1.077,2.561s1.163,2.7,1.613,3.8c.093.228.186.4.285.621s.143.507.243.664c.378.05,1.184-.114,1.07-.627l-2.611-6.6c-.35-.877-.714-1.777-1.063-2.626s-.714-1.769-1.02-2.675l-3.2-7.849c-.664-1.841-1.334-3.468-2.091-5.294-.364-.871-.714-1.791-1.07-2.633s-.642-1.791-1.02-2.676-.714-1.7-1.063-2.618l-1.605-3.91c-.186-.428-.321-.978-.485-1.391l-1.07-2.6a6,6,0,0,0-.714.528,3.269,3.269,0,0,1-1.07.243Z" transform="translate(-23500.891 -11539.614)" fill="#e7b244" fill-rule="evenodd"/>
      <path id="路径_4453" data-name="路径 4453" d="M167.63,6879.022a9.411,9.411,0,0,0,3.211,1.6,12.526,12.526,0,0,0,8.184-.577,11.7,11.7,0,0,0,1.527-.878l1.084-.713c.2-.107.293-.093.435-.214a3.117,3.117,0,0,0-2.14-2.354c-.928-.214-.549-.713-.628-1.605a1.662,1.662,0,0,0-.813-1.427l-1.042,1.049a20.65,20.65,0,0,1-8.99,4.909C168.165,6878.851,167.78,6878.865,167.63,6879.022Z" transform="translate(-23515.051 -11546.04)" fill="#d41652" fill-rule="evenodd"/>
      <path id="路径_4454" data-name="路径 4454" d="M134.34,6872.709a6.2,6.2,0,0,1,.578,2.233c.293,2.4.614,4.46,3.375,5.294a9.52,9.52,0,0,0,7.135-.665,14.017,14.017,0,0,0,1.791-1.09c-.136-.1-1.627-.521-1.926-.628a20.011,20.011,0,0,1-7.913-4.93l-.606-.678c-.278-.314-.3-.549-.778-.507a2.758,2.758,0,0,0-1.655.971Z" transform="translate(-23505.514 -11545.72)" fill="#d41652" fill-rule="evenodd"/>
      <path id="路径_4455" data-name="路径 4455" d="M157.267,6857.833c.307.05.656.186,1.027.25,2.44.4,4.723-1.134,4.053-4.017-.221-.92-1.734-3.76-2.183-5.145-.186-.563-.471-1.263-1.184-1.213-.178.186-.378,0-.821,1.063a39.437,39.437,0,0,1-2.012,3.875,4.381,4.381,0,0,0-.649,3.075,3.063,3.063,0,0,0,1.7,2.048C157.267,6857.827,157.267,6857.791,157.267,6857.833Z" transform="translate(-23511.561 -11538.836)" fill="#de5b15" fill-rule="evenodd"/>
      <path id="路径_4456" data-name="路径 4456" d="M100.54,6818.333a1.891,1.891,0,0,0-.221,1.427c.186.6.756.507.642,1.1a2.709,2.709,0,0,0,.264,2.54c.128.157.128.157.285.178h.293a2.8,2.8,0,0,1,.492-1.228,7.6,7.6,0,0,1,2.454-2.04,6.3,6.3,0,0,0,1.5-1.17,5.468,5.468,0,0,0,1.712-1.869,4.371,4.371,0,0,0,.328-.585c.043-.107.086-.222.129-.308.114-.235.1-.057.114-.328a1.271,1.271,0,0,0-.136-.771c-.178-.057-.086.114-.157-.143v.036h0l-.064.1a2.691,2.691,0,0,1-1.049,1.141c-.292.193-.428.286-.713.485s-.5.264-.785.443a4.556,4.556,0,0,1-.778.436,5.978,5.978,0,0,0-.878.377l-1.62.942a1.276,1.276,0,0,1,.278-.421c.6-.8,0-.193.928-1.049a8.269,8.269,0,0,0,.635-.713,26.029,26.029,0,0,0,1.955-2.005l.585-1.049c.121-.457-.05-.713,0-.985a1.491,1.491,0,0,0-1.427-1.306c-.371,0-.114,0-.221.064.963.25.521,1.584.128,2.176a7.726,7.726,0,0,1-.664.885,13.787,13.787,0,0,1-1.612,1.542,10.773,10.773,0,0,0-.856.756c-.378.393-.913,1.484-1.242,1.427-.171,0,.057,0-.128-.086Z" transform="translate(-23495.752 -11528.483)" fill="#fff" fill-rule="evenodd"/>
      <path id="路径_4457" data-name="路径 4457" d="M102,6825.343c.464.521,3.839-.363,4.281-.5a20.116,20.116,0,0,0,5.03-2.525,1.085,1.085,0,0,0,.043-1.7c-.207-.236-.464-.321-.578-.657-.186-.535-.128-1.505-1.3-1.9a1.661,1.661,0,0,1-.442-.236c0,.271,0,.093-.114.329-.043.093-.086.2-.128.307a4.25,4.25,0,0,1-.328.585,5.475,5.475,0,0,1-1.713,1.869,6.321,6.321,0,0,1-1.5,1.17,7.593,7.593,0,0,0-2.455,2.04C102.342,6824.751,102.514,6825.365,102,6825.343Z" transform="translate(-23496.25 -11530.276)" fill="#f6e9d3" fill-rule="evenodd"/>
      <path id="路径_4458" data-name="路径 4458" d="M150.983,6851.027a7.589,7.589,0,0,1,.92-.856,3.741,3.741,0,0,0-.207-.92c-.1-.271-.271-.564-.343-.764.364.042.828.906,1.2,1.042a1.956,1.956,0,0,0,.435-.378c.228-.357-.756-1.142-1.02-1.334-1.613-1.156-3.411-.528-4.2,1.363a4.94,4.94,0,0,0-.342,2.854,5.839,5.839,0,0,0,.942,2.375,1.817,1.817,0,0,0,2.226.813,2.561,2.561,0,0,0,1.327-1.991c.321-1.777.114-1.562-.714-2a.64.64,0,0,1-.136-.079C150.99,6851.057,151.047,6851.114,150.983,6851.027Z" transform="translate(-23509.242 -11538.702)" fill="#0b318f" fill-rule="evenodd"/>
      <path id="路径_4459" data-name="路径 4459" d="M170.638,6852.274l-1.049-.585c.064-.207.763-.713.935-.913a7.991,7.991,0,0,0-.485-1.627c.478.172.764.885,1.142,1.006a1.516,1.516,0,0,0,.492-.506c.064-.364-2.14-2.611-3.91-1.484-1.349.841-1.769,2.183-1.705,4.217.086,2.9,2.783,4.994,4.16,2.461a4.874,4.874,0,0,0,.421-2.57Z" transform="translate(-23514.598 -11538.879)" fill="#0b318f" fill-rule="evenodd"/>
      <path id="路径_4460" data-name="路径 4460" d="M165.885,6862.628c-.243-.085-.342-.235-.571-.271a7.383,7.383,0,0,1-1.484,1.791,8.358,8.358,0,0,1-1.969,1.242c-4,1.883-11.223,1.427-13.649-2.619-.05-.086-.114-.229-.15-.278-.128-.179,0-.15-.278-.129-.107.157-.5.321-.714.485.036.5,1.206,1.684,1.534,1.977a9.218,9.218,0,0,0,2.183,1.427,14.483,14.483,0,0,0,4.181,1.163,10.694,10.694,0,0,0,3.2.05,12.225,12.225,0,0,0,4.174-1.177c1.334-.621,3.211-1.919,3.8-3.36C166.056,6862.714,165.992,6862.771,165.885,6862.628Z" transform="translate(-23509.16 -11543.031)" fill="#0b318f" fill-rule="evenodd"/>
      <path id="路径_4461" data-name="路径 4461" d="M113.172,6832.522c-.214,0-.086,0-.136.035a10.121,10.121,0,0,1,.186,1.791,11.85,11.85,0,0,0-.592,1.5,6.768,6.768,0,0,1,.913.185c.15.35.1.714-.285.756-.257,0-.714-.207-1.027-.2-.578.656-.193,1.213-1.784,1.342.078-.271.821-1.206.9-1.52l-1.948-.6c-.278.264-.114.335-.4.457a3.071,3.071,0,0,0-.663-.992,3.734,3.734,0,0,1-.714-1.005c.421.143.906.42,1.349.528a7.924,7.924,0,0,0,.8-1.541l-2.354-.792-.471.8a1.429,1.429,0,0,1-.464-.463c-.2-.285.064-.4.157-.671l-.335-.164a1.7,1.7,0,0,1-.714-.378,11.105,11.105,0,0,0-1.163-1.5c.086-.542.656-1,.714-1.492-.193-.15-.157,0-.228-.264,0,0,0-.042.043,0l1.077-.3c.257,0,.107,0,.243.057a12.313,12.313,0,0,0,2.062.863,19.393,19.393,0,0,0,.806-1.77c0-.085-.093-.1-.15-.278a9.227,9.227,0,0,0,1.142-.57c.214.092.064.085.392.171a4.22,4.22,0,0,0,.492.092c.392.064.713.058,1.134.122a8,8,0,0,1,.221,2.611,2.377,2.377,0,0,0-.25.714l.307.221c0,.114.235.1.257.214a.342.342,0,0,0,.036.136c.036.093,0,.085.1.157,0-.328-.136-.357-.036-.756,0-.207-.642-4.81-.714-5.038a2.846,2.846,0,0,0-.956.535,17.123,17.123,0,0,1-6.643,2.646,11.761,11.761,0,0,0-1.427.158c-.057.043-.128-.043.107.257q.122.148.228.307l.9,1.242c.171.229.321.392.478.6.307.414.606.935.863,1.27l.942,1.206c.321.392.592.877.885,1.249.878,1.105,1.47,2.02,2.3,3.054a6.293,6.293,0,0,0,.492.627,6.035,6.035,0,0,0,2.026-.442,2.857,2.857,0,0,0,1.427-1c.178-.221,0-.664,0-.978a7.284,7.284,0,0,0-.143-1.091C113.486,6834.242,113.208,6832.615,113.172,6832.522Z" transform="translate(-23496.531 -11532.325)" fill="#e7b242" fill-rule="evenodd"/>
      <path id="路径_4462" data-name="路径 4462" d="M174.4,6857.918a1.385,1.385,0,0,0-.713,1.634c.507,1.27,3.66,1.983,5.572.834,1.641-.984.714-2.219-.621-2.732a5.4,5.4,0,0,0-4.238.264Z" transform="translate(-23516.77 -11541.597)" fill="#f0bcc2" fill-rule="evenodd"/>
      <path id="路径_4463" data-name="路径 4463" d="M140.807,6856.984a3.825,3.825,0,0,0-1.905.635,1.22,1.22,0,0,0-.457,1.72c.678,1.021,2.512,1.3,3.8,1.206.714-.05,3.182-.864,2.319-2.391C144.082,6857.333,142.213,6856.784,140.807,6856.984Z" transform="translate(-23506.637 -11541.482)" fill="#f0bcc2" fill-rule="evenodd"/>
      <path id="路径_4464" data-name="路径 4464" d="M149.78,6883.408a17.1,17.1,0,0,0,3.189-.506c.849-.208,3.068.755,6.771.1a9.016,9.016,0,0,0,1.427-.385c.713-.25.927.071,1.612.1l-.828-.635c-.492-.371-.264-.428-1.035-.342-.442.05-.892.121-1.334.157a9.159,9.159,0,0,1-1.341.136,22.86,22.86,0,0,1-4.2-.292c-1.905-.343-.828-.357-2.7.791C150.9,6882.8,149.894,6883.294,149.78,6883.408Z" transform="translate(-23509.938 -11548.528)" fill="#cacac9" fill-rule="evenodd"/>
      <path id="路径_4465" data-name="路径 4465" d="M119.934,6851.723a1.059,1.059,0,0,0,.2.713c.107.228.186.428.3.713.435,1.177,1.256,2.961,1.762,4.231.364.927.785,1.848,1.163,2.8,1.077,2.711,2.412,5.772,3.518,8.462.407.992.785,1.905,1.177,2.819l.878,2.14c.121.3.143.536.457.571.3-.257.121-.329,0-.643a7.291,7.291,0,0,0-.3-.714l-.6-1.426c-.057-.136-.078-.214-.136-.357l-1.049-2.469c-.828-1.991-1.563-3.774-2.376-5.708-.392-.928-.778-1.883-1.17-2.854s-.806-1.855-1.192-2.854l-1.777-4.281C120.548,6852.329,120.326,6851.473,119.934,6851.723Z" transform="translate(-23501.383 -11539.975)" fill="#f3cf88" fill-rule="evenodd"/>
      <path id="路径_4466" data-name="路径 4466" d="M101.527,6816.288a.591.591,0,0,0-.157.6c.078.456,0,.342-.1.713h.071c.164.1-.036.05.121.072.293.042.763-.935,1.106-1.285q.364-.357.763-.678a12.673,12.673,0,0,0,1.427-1.377,7.529,7.529,0,0,0,.592-.8c.357-.521.714-1.72-.114-1.941.1-.063-.136-.078.2-.057a6,6,0,0,0-1.741-.335,1.761,1.761,0,0,1,.307,1.5,4.737,4.737,0,0,1-.464,1.363,4.385,4.385,0,0,1-1.791,1.8C101.634,6816.237,101.534,6816.944,101.527,6816.288Z" transform="translate(-23496.039 -11528.378)" fill="#f6e9d3" fill-rule="evenodd"/>
      <path id="路径_4467" data-name="路径 4467" d="M109.2,6815.8c-.293-1.1-1.627-.485-1.613-1.477v-.479a.712.712,0,0,0-.128-.414c-.057.286.114.528,0,.985l-.585,1.049a25.844,25.844,0,0,1-1.955,2,8.217,8.217,0,0,1-.635.714c-.892.856-.328.249-.928,1.049a1.276,1.276,0,0,0-.278.421l1.627-.942a5.505,5.505,0,0,1,.87-.378,4.6,4.6,0,0,0,.778-.436c.286-.178.528-.285.785-.442a7.083,7.083,0,0,0,.714-.492C109.145,6816.12,108.553,6815.585,109.2,6815.8Z" transform="translate(-23496.557 -11529.017)" fill="#f6e9d3" fill-rule="evenodd"/>
      <path id="路径_4468" data-name="路径 4468" d="M113.745,6830.737a1.457,1.457,0,0,0,.243-.584c.071-.229.143-.364.2-.557a8.527,8.527,0,0,0,.293-1.212c-.364-.05-.714-.064-1.063-.114a9.764,9.764,0,0,0-.963-.178,2.714,2.714,0,0,1-.178.514c-.214.385-.064-.05-.2.492-.093.363-.357.635-.435.984a4.068,4.068,0,0,0,1.02.378,10.783,10.783,0,0,0,1.085.277Z" transform="translate(-23499.01 -11533.217)" fill="#e8b044" fill-rule="evenodd"/>
      <path id="路径_4469" data-name="路径 4469" d="M117.267,6843.1c0,.449-.656.713-1.035.856a6.762,6.762,0,0,1-.678.229c-.364.092-.535.157-.542-.271-.178-.1,0,0-.464.078s-.778-.114-.35.9a1.628,1.628,0,0,0,.485.6,5.167,5.167,0,0,0,1.755-.385,2.606,2.606,0,0,0,.713-.393c.236-.186,1.013-.528.592-1.484l-.392-.713c-.285.436-.25.185-.478.471h.235C117.388,6843.053,117.188,6842.96,117.267,6843.1Z" transform="translate(-23499.686 -11537.348)" fill="#e8b344" fill-rule="evenodd"/>
      <path id="路径_4470" data-name="路径 4470" d="M112.086,6834.5a7.129,7.129,0,0,0,.828-1.862l-2.226-.642c-.143.35-.835,1.484-.878,1.749a16.96,16.96,0,0,0,2.276.756Z" transform="translate(-23498.486 -11534.337)" fill="#e7b242" fill-rule="evenodd"/>
      <path id="路径_4471" data-name="路径 4471" d="M118.5,6847.008c.221.278-.057.414-.271.556s-.621.371-.806.178.25-.371.4-.549l-.285.035c-.05-.079,0,0,0-.157l-.3.085-.114.05c-.114.057,0,0-.114.071.342,0,.207-.15.421.079-.457.064-.714.271-1.527.377a1.327,1.327,0,0,0,1.37,1.378,1.5,1.5,0,0,0,1.063-.322c.136-.121.235-.186.371-.314s.228-.314.335-.371a2.309,2.309,0,0,0-.328-1.527.768.768,0,0,1-.407.329Z" transform="translate(-23500.23 -11538.514)" fill="#e8b344" fill-rule="evenodd"/>
      <path id="路径_4472" data-name="路径 4472" d="M107.946,6832.94a9.379,9.379,0,0,0,.878-1.726c-.514-.129-1.77-.764-2-.764l-.856,1.591a8.149,8.149,0,0,0,1.976.9Z" transform="translate(-23497.385 -11533.893)" fill="#e7b242" fill-rule="evenodd"/>
      <path id="路径_4473" data-name="路径 4473" d="M114.561,6839.042a10.9,10.9,0,0,0,.714-1.741l-1.855-.321a7.587,7.587,0,0,0-.8,1.534,12.592,12.592,0,0,0,1.941.528Z" transform="translate(-23499.291 -11535.763)" fill="#e8b344" fill-rule="evenodd"/>
      <path id="路径_4474" data-name="路径 4474" d="M116.239,6833.978a1.533,1.533,0,0,0-.064-.713l-1.127-.114c-.143.328-.271.656-.421.977a4.946,4.946,0,0,0-.407.921,6.331,6.331,0,0,0,1.791.342l.157-.485C116.489,6834.192,116.111,6834.514,116.239,6833.978Z" transform="translate(-23499.748 -11534.666)" fill="#e8b344" fill-rule="evenodd"/>
      <path id="路径_4475" data-name="路径 4475" d="M114.9,6843.792l.071-.1c.228-.308.278.064,1.22-.393.357-.178.528-.585.963-.321-.078-.135.121-.042-.143-.114h-.235c.228-.285.193-.035.478-.471l.392.713c.421.957-.357,1.3-.592,1.485a2.617,2.617,0,0,1-.714.392,5.19,5.19,0,0,1-1.755.386,1.624,1.624,0,0,1-.485-.6c-.428-1.013-.107-.8.35-.9s.285-.178.464-.077Zm-1.291.035a2.385,2.385,0,0,0,.849,1.727c.435.271,3.118-.528,3.439-1.513a2.289,2.289,0,0,0-.564-1.941,6.217,6.217,0,0,1-3.425,1.634C113.7,6843.77,113.753,6843.727,113.61,6843.827Z" transform="translate(-23499.574 -11537.229)" fill="#eabd48" fill-rule="evenodd"/>
      <path id="路径_4476" data-name="路径 4476" d="M117.457,6846.961c0,.178-.05.078,0,.158l.285-.036c.321-.1.285-.258.714-.186l-.193-.1a.775.775,0,0,0,.407-.328A2.31,2.31,0,0,1,119,6848c-.107.057-.2.243-.335.371s-.235.192-.371.314a1.5,1.5,0,0,1-1.063.321,1.327,1.327,0,0,1-1.37-1.377c.792-.108,1.07-.314,1.527-.379-.214-.228-.078-.057-.421-.079,0,0-1.327.236-1.334.365v.192a2.141,2.141,0,0,0,.714,1.25,2,2,0,0,0,1.826.084,2.929,2.929,0,0,0,1.113-1.12,2.677,2.677,0,0,0-.471-1.748c-.193.043-.407.308-.621.435a6.327,6.327,0,0,0-.735.334Z" transform="translate(-23500.152 -11538.402)" fill="#eabd48" fill-rule="evenodd"/>
      <path id="路径_4477" data-name="路径 4477" d="M115.42,6844.109c0,.428.178.364.542.271a6.641,6.641,0,0,0,.678-.228c.378-.15,1.02-.407,1.034-.856-.435-.264-.606.143-.963.321-.942.457-.992.085-1.22.393Z" transform="translate(-23500.094 -11537.548)" fill="#f3cf88" fill-rule="evenodd"/>
      <path id="路径_4478" data-name="路径 4478" d="M118.4,6847.358c-.15.179-.635.293-.4.549s.621-.057.806-.178.492-.278.271-.557C118.7,6847.1,118.7,6847.258,118.4,6847.358Z" transform="translate(-23500.816 -11538.678)" fill="#f3cf88" fill-rule="evenodd"/>
      <path id="路径_4479" data-name="路径 4479" d="M112.395,6836.132a12.573,12.573,0,0,1-1.976-.529,7.6,7.6,0,0,1,.8-1.534l1.855.321a10.95,10.95,0,0,1-.713,1.742Zm-1.655-3.111a17.106,17.106,0,0,1-2.276-.757,14.841,14.841,0,0,1,.878-1.748l2.226.643a7.143,7.143,0,0,1-.828,1.862Zm-3.054-1.12a9.42,9.42,0,0,0,.878-1.726c-.514-.129-1.769-.765-2-.765l-.856,1.592a8.129,8.129,0,0,0,1.976.9Zm4.174-1.527a10.783,10.783,0,0,1-1.085-.278,4.07,4.07,0,0,1-1.02-.378c.079-.35.343-.621.435-.984.136-.542,0-.108.2-.493a2.68,2.68,0,0,0,.178-.514,9.763,9.763,0,0,1,.963.178c.35.05.714.057,1.063.114a8.559,8.559,0,0,1-.293,1.213c-.057.193-.128.328-.2.556a1.464,1.464,0,0,1-.243.585Zm1.905,2.676-.093-.756c0-.114,0-.063-.057-.128-.128.535.25.213-.071.941l-.157.485a6.4,6.4,0,0,1-1.791-.342,4.917,4.917,0,0,1,.407-.921c.15-.321.278-.649.421-.978l1.127.114a1.312,1.312,0,0,0-.057-.478c-.057-.15,0-.193,0-.257,0-.207,0-.093-.071-.2a.785.785,0,0,1-.664,0,2.371,2.371,0,0,1,.25-.714,8,8,0,0,0-.221-2.611c-.385-.065-.713-.057-1.134-.122a4.322,4.322,0,0,1-.492-.093c-.328-.085-.178-.079-.392-.171a9.785,9.785,0,0,1-1.142.571c.057.179.15.193.15.279a19.331,19.331,0,0,1-.806,1.769,12.237,12.237,0,0,1-2.055-.863c-.143-.079,0-.086-.25-.057l-1.077.3h-.043c.071.249,0,.114.228.264-.057.492-.628.949-.714,1.49a11.236,11.236,0,0,1,1.163,1.5,1.6,1.6,0,0,0,.713.371l.335.171c-.093.271-.357.385-.157.671a1.436,1.436,0,0,0,.464.464l.471-.8,2.355.785a7.763,7.763,0,0,1-.8,1.547c-.442-.106-.928-.385-1.349-.527a3.771,3.771,0,0,0,.714,1.006,3.072,3.072,0,0,1,.663.991c.285-.121.121-.192.4-.457l1.948.6c-.078.315-.821,1.249-.9,1.521,1.591-.129,1.206-.714,1.784-1.341.278,0,.771.207,1.027.2.385,0,.435-.406.285-.756a6.621,6.621,0,0,0-.913-.186,15.752,15.752,0,0,1,.77-1.655c.114-.442-.121-.55-.271-1.627Z" transform="translate(-23497.125 -11532.853)" fill="#e2a132" fill-rule="evenodd"/>
      <path id="路径_4480" data-name="路径 4480" d="M153.71,6827.55a1.077,1.077,0,0,1,.264-2.09,1.057,1.057,0,0,1,.507,2.02,4.007,4.007,0,0,0,.449,1.27c.021.157-.164.257-.342.2l-.592-.442C153.5,6828.092,153.71,6828.2,153.71,6827.55Z" transform="translate(-23510.857 -11532.462)" fill="#fff" fill-rule="evenodd"/>
      <path id="路径_4481" data-name="路径 4481" d="M164.973,6827.507c-.371-.314-.756-.593-.564-1.3a1.063,1.063,0,0,1,2.076.228c0,.763-.5.927-.714,1.127a7.338,7.338,0,0,0,.157.963c0,.064-.514.536-.714.485a.718.718,0,0,1-.464-.635,4.179,4.179,0,0,0,.221-.87Z" transform="translate(-23514.113 -11532.462)" fill="#fff" fill-rule="evenodd"/>
    </g>
  </g>
</svg>
