<svg xmlns="http://www.w3.org/2000/svg" width="58.087" height="80.25" viewBox="0 0 58.087 80.25">
  <g id="组_2298" data-name="组 2298" transform="translate(22971.196 4707.91)">
    <path id="路径_4717" data-name="路径 4717" d="M555.95,6831.079c.519.318,2.408,1.273,6.552,1.273,4.428,0,4.76-1.425,4.781-1.584l-.145-1.135a.276.276,0,0,1,0-.167l1.674-4.975a.381.381,0,0,1,.339-.263,1,1,0,1,0-1.066-.989.978.978,0,0,0,.166.547.38.38,0,0,1-.069.5c-2.553,2.18-2.837,2.187-3.017,2.194s-.388,0-1.384-1.01a15.845,15.845,0,0,1-1.508-1.813.381.381,0,0,1,.1-.526,1.156,1.156,0,0,0,.6-1.135,1.508,1.508,0,0,0-1.384-1.383,1.48,1.48,0,0,0-1.384,1.384,1.19,1.19,0,0,0,.692,1.177.388.388,0,0,1,.18.263.367.367,0,0,1-.083.312c-.2.235-.408.5-.609.754-1.038,1.294-1.73,2.124-2.373,2.124h-.152c-.367-.076-1.079-.45-3.051-2.837a.388.388,0,0,1,0-.429,1.021,1.021,0,0,0,.131-.491,1,1,0,0,0-1.993,0,1.01,1.01,0,0,0,.692.955.416.416,0,0,1,.249.221l2.166,5.535a.306.306,0,0,1,0,.173Z" transform="translate(-23504.307 -11527.772)" fill="#fff" fill-rule="evenodd"/>
    <path id="路径_4718" data-name="路径 4718" d="M529.841,6889.609s-6.283,15.665-4.74,23.692c0,0-.408,3.051,5.916,3.957a117.839,117.839,0,0,0,15.112.755l-3.577-14.393S529.8,6889.492,529.841,6889.609Z" transform="translate(-23495.656 -11549.029)" fill="#d41652" fill-rule="evenodd"/>
    <path id="路径_4719" data-name="路径 4719" d="M529.8,6890.131c-.477,1.252-1.667,4.47-2.719,8.255-1.785,6.372-2.4,11.451-1.785,14.676a.219.219,0,0,1,0,.117,2.077,2.077,0,0,0,.547,1.384c.595.692,1.958,1.682,5.044,2.117a111.776,111.776,0,0,0,14.572.754L542,6903.6c-3.086-3.418-10.441-11.556-12.226-13.5Zm14.745,28.1a109.56,109.56,0,0,1-13.755-.769c-2.726-.387-4.6-1.217-5.577-2.455a2.872,2.872,0,0,1-.692-1.854c-.637-3.384,0-8.428,1.806-14.98,1.335-4.774,2.872-8.656,2.955-8.87a.443.443,0,0,1,.166-.194.388.388,0,0,1,.505.1,1.584,1.584,0,0,0,.118.117c.055.048.228.256.408.443l1.446,1.591c1.059,1.155,2.526,2.768,4.366,4.844,3.141,3.459,6.31,6.981,6.338,7.016a.313.313,0,0,1,.09.159l3.577,14.393a.38.38,0,0,1-.062.325.388.388,0,0,1-.3.146S545.412,6918.229,544.547,6918.229Z" transform="translate(-23495.479 -11548.858)" fill="#070001" fill-rule="evenodd"/>
    <path id="路径_4720" data-name="路径 4720" d="M581,6916.63s15.52-.263,17.9-4.255-2.83-23.415-6.407-26.806-7.459,21.6-7.459,21.6S581,6916.671,581,6916.63Z" transform="translate(-23512.951 -11547.688)" fill="#d41652" fill-rule="evenodd"/>
    <path id="路径_4721" data-name="路径 4721" d="M591.66,6885.463a.455.455,0,0,0-.152,0c-.554.187-2.076,1.647-4.235,11.071-1.2,5.259-2.007,10.441-2.013,10.5a.451.451,0,0,1,0,.09c-.92,2.151-3.107,7.258-3.806,8.912,1.232-.042,4.269-.187,7.438-.616,5.342-.692,8.649-1.91,9.556-3.459,1-1.682.6-6.919-1.01-13.348-1.543-6.137-3.729-11.479-5.328-12.994a.636.636,0,0,0-.422-.208Zm-10.829,31.379a.416.416,0,0,1-.214-.062.429.429,0,0,1-.1-.567l.131-.3.45-1.079,1.384-3.245c.927-2.18,1.861-4.353,2.007-4.685.083-.533.872-5.487,2.013-10.5a67.357,67.357,0,0,1,2.076-7.514c.906-2.5,1.744-3.812,2.636-4.117a1.258,1.258,0,0,1,1.335.353c1.986,1.875,4.214,8.061,5.535,13.361a54.711,54.711,0,0,1,1.488,8.3c.235,2.719.048,4.608-.554,5.625-1.052,1.757-4.449,3.044-10.116,3.806a79.624,79.624,0,0,1-8.1.636Z" transform="translate(-23512.783 -11547.52)" fill="#070001" fill-rule="evenodd"/>
    <path id="路径_4722" data-name="路径 4722" d="M554.877,6875.2c13.423,0,24.46,2.075,24.46,16.032s-10.843,25.345-24.266,25.345-24.3-11.334-24.3-25.317S541.453,6875.2,554.877,6875.2Z" transform="translate(-23497.477 -11544.591)" fill="#fff" fill-rule="evenodd"/>
    <path id="路径_4723" data-name="路径 4723" d="M554.707,6875.393c-5.764,0-12.282.326-16.911,2.733s-6.815,6.615-6.815,12.925c0,13.749,10.732,24.91,23.92,24.91s23.885-11.188,23.885-24.91c0-6.3-2.283-10.524-6.988-12.925s-11.292-2.733-17.091-2.733Zm.194,41.357a23.671,23.671,0,0,1-9.611-2.021,24.5,24.5,0,0,1-7.847-5.536,25.791,25.791,0,0,1-5.286-8.165,26.436,26.436,0,0,1-1.938-10c0-6.622,2.366-11.071,7.224-13.6s11.4-2.816,17.3-2.816a69.228,69.228,0,0,1,9.535.54,24.828,24.828,0,0,1,7.9,2.276c4.982,2.533,7.4,6.981,7.4,13.6a26.566,26.566,0,0,1-1.931,10,25.755,25.755,0,0,1-5.272,8.165,24.452,24.452,0,0,1-7.833,5.536,23.659,23.659,0,0,1-9.645,2.02Z" transform="translate(-23497.307 -11544.409)" fill="#070001" fill-rule="evenodd"/>
    <path id="路径_4724" data-name="路径 4724" d="M541.989,6872.141s-3.46,1.384-2.92,2.865c0,0-4.463,1.861-3.771,4.151,0,0,1.626-1.9,5.279-.242s11.431,1.114,14.143-1.384-3.653-6.871-3.653-6.871S542.03,6872.175,541.989,6872.141Z" transform="translate(-23498.85 -11543.191)" fill="#d41652" fill-rule="evenodd"/>
    <path id="路径_4725" data-name="路径 4725" d="M541.862,6871.615ZM542.083,6871.719ZM542.083,6871.719Zm0,0ZM542.083,6871.719Zm-.131.623.131-.623Zm-4.338,5.369a7.174,7.174,0,0,1,2.941.692c3.4,1.542,11.071,1.127,13.735-1.308a1.529,1.529,0,0,0,.547-1.294,5.981,5.981,0,0,0-2.076-3.287,19.67,19.67,0,0,0-1.937-1.619l-4.373.726-3.121.5-1.038.166-.367.048c-1.031.429-2.955,1.529-2.657,2.36a.373.373,0,0,1-.208.477c-1,.422-3.307,1.688-3.577,3.072a4.066,4.066,0,0,1,2.152-.56Zm8.3,2.387a14.308,14.308,0,0,1-5.674-.982c-3.321-1.508-4.767.083-4.844.146a.352.352,0,0,1-.367.125.368.368,0,0,1-.284-.263c-.692-2.249,2.671-4.013,3.7-4.49-.111-1.6,2.851-2.851,3.211-3a.364.364,0,0,1,.145,0c.422-.042,5.6-.893,9-1.46a.354.354,0,0,1,.277.055c.18.125,4.311,3,4.491,5.536a2.276,2.276,0,0,1-.8,1.91c-1.322,1.217-3.854,2.076-6.919,2.338-.637.056-1.287.083-1.924.083Z" transform="translate(-23498.674 -11543.04)" fill="#070001" fill-rule="evenodd"/>
    <path id="路径_4726" data-name="路径 4726" d="M570.93,6877.986s1.6,3.2,7.231,2.935a31.985,31.985,0,0,0,9.154-1.619s.1-2.18-2.712-2.65c0,0,.062-2.131-3.294-2.47S570.909,6878.008,570.93,6877.986Z" transform="translate(-23509.85 -11544.271)" fill="#d41652" fill-rule="evenodd"/>
    <path id="路径_4727" data-name="路径 4727" d="M571.3,6877.965a4.98,4.98,0,0,0,1.225,1.155,8.73,8.73,0,0,0,5.452,1.273,33.6,33.6,0,0,0,8.774-1.509c-.076-.519-.464-1.7-2.38-2.014a.381.381,0,0,1-.311-.387c0-.07,0-1.786-2.955-2.076-2.186-.222-6.442,1.667-9.8,3.563Zm6.054,3.2a9.113,9.113,0,0,1-5.307-1.454,5.032,5.032,0,0,1-1.626-1.716.381.381,0,0,1,.138-.491h.048c1.7-.976,7.494-4.151,10.545-3.819a4.148,4.148,0,0,1,3.176,1.522,2.631,2.631,0,0,1,.429,1,3.4,3.4,0,0,1,2.394,1.641,2.819,2.819,0,0,1,.346,1.35.373.373,0,0,1-.242.339,32.084,32.084,0,0,1-9.272,1.646Z" transform="translate(-23509.68 -11544.117)" fill="#070001" fill-rule="evenodd"/>
    <path id="路径_4728" data-name="路径 4728" d="M555.6,6830.747c.519.318,2.408,1.273,6.552,1.273,4.428,0,4.76-1.425,4.781-1.584l-.145-1.135a.277.277,0,0,1,0-.167l1.674-4.975a.381.381,0,0,1,.339-.263,1,1,0,1,0-1.066-.989.978.978,0,0,0,.166.547.38.38,0,0,1-.069.5c-2.553,2.18-2.837,2.187-3.017,2.194s-.387,0-1.384-1.01a15.845,15.845,0,0,1-1.508-1.813.381.381,0,0,1,.1-.526,1.156,1.156,0,0,0,.595-1.135,1.508,1.508,0,0,0-1.384-1.383,1.48,1.48,0,0,0-1.384,1.384,1.19,1.19,0,0,0,.692,1.177.388.388,0,0,1,.18.263.368.368,0,0,1-.083.312c-.2.235-.408.5-.609.754-1.038,1.294-1.73,2.124-2.373,2.124H557.5c-.367-.076-1.079-.45-3.051-2.837a.387.387,0,0,1,0-.429,1.023,1.023,0,0,0,.131-.491,1,1,0,0,0-1.993,0,1.01,1.01,0,0,0,.692.955.416.416,0,0,1,.249.221l2.166,5.535a.306.306,0,0,1,0,.173l-.131,1.384Zm6.552,2.034c-5.293,0-7.12-1.495-7.2-1.563a.361.361,0,0,1-.131-.326l.145-1.487-2.076-5.273a1.758,1.758,0,1,1,2.422-1.619,1.7,1.7,0,0,1-.111.616c1.744,2.076,2.318,2.366,2.463,2.4,0,0,.194,0,.65-.5.346-.36.74-.858,1.128-1.335l.36-.457a1.923,1.923,0,0,1-.692-1.577,2.131,2.131,0,0,1,4.262,0,1.9,1.9,0,0,1-.616,1.522,12.29,12.29,0,0,0,2.076,2.179,18.616,18.616,0,0,0,2.3-1.792,1.821,1.821,0,0,1-.125-.691,1.757,1.757,0,1,1,2.124,1.715l-1.571,4.671.145,1.079v.042a1.571,1.571,0,0,1-.505,1.059c-.858.865-2.553,1.335-5.058,1.335Z" transform="translate(-23503.955 -11527.44)" fill="#070001" fill-rule="evenodd"/>
    <path id="路径_4729" data-name="路径 4729" d="M557.741,6834.52c10.649,0,19.284,7.12,19.284,15.914s-8.635,15.915-19.284,15.915-19.291-7.12-19.291-15.915S547.085,6834.52,557.741,6834.52Z" transform="translate(-23499.844 -11532.059)" fill="#fff" fill-rule="evenodd"/>
    <path id="路径_4730" data-name="路径 4730" d="M557.571,6834.743c-10.434,0-18.917,6.96-18.917,15.52s8.483,15.521,18.917,15.521,18.91-6.961,18.91-15.521S568,6834.743,557.571,6834.743Zm0,31.828a21.811,21.811,0,0,1-13.887-4.746,16.407,16.407,0,0,1-4.228-5.176,13.776,13.776,0,0,1,0-12.725,16.449,16.449,0,0,1,4.228-5.169,22.674,22.674,0,0,1,27.767,0,16.452,16.452,0,0,1,4.228,5.169,13.776,13.776,0,0,1,0,12.725,16.4,16.4,0,0,1-4.228,5.176,21.807,21.807,0,0,1-13.88,4.7Z" transform="translate(-23499.674 -11531.9)" fill="#070001" fill-rule="evenodd"/>
    <path id="路径_4731" data-name="路径 4731" d="M552.461,6847.193h-.311a.38.38,0,0,1,.1-.754,2.682,2.682,0,0,0,1.785-.491,2.389,2.389,0,0,0,.8-1.73.379.379,0,1,1,.754.069,3.127,3.127,0,0,1-1.08,2.255A3.3,3.3,0,0,1,552.461,6847.193Z" transform="translate(-23503.967 -11534.94)" fill="#0b318f" fill-rule="evenodd"/>
    <path id="路径_4732" data-name="路径 4732" d="M576.073,6846.533a3.877,3.877,0,0,1-2.657-.955,3.8,3.8,0,0,1-1.017-1.425.381.381,0,0,1,.692-.257c.035.1.913,2.394,3.958,1.771a.381.381,0,1,1,.152.747A5.832,5.832,0,0,1,576.073,6846.533Z" transform="translate(-23510.301 -11534.896)" fill="#0b318f" fill-rule="evenodd"/>
    <path id="路径_4733" data-name="路径 4733" d="M551.518,6851.951a.362.362,0,0,1-.256-.1.381.381,0,0,1,0-.533,7.12,7.12,0,0,1,7.867-1.529.38.38,0,0,1-.284.692,6.272,6.272,0,0,0-5.079,0,6.556,6.556,0,0,0-1.944,1.321A.358.358,0,0,1,551.518,6851.951Z" transform="translate(-23503.756 -11536.584)" fill="#0b318f" fill-rule="evenodd"/>
    <path id="路径_4734" data-name="路径 4734" d="M578.8,6851.131a.4.4,0,0,1-.228-.076,6.476,6.476,0,0,0-6.283-.754.381.381,0,0,1-.505-.173.388.388,0,0,1,.18-.512,7.025,7.025,0,0,1,2.235-.547,7.113,7.113,0,0,1,4.844,1.384.374.374,0,0,1,.083.526.38.38,0,0,1-.325.152Z" transform="translate(-23510.102 -11536.532)" fill="#0b318f" fill-rule="evenodd"/>
    <path id="路径_4735" data-name="路径 4735" d="M578.079,6853.239a.409.409,0,0,1-.27-.111c-1.384-1.383-4.352-.283-4.38-.276a.38.38,0,0,1-.491-.214.373.373,0,0,1,.221-.491c.138-.056,3.46-1.294,5.182.442a.373.373,0,0,1,0,.532.39.39,0,0,1-.263.119Z" transform="translate(-23510.459 -11537.341)" fill="#0b318f" fill-rule="evenodd"/>
    <path id="路径_4736" data-name="路径 4736" d="M563.457,6854.45c1.432-2.691,3.391-2.388,5.487-1.148s4.913.512,5.535,1.017.36,1.7-2.076,3.148S562.177,6860.124,563.457,6854.45Z" transform="translate(-23507.504 -11537.562)" fill="#de5916" fill-rule="evenodd"/>
    <path id="路径_4737" data-name="路径 4737" d="M554.436,6862.882h-.284a.38.38,0,0,1-.353-.4.386.386,0,0,1,.4-.359,1.661,1.661,0,0,0,1.384-.367,1.252,1.252,0,0,0,.242-.935.388.388,0,0,1,.3-.442.381.381,0,0,1,.443.3,2.013,2.013,0,0,1-.422,1.577A2.208,2.208,0,0,1,554.436,6862.882Z" transform="translate(-23504.572 -11540.021)" fill="#0b318f" fill-rule="evenodd"/>
    <path id="路径_4738" data-name="路径 4738" d="M580.9,6863.2a1.871,1.871,0,0,1-1.453-.539,1.912,1.912,0,0,1-.36-1.6.366.366,0,0,1,.45-.283.381.381,0,0,1,.291.449,1.148,1.148,0,0,0,.187.927,1.612,1.612,0,0,0,1.328.256.381.381,0,0,1,.429.325.373.373,0,0,1-.325.423,3.794,3.794,0,0,1-.547.042Z" transform="translate(-23512.348 -11540.144)" fill="#0b318f" fill-rule="evenodd"/>
    <path id="路径_4739" data-name="路径 4739" d="M568,6870.447c0-.415.256-.388.692-.388s.837,0,.837.388v11a.761.761,0,1,1-1.515,0Z" transform="translate(-23508.947 -11543.007)" fill="#d41652" fill-rule="evenodd"/>
    <path id="路径_4740" data-name="路径 4740" d="M556.632,6889.479l3.307,19.374s6.919,2.3,10.379-.941l1.917-19.374s.865-.692-.221-1.605-13.839-.546-15.769.692a1.031,1.031,0,0,0,.387,1.854Z" transform="translate(-23505.189 -11548.049)" fill="#d41652" fill-rule="evenodd"/>
    <path id="路径_4741" data-name="路径 4741" d="M560.131,6908.43c1.162.339,6.746,1.778,9.687-.831l1.91-19.222a.339.339,0,0,1,.138-.256.561.561,0,0,0,.18-.374.976.976,0,0,0-.415-.644c-.3-.25-2.844-.54-7.327-.374-3.93.139-7.106.561-7.957,1.045-.18.193-.374.47-.311.692a.872.872,0,0,0,.491.471.387.387,0,0,1,.27.166.4.4,0,0,1,.056.152l3.266,19.16Zm4.705,1.467a9.687,9.687,0,0,1-1.169-.048,18.892,18.892,0,0,1-3.986-.761.373.373,0,0,1-.256-.3l-3.273-19.181h-.062a2.086,2.086,0,0,1-.484-.38c-.242-.276-.692-1.01.242-1.993l.076-.055c1.093-.692,5.051-1.066,8.379-1.183,1.834-.069,3.591-.062,4.954,0,2.387.131,2.768.429,2.878.54a1.624,1.624,0,0,1,.692,1.245,1.265,1.265,0,0,1-.339.823l-1.91,19.229a.368.368,0,0,1-.118.242,8.14,8.14,0,0,1-5.625,1.82Z" transform="translate(-23505.029 -11547.902)" fill="#070001" fill-rule="evenodd"/>
    <path id="路径_4742" data-name="路径 4742" d="M544.42,6887.627a6.733,6.733,0,0,0,5.051,4.553c6.58.1,7.044,8.705-5.093,7.237-8.248-1-9.791-7.209-9.929-11.07S544.4,6887.654,544.42,6887.627Z" transform="translate(-23498.609 -11548.05)" fill="#fff" fill-rule="evenodd"/>
    <path id="路径_4743" data-name="路径 4743" d="M558.318,6890.133a.3.3,0,0,1-.055-.6,66.882,66.882,0,0,1,7.016-.8c2.595-.062,6.608.193,6.642.193a.305.305,0,0,1-.035.609c-.042,0-4.027-.256-6.594-.193a63.554,63.554,0,0,0-6.919.789Z" transform="translate(-23505.873 -11548.757)" fill="#070001" fill-rule="evenodd"/>
    <path id="路径_4744" data-name="路径 4744" d="M547.82,6900.548a18.684,18.684,0,0,1-3.64-.394,12.461,12.461,0,0,1-7.978-4.81,12.148,12.148,0,0,1-2.263-6.636.38.38,0,0,1,.367-.394.387.387,0,0,1,.394.366c.152,4.283,2.768,9.348,9.625,10.725,5.819,1.17,7.93-.615,8.566-1.432a2.769,2.769,0,0,0,.318-2.935,4.2,4.2,0,0,0-3.875-2.117h0a7.1,7.1,0,0,1-5.383-4.8.38.38,0,0,1,.215-.491.387.387,0,0,1,.491.222,6.439,6.439,0,0,0,4.705,4.317,4.859,4.859,0,0,1,4.546,2.547,3.5,3.5,0,0,1-.4,3.722,5.587,5.587,0,0,1-3.307,1.875A10.949,10.949,0,0,1,547.82,6900.548Z" transform="translate(-23498.453 -11548.413)" fill="#070001" fill-rule="evenodd"/>
    <path id="路径_4745" data-name="路径 4745" d="M590.178,6890.7c-2.865,8.628-9.258,10.047-13.486,8.85s-4.152-6.594-.152-7.009,6.3-4.934,6.3-4.934S590.254,6890.647,590.178,6890.7Z" transform="translate(-23510.65 -11548.414)" fill="#fff" fill-rule="evenodd"/>
    <path id="路径_4746" data-name="路径 4746" d="M582.833,6887.934a12.643,12.643,0,0,1-1.536,2.076,7.8,7.8,0,0,1-4.885,2.768,2.768,2.768,0,0,0-2.657,2.554,3.6,3.6,0,0,0,2.872,3.708,9.676,9.676,0,0,0,2.643.367c3.778,0,8.026-2.214,10.275-8.663-.969-.429-4.29-1.806-6.712-2.8Zm-3.653,12.248a10.065,10.065,0,0,1-2.768-.381,4.763,4.763,0,0,1-2.678-1.827,4.055,4.055,0,0,1-.74-2.685,3.522,3.522,0,0,1,3.328-3.238c3.75-.388,5.971-4.691,6-4.732a.381.381,0,0,1,.478-.18s1.861.761,3.674,1.522c1.066.443,1.924.8,2.532,1.059l.837.36c.381.173.526.235.54.471a.311.311,0,0,1,0,.159,17.043,17.043,0,0,1-2.768,5.307,11.4,11.4,0,0,1-3.639,3.017,10.493,10.493,0,0,1-4.8,1.148Z" transform="translate(-23510.48 -11548.26)" fill="#fff" fill-rule="evenodd"/>
    <path id="路径_4747" data-name="路径 4747" d="M579.18,6900.181a10.047,10.047,0,0,1-2.768-.381,4.763,4.763,0,0,1-2.678-1.826,4.056,4.056,0,0,1-.74-2.685,3.522,3.522,0,0,1,3.328-3.238c3.75-.388,5.971-4.685,6-4.732a.372.372,0,0,1,.505-.166.387.387,0,0,1,.173.512,12.5,12.5,0,0,1-1.709,2.395,7.8,7.8,0,0,1-4.885,2.767,2.768,2.768,0,0,0-2.657,2.554,3.6,3.6,0,0,0,2.871,3.709,9.677,9.677,0,0,0,2.643.366c3.84,0,8.158-2.283,10.379-9a.379.379,0,0,1,.484-.235.374.374,0,0,1,.235.478,16.934,16.934,0,0,1-2.768,5.314,11.411,11.411,0,0,1-3.64,3.016A10.485,10.485,0,0,1,579.18,6900.181Z" transform="translate(-23510.48 -11548.26)" fill="#070001" fill-rule="evenodd"/>
    <path id="路径_4748" data-name="路径 4748" d="M553.208,6854.189a.4.4,0,0,1-.277-.117.381.381,0,0,1,0-.533,6.846,6.846,0,0,1,1.854-1.169,6.6,6.6,0,0,1,4.691-.242.38.38,0,1,1-.228.692,6.135,6.135,0,0,0-5.791,1.231A.381.381,0,0,1,553.208,6854.189Z" transform="translate(-23504.271 -11537.385)" fill="#0b318f" fill-rule="evenodd"/>
    <path id="路径_4749" data-name="路径 4749" d="M552.577,6853.3a.387.387,0,0,1-.277-.118.381.381,0,0,1,0-.54,7.247,7.247,0,0,1,1.951-1.218,7.547,7.547,0,0,1,5.01-.4.373.373,0,0,1,.27.464.388.388,0,0,1-.464.27,6.92,6.92,0,0,0-6.227,1.44.368.368,0,0,1-.263.1Z" transform="translate(-23504.074 -11537.065)" fill="#0b318f" fill-rule="evenodd"/>
    <path id="路径_4750" data-name="路径 4750" d="M552.207,6852.383a.373.373,0,0,1-.277-.117.381.381,0,0,1,0-.54,7.455,7.455,0,0,1,1.944-1.218,7.568,7.568,0,0,1,5.017-.4.38.38,0,0,1-.194.733,6.7,6.7,0,0,0-4.491.353,6.884,6.884,0,0,0-1.757,1.087A.369.369,0,0,1,552.207,6852.383Z" transform="translate(-23503.961 -11536.782)" fill="#0b318f" fill-rule="evenodd"/>
    <path id="路径_4751" data-name="路径 4751" d="M578.216,6852.435a.368.368,0,0,1-.256-.1c-1.508-1.419-4.671-.312-4.705-.3a.374.374,0,0,1-.484-.228.381.381,0,0,1,.235-.485c.145-.056,3.626-1.267,5.473.464a.38.38,0,0,1,0,.539.385.385,0,0,1-.263.118Z" transform="translate(-23510.41 -11537.089)" fill="#0b318f" fill-rule="evenodd"/>
    <path id="路径_4752" data-name="路径 4752" d="M578.515,6851.69a.392.392,0,0,1-.256-.1c-1.667-1.509-5.321-.54-5.355-.533a.381.381,0,0,1-.2-.733c.166-.041,4.089-1.086,6.061.692a.374.374,0,0,1,0,.54.361.361,0,0,1-.249.131Z" transform="translate(-23510.314 -11536.822)" fill="#0b318f" fill-rule="evenodd"/>
    <path id="路径_4753" data-name="路径 4753" d="M564.98,6868.323a10.152,10.152,0,0,1-6.643-2.526,11.487,11.487,0,0,1-2.339-2.706.393.393,0,0,1,.692-.373,10.715,10.715,0,0,0,2.186,2.518,9.215,9.215,0,0,0,6.511,2.319,7.73,7.73,0,0,0,5.639-2.388,6.089,6.089,0,0,0,1.336-2.234.387.387,0,0,1,.47-.263.374.374,0,0,1,.263.463,6.921,6.921,0,0,1-1.481,2.519,8.474,8.474,0,0,1-6.227,2.664Z" transform="translate(-23505.234 -11540.682)" fill="#0b318f" fill-rule="evenodd"/>
    <path id="路径_4754" data-name="路径 4754" d="M548.051,6858.119c-2.346,0-3.985,1.487-2.519,2.221,1.266.637,3.764.242,4.539-.692.422-.519.111-.962-.367-1.2A3.625,3.625,0,0,0,548.051,6858.119Z" transform="translate(-23501.854 -11539.328)" fill="#f1bdc2" fill-rule="evenodd"/>
    <path id="路径_4755" data-name="路径 4755" d="M586.05,6856.079c-2.346,0-3.986,1.487-2.526,2.221,1.273.637,3.771.243,4.546-.692.422-.512.111-.962-.367-1.2A3.728,3.728,0,0,0,586.05,6856.079Z" transform="translate(-23513.559 -11538.699)" fill="#f1bdc2" fill-rule="evenodd"/>
    <path id="路径_4756" data-name="路径 4756" d="M559.618,6824.942a.906.906,0,1,0,.906.907.907.907,0,0,0-.906-.907Zm0,2.415a1.508,1.508,0,1,1,1.508-1.508A1.508,1.508,0,0,1,559.618,6827.356Z" transform="translate(-23505.9 -11528.922)" fill="#070001" fill-rule="evenodd"/>
    <path id="路径_4757" data-name="路径 4757" d="M569.958,6824.942a.907.907,0,1,0,.9.907A.907.907,0,0,0,569.958,6824.942Zm0,2.415a1.508,1.508,0,1,1,1.508-1.508A1.508,1.508,0,0,1,569.958,6827.356Z" transform="translate(-23509.086 -11528.922)" fill="#070001" fill-rule="evenodd"/>
    <path id="路径_4758" data-name="路径 4758" d="M559.886,6825.21a.906.906,0,1,0,.906.907.906.906,0,0,0-.906-.907Z" transform="translate(-23506.168 -11529.19)" fill="#fff" fill-rule="evenodd"/>
    <path id="路径_4759" data-name="路径 4759" d="M570.223,6825.21a.907.907,0,1,0,.9.907A.907.907,0,0,0,570.223,6825.21Z" transform="translate(-23509.35 -11529.19)" fill="#fff" fill-rule="evenodd"/>
  </g>
</svg>
