<svg xmlns="http://www.w3.org/2000/svg" width="187.971" height="209.871" viewBox="0 0 187.971 209.871">
  <path id="路径_1180" data-name="路径 1180" d="M425.43,79.772h0a13.063,13.063,0,0,0-9.379,3.954,13.532,13.532,0,0,0-3.886,9.547,13.687,13.687,0,0,0,4.641,10.252c-1.171,6.137-3.262,9.925-5.6,10.016-.073,0-.156,0-.238,0-4.313,0-8.434-4-10.663-6.608A13.621,13.621,0,0,0,401.841,99a13.421,13.421,0,0,0-12.47-12c-.231-.012-.458-.017-.683-.018a13.11,13.11,0,0,0-9.395,3.942,13.58,13.58,0,0,0,6.587,22.744l6.544,18.291c-17.558,5.7-32.616,15.717-43.564,29-11.4,13.838-17.429,30.175-17.429,47.244,0,21.852,9.84,42.363,27.708,57.755,17.725,15.27,41.262,23.679,66.277,23.679s48.553-8.409,66.277-23.679c17.868-15.392,27.709-35.9,27.709-57.755,0-17.071-6.025-33.408-17.422-47.244-10.944-13.285-26-23.305-43.571-29l6.543-18.288A13.524,13.524,0,0,0,462.817,87c-.22-.01-.431-.015-.64-.015a13.393,13.393,0,0,0-13.266,13.487,13.73,13.73,0,0,0,1.616,6.462c-2.229,2.609-6.35,6.608-10.663,6.608-.082,0-.164,0-.247,0-2.328-.09-4.418-3.875-5.589-10.009a13.438,13.438,0,0,0-8.6-23.759Z" transform="translate(-331.432 -79.772)" fill="#fafafa"/>
</svg>
