<svg xmlns="http://www.w3.org/2000/svg" width="65.14" height="80.4" viewBox="0 0 65.14 80.4">
  <g id="组_2293" data-name="组 2293" transform="translate(22975.524 4859.061)">
    <path id="路径_4670" data-name="路径 4670" d="M525.43,6669.52c0,2.107,2.423,1.693,3.462,3.006.836,1.053-.14,2.212.316,2.584.133.112.351.189.506.3.906.7.478,1.292.562,1.735s1.187.379,1.124,2.107c0,.843.112.6.407,1.187a1.271,1.271,0,0,1,0,1.3c-.246.408-1.77.808-2.282.955a17.6,17.6,0,0,1-2.633.541c-1.208.133-4.839.365-5.618-.7-.562-.758-.154-1.741.225-2.464s0-.6-.161-1.173a1.629,1.629,0,0,1,.239-1.264c.225-.372.513-.52.569-1.046s.639-.667.351-1.11c-.105-.168-.246-.231-.274-.547a1,1,0,0,1,.169-.66,2.958,2.958,0,0,1,.836-.78c.583-.372.351-.456.274-1.151a3.379,3.379,0,0,1,.112-1.4A2.107,2.107,0,0,1,525.43,6669.52Z" transform="translate(-23495.789 -11527.78)" fill="#fff" stroke="#231815" stroke-miterlimit="22.93" stroke-width="0.07" fill-rule="evenodd"/>
    <path id="路径_4671" data-name="路径 4671" d="M571.551,6678.373c-.274-.225-.442-.2-.618-.541a.962.962,0,0,1,1.51-1.124,1,1,0,0,1,.147,1.256c-.056.239.063.2-.1.457a7.25,7.25,0,0,1-.948,1.321l-.323-.169Z" transform="translate(-23510.631 -11529.849)" fill="#fff" stroke="#231815" stroke-miterlimit="22.93" stroke-width="0.07" fill-rule="evenodd"/>
    <path id="路径_4672" data-name="路径 4672" d="M561.662,6680.93a4.012,4.012,0,0,1-1.362-.977c-.478-.478-.976-.814-.7-1.489a.955.955,0,0,1,1.524-.3.985.985,0,0,1,.288.878c-.07.379-.316.442-.471.7A6.713,6.713,0,0,0,561.662,6680.93Z" transform="translate(-23507.258 -11530.277)" fill="#fff" stroke="#231815" stroke-miterlimit="22.93" stroke-width="0.07" fill-rule="evenodd"/>
    <path id="路径_4673" data-name="路径 4673" d="M563.8,6687.634a16.572,16.572,0,0,1,11.763,3.82,12.451,12.451,0,0,1,2.991,15.513c-.133.253-.393.211-.7.295a4.3,4.3,0,0,0-.7.274,4.592,4.592,0,0,0-2.556,3.315c-.225,1.068.07.843-.59,1.328a19.566,19.566,0,0,1-11.889,3.75,20.246,20.246,0,0,1-6.644-1.2,15.806,15.806,0,0,1-4.979-2.858,13.384,13.384,0,0,1-4.438-7.311l-.239-1.721a11.885,11.885,0,0,1,0-1.875,13.834,13.834,0,0,1,5.913-9.706,17.676,17.676,0,0,1,5.225-2.6c.513-.141,1.067-.26,1.58-.373s1.131-.182,1.664-.3a30.723,30.723,0,0,1,3.6-.344Z" transform="translate(-23503.168 -11533.162)" fill="#fff" stroke="#231815" stroke-miterlimit="22.93" stroke-width="0.07" fill-rule="evenodd"/>
    <path id="路径_4674" data-name="路径 4674" d="M555.266,6764.95a22.577,22.577,0,0,0,7.957.7c15.766-1.208,18.961-11.98,19.579-15.078.077-.372.133-.751.2-1.131a9.462,9.462,0,0,0,.176-2.668c-.618-.274-2.008,0-4.214-1.692a17.479,17.479,0,0,1-2.809-2.992c-.421.063-.815.2-1.285.253a8.251,8.251,0,0,1-3.863-.512,6.005,6.005,0,0,1-3.336-2.627,7.982,7.982,0,0,1-.906-4.95,9.97,9.97,0,0,1,.59-2.4,9.585,9.585,0,0,1,1.047-1.937,6.624,6.624,0,0,1-2.627-2.051c-.421.057-1.089.281-1.552.379a22.512,22.512,0,0,1-3.42.428c-.639.049-.478.091-1.229.632-3.4,2.423-7.353,3.82-11.651,2.739a11.463,11.463,0,0,1-2.7-1.089,9.726,9.726,0,0,1-2.184-1.6,15.556,15.556,0,0,1-3.139-.45c-.829-.189-2.591-.835-2.648-.85,0,.555.632,5.281.758,6.159l.225,1.812c0,.176,0,.1.07.19a24.8,24.8,0,0,0,3.891,1.208c.316.077.8.084.892.393a3.038,3.038,0,0,1-.253.983,24.578,24.578,0,0,0-1.11,6.566c-.183,7.873,4.663,16.237,12.065,19.1C554.178,6764.606,554.866,6764.831,555.266,6764.95Z" transform="translate(-23500.631 -11545.152)" fill="#fff" stroke="#231815" stroke-miterlimit="22.93" stroke-width="0.07" fill-rule="evenodd"/>
    <path id="路径_4675" data-name="路径 4675" d="M521.9,6685.966c.358.639,4.017.478,4.495.436a21.3,21.3,0,0,0,5.724-1.488,1.138,1.138,0,0,0,.414-1.735c-.154-.288-.4-.436-.449-.8-.07-.589.2-1.58-.913-2.24a1.664,1.664,0,0,1-.4-.337c-.07.274,0,.1-.19.309l-.2.288a4.774,4.774,0,0,1-.457.526,5.887,5.887,0,0,1-2.177,1.545,6.7,6.7,0,0,1-1.8.871,7.939,7.939,0,0,0-2.964,1.56C522.371,6685.432,522.413,6686.106,521.9,6685.966Z" transform="translate(-23496.059 -11530.841)" fill="#f6e9d3" fill-rule="evenodd"/>
    <path id="路径_4676" data-name="路径 4676" d="M522.741,6676.394a.7.7,0,0,0-.33.653c0,.541-.07.394-.281.766l.077.056c.161.155-.056.049.119.112.323.12,1.11-.885,1.587-1.208a10.686,10.686,0,0,1,1.046-.583,15.537,15.537,0,0,0,2-1.229,8,8,0,0,0,.871-.765c.541-.52,1.285-1.8.351-2.262.126-.049-.141-.119.239,0a6.877,6.877,0,0,0-1.91-.814,2.106,2.106,0,0,1,0,1.8,5.816,5.816,0,0,1-.878,1.446,5,5,0,0,1-2.493,1.623C522.874,6676.366,522.587,6677.152,522.741,6676.394Z" transform="translate(-23496.127 -11528.256)" fill="#f6e9d3" fill-rule="evenodd"/>
    <path id="路径_4677" data-name="路径 4677" d="M531.552,6677.437c-.063-1.194-1.573-.864-1.334-1.876.035-.168.091-.322.112-.491a.7.7,0,0,0-.042-.449c-.119.273,0,.562-.225,1l-.836.948a27.35,27.35,0,0,1-2.451,1.63,7.364,7.364,0,0,1-.808.582,3.788,3.788,0,0,0-1.18.878c-.169.147-.253.161-.379.372l1.875-.611a6.345,6.345,0,0,1,.983-.189,6.069,6.069,0,0,0,.892-.28c.33-.12.6-.176.906-.281s.534-.2.871-.337C531.412,6677.752,530.927,6677.071,531.552,6677.437Z" transform="translate(-23496.805 -11529.299)" fill="#f6e9d3" fill-rule="evenodd"/>
    <path id="路径_4678" data-name="路径 4678" d="M599.121,6754.015l3.736-.555,1.138,7.107.112,4.986-.78,2.605a24.877,24.877,0,0,1-2.809,1.208c-.794.211-7.577,1.405-7.577,1.405l-3.511.225,2.809-2.107,4.214-4.417,2.17-5.084.618-4.073S599.121,6754.064,599.121,6754.015Z" transform="translate(-23516.164 -11552.771)" fill="#d41652" fill-rule="evenodd"/>
    <path id="路径_4679" data-name="路径 4679" d="M537.41,6756.114l1.924-.063-5.618-40.971c-.162,0-.555.239-.885.3a7.077,7.077,0,0,1-1.082,0Z" transform="translate(-23498.99 -11541.345)" fill="#e8b347" fill-rule="evenodd"/>
    <path id="路径_4680" data-name="路径 4680" d="M540.465,6744.282a24.317,24.317,0,0,0-.78,6.1c.2,2.262.274,6.32,1.271,7.5s3.2,7.339,7.774,9.424c3.75,1.728,3.715,1.728,3.715,1.728s-.751.261-.829.295-9.263.372-9.263.372l-6.679-.9-3.862-2.036-.653-1.89.815-2.036,2.2-7.191.653-2.852.274-1,1.1,4.832.667,6.987.183.555,1.854.183.309-.576-2.261-18.87,1.531-3.427,2.072.33.211.457S540.465,6744.353,540.465,6744.282Z" transform="translate(-23498.814 -11549.204)" fill="#d41652" fill-rule="evenodd"/>
    <path id="路径_4681" data-name="路径 4681" d="M533.365,6719.428a9.755,9.755,0,0,0,1.194.386,4.063,4.063,0,0,1-.211.555c-.077.183-.154.358-.218.548a8.5,8.5,0,0,0-.422,1.152,12.21,12.21,0,0,1-.344-2.641Zm49.756,22.957c1.11-2.577.077-8.757-.295-12.219-.091-.639-.19-1.355-.33-1.966a5.478,5.478,0,0,0,2.324-3.083,7.724,7.724,0,0,0,.274-1.713v-.751a7.226,7.226,0,0,0-.456-2.254,8.474,8.474,0,0,0-1.833-2.935,13.779,13.779,0,0,0-1.924-1.482c-.548-.365-1.1-.7-1.657-1.068-.274-.182-.513-.337-.787-.533a14.2,14.2,0,0,1-1.194-.85,11.476,11.476,0,0,0-.611-1.4,6.825,6.825,0,0,0-2.718-2.732c-.112-.07-.176,0-.19-.492v-1.4c0-.281.042-.365.042-.639,0-.547.154-1.882.225-2.507a2.893,2.893,0,0,0,.07-1.124,2.763,2.763,0,0,0-2.282-1.812,2.4,2.4,0,0,1,.183-.414,13.576,13.576,0,0,0,.2-10.83l-.393-.842a13.913,13.913,0,0,0-1.159-1.9c-.049-.07-.077-.091-.133-.162a17.536,17.536,0,0,0-2.809-2.732,31.144,31.144,0,0,0-3.02-1.833,1.062,1.062,0,0,0-.239-.106c-.969-.386-4.129-1.531-4.916-1.355,0-.7-.4,0,.148-1.9.112-.442.7-2.865.758-3.167h0a2.037,2.037,0,0,0,1.313-1.637,1.828,1.828,0,0,0-.1-.955c-.962-2.107-3.694-1.348-3.75.218a1.727,1.727,0,0,0-1.594-.365,1.614,1.614,0,0,0-1.145,1.032c-.414,1.074.337,1.454.225,1.924h-.126c-.049-.2-.358-.471-.492-.653-.323-.464-.7-.758-.471-1.243a2.015,2.015,0,0,0-.141-1.854l-.161-.218a1.995,1.995,0,0,0-2.922-.127,1.96,1.96,0,0,0-.52,1.861,1.676,1.676,0,0,0,.436.85c.218.246.337.274.309.379l-.892,1.861a.463.463,0,0,1-.211-.225c0-.351.105-.309.126-.583a1.833,1.833,0,0,0-1.327-1.994,2.006,2.006,0,0,0-1.362.273c-.176.113-.042.141-.246.141,0-.112-.042-.126-.141-.246a1.68,1.68,0,0,0-.2-.225,2.747,2.747,0,0,0-.485-.317,1.994,1.994,0,0,0-2.486,2.95c.548.7,1.046.661,1.2.843a7.868,7.868,0,0,1,.576,1.088l1.348,2.57a.831.831,0,0,0,.056.112c.077.134,0,.078.091.092.07.442-.077.7.126,1.1a20.716,20.716,0,0,0-3.055,1.587,1.562,1.562,0,0,0-.2.141,18.8,18.8,0,0,0-3.511,3.006,21.508,21.508,0,0,0-1.622,2.381,14.83,14.83,0,0,0-1.285,2.978,13.813,13.813,0,0,0,.042,7.233,16.041,16.041,0,0,0,3.315,5.618,14.515,14.515,0,0,0,1.58,1.439,5.33,5.33,0,0,0-1.615,2.3,9.219,9.219,0,0,0-3.209,1.265c-.253.154-.176.182-.506.147a17.178,17.178,0,0,1-4.284-.949l-.548-.224c-.534-.2-.485-.2-.534-.534l-.126-.765c-.042-.3-.049-.829-.119-1.11-.042-.175,0-.351-.084-.513a3.965,3.965,0,0,1-.077-.569c-.049-.393-.084-.772-.126-1.1l-.267-2.206c0-.246-.07-.238-.084-.506a14.694,14.694,0,0,1-.154-1.685,3.127,3.127,0,0,0,.225-2.908c-.077-.2-.042-.2.042-.407a2.715,2.715,0,0,0,.239-.745,3.385,3.385,0,0,0-.281-1.692c-.358-.779-.309.07-.2-1.468a3.8,3.8,0,0,1,.07-.562c.063-.45.042-1.187.147-1.636s.056-1.208.176-1.707c.049-.225.105-.821.126-1.1.042-.6.168-1.468.239-2.149l.218-2.247a13.222,13.222,0,0,1,.19-1.6,6.078,6.078,0,0,0,0-.611c0-.2.105-.238.168-.436.428-1.327-.59-1.938-.506-2.331a2.718,2.718,0,0,0-.464-1.925,1.794,1.794,0,0,0-.646-.589,2.2,2.2,0,0,0-1.187-2.3,2.683,2.683,0,0,0-1.594-3.477l-.751-.351c-.253-.126-.527-.19-.794-.309-.414-.189-.4-.471-.527-.548,0-.814.351-1.608-1.25-1.124-.133.042-.7.295-.8.351a2.928,2.928,0,0,0-1.461,2.367v1.475a2.763,2.763,0,0,0-.962,1.01,1.758,1.758,0,0,0-.161,1.307c.253.814.246.042-.063.856a.766.766,0,0,0-.07.26c-.07.464-.218.365-.6,1.1a2.107,2.107,0,0,0,.091,2.177,3.427,3.427,0,0,0-.471,2.851c.169.337.084.267.211.323l.309.344.52,1.4v.127c.147.21,1.2,3.034,1.4,3.511l.435,1.011.133.379c.049.126.077.21.133.337.148.337,0,.232.267.7.013.029.027.057.042.084.19.344,1.489,3.617,1.664,4.08l.077.176c.506.962.154,1.159.232,1.945a2.627,2.627,0,0,0,.091.379,2.382,2.382,0,0,0,.442,1.047c.3.428.2.126.19.7,0,2.107,1.159,2.275,1.236,2.725l.7,5.148c.035.365.253,1.454.253,1.749-.983.084-1.657,1.208-1.9,2.065-.779,2.725.667,5.239,2.746,6.791.161.119.449.26.5.484.316,2.268.7,4.663.99,6.932.07.59.639,4,.548,4.326s-.365,1.306-.562,2.106c-.154.7-.2,1.292-.358,1.98-.464,2.17-1.566,6.889-2.577,8.378a2.731,2.731,0,0,0-.435,1.229,3.153,3.153,0,0,0,.941,2.493,8.477,8.477,0,0,0,3.975,2.107c3.266.92,8.582,1.313,17,.436a22.931,22.931,0,0,0,8.828.892,26.823,26.823,0,0,0,10.274-2.689c.14,0,.148.084.414.07.035,0,12.971-.562,14.305-3.645Zm-13.512,2.908a18.659,18.659,0,0,0,8.9-13.048h0a13.341,13.341,0,0,0,.281-3.153,7.475,7.475,0,0,0,2.992-.513c.562,3.568,1.671,11.236.7,13.526s-10,3-12.845,3.188Zm-38.5-12.079c-.471,2.184-1.608,7.072-2.7,8.68a1.938,1.938,0,0,0-.316.885,2.5,2.5,0,0,0,.751,1.938,7.835,7.835,0,0,0,3.645,1.911c3,.85,7.788,1.229,15.253.555-9.038-3.82-13.4-14.783-11.37-24.018l.7-2.683-1.756-.436c-.126.168-.913,2.282-1.046,2.633-.7,1.889-.435.969-.246,3.013.105,1.082.267,2.233.421,3.294.611,4.256,1.145,8.546,1.735,12.81.056.21.112.821-1.1,1.032a1.769,1.769,0,0,1-1.749-.478l-.056-.077v-.091c-.07-.526-1.4-11.349-1.643-11.573a23.569,23.569,0,0,1-.513,2.6Zm19,14.045a22.588,22.588,0,0,0,7.957.7c15.766-1.208,18.961-11.98,19.579-15.078.077-.372.133-.751.2-1.13a9.467,9.467,0,0,0,.176-2.669c-.618-.273-2.008,0-4.214-1.692a17.483,17.483,0,0,1-2.809-2.992c-.421.063-.815.2-1.285.253a8.27,8.27,0,0,1-3.862-.513,6,6,0,0,1-3.336-2.626,7.982,7.982,0,0,1-.906-4.951,9.964,9.964,0,0,1,.59-2.4,9.592,9.592,0,0,1,1.047-1.938,6.618,6.618,0,0,1-2.627-2.051c-.421.056-1.089.281-1.552.379a22.514,22.514,0,0,1-3.42.428c-.639.049-.478.091-1.229.632-3.4,2.423-7.353,3.82-11.651,2.739a11.463,11.463,0,0,1-2.7-1.089,9.707,9.707,0,0,1-2.184-1.6,15.554,15.554,0,0,1-3.139-.45c-.829-.189-2.591-.836-2.648-.85,0,.555.632,5.281.758,6.159l.225,1.812c0,.176,0,.1.07.189a24.7,24.7,0,0,0,3.891,1.208c.316.077.8.084.892.394a3.03,3.03,0,0,1-.253.983,24.578,24.578,0,0,0-1.11,6.566c-.183,7.873,4.663,16.237,12.065,19.1.379.147,1.068.372,1.468.492Zm-17.487-15.015h0l1.327,9.719a1.19,1.19,0,0,0,1,.154,2.858,2.858,0,0,1,.541-.09v-.105c-1.882-13.568-3.511-27.143-5.267-40.732-.154,0-.555.239-.885.295a6.3,6.3,0,0,1-1.081,0l4.4,30.753Zm-4.087-23.09.2.884c.042.323.07.639.112.948.126.983.78,4.979.8,5.583a7.164,7.164,0,0,1-1.4-1.4c-1.8-2.345-1.278-5.618.323-6Zm17.241,4.8a10.783,10.783,0,0,1-5.871-1.679,8.266,8.266,0,0,1-1.4-1.061,8.906,8.906,0,0,1,3.09-1.116c.161-.105.232-.527.323-.745a4.087,4.087,0,0,1,1.468-1.721c.175.056.85.526,1.053.646.393.231.7.407,1.131.618a17.275,17.275,0,0,0,2.479,1.019,20.56,20.56,0,0,0,5.885,1.04,16.019,16.019,0,0,1-3.511,2.016,12.441,12.441,0,0,1-4.621.982Zm28.189-3.645a5.96,5.96,0,0,1,2.065,2.367,8.16,8.16,0,0,1-1.664-1.615,4.823,4.823,0,0,1-.4-.751Zm-12.606-.435a14.941,14.941,0,0,0,2.809-1.2c.442-.225.871-.464,1.285-.7a14.169,14.169,0,0,1,1.257-.8,13.788,13.788,0,0,0,.147,1.622c.042.316.267,1.236.26,1.439a4.8,4.8,0,0,0-3.336,1.4,5.782,5.782,0,0,1-2.437-1.735Zm10.352,14.242c.154-.141.779-.4,1-.534.464-.274,2.016-1.4,2.016-1.854a.358.358,0,0,0-.407-.365c-.19,0-.667.583-.815.7a7.154,7.154,0,0,1-3.076,1.657,7.726,7.726,0,0,1-5.183-.7c-4.614-2.325-3.167-9.7-.225-11.5a4.921,4.921,0,0,1,1.152-.428,6.166,6.166,0,0,1,4.481.6c.161.084.365.232.513.295a.388.388,0,1,0,.33-.7,7.437,7.437,0,0,0-3.582-1.138,14.3,14.3,0,0,1-.428-3.884,4.522,4.522,0,0,1,1.229-3.075,3.6,3.6,0,0,1,3.153-1.048,1.91,1.91,0,0,1,1.292.885c.253.436,0,1.348,0,1.9a24.325,24.325,0,0,0-.176,4.108,4.755,4.755,0,0,0,1.819,3.511c.7.569.983.829,1.8,1.4s1.685,1.187,2.584,1.763c1.9,1.229,3.441,2.064,4.431,4.157,1.06,2.248.962,5.057-.506,6.728s-3.891,2.022-6.6,1.278a7.256,7.256,0,0,1-2.7-1.594c-.421-.373-.7-.7-1.081-1.089s-.7-.892-1-1.166Zm-44.707-25.542a6.985,6.985,0,0,0,2.76-.218c.162-.056.59-.274.7-.288a2.29,2.29,0,0,1,0,1.813,2.234,2.234,0,0,1-1.327.877,2.107,2.107,0,0,1-1.714-.414,2.155,2.155,0,0,1-.436-1.77Zm-.7-2.809a11.245,11.245,0,0,0,2.311-.035,4.75,4.75,0,0,0,1.692-.7,2,2,0,0,1,.232,1.932c-.569,1.074-3.511,1.053-3.841.7a2.375,2.375,0,0,1-.393-1.945Zm29.769-13.849a16.572,16.572,0,0,1,11.763,3.82,12.451,12.451,0,0,1,2.991,15.513c-.133.253-.393.211-.7.295a4.265,4.265,0,0,0-.7.274,4.592,4.592,0,0,0-2.556,3.314c-.225,1.068.07.843-.59,1.328a19.562,19.562,0,0,1-11.889,3.75,20.246,20.246,0,0,1-6.643-1.2,15.808,15.808,0,0,1-4.979-2.858,13.381,13.381,0,0,1-4.438-7.311l-.239-1.721a11.892,11.892,0,0,1,0-1.875,13.834,13.834,0,0,1,5.913-9.706,17.666,17.666,0,0,1,5.225-2.6c.513-.142,1.067-.261,1.58-.373s1.131-.182,1.664-.3a30.736,30.736,0,0,1,3.553-.345Zm-24.825,1.4-.456,4.115-.183,1.882c0,.386-.084.772-.119,1.152a4.96,4.96,0,0,1-.147,1.082,4.167,4.167,0,0,1-.077,1.088c0,.478-.091.99-.133,1.454,0,.3-.112.295-.323.436a1.507,1.507,0,0,1-.527.246,1.55,1.55,0,0,1-.843.239l-.1.042H528.3a6.23,6.23,0,0,1-1.018.056c-.969-.042-1.18.057-1.362-.814a8.664,8.664,0,0,1-.59-1.482,3.329,3.329,0,0,1-.344-.822,3.991,3.991,0,0,1-.4-1.032,10.242,10.242,0,0,1-.737-1.776,10.1,10.1,0,0,1-.632-1.615c-.1-.1-.084-.105-.14-.26l-.1-.246c-.077-.2-.14-.323-.2-.52a4.361,4.361,0,0,1-.372-.977,8.207,8.207,0,0,1-.576-1.4l-.253-.66.344.07c.744.063,1.4.2,2.212.218a11.91,11.91,0,0,0,2.318-.12c.478.056,1.714-.365,2.107-.316l.119-.063h.176l.3-.077c.253-.063.421-.127.653-.169a9.026,9.026,0,0,1,1.538-.484l-.084.793Zm18.6-5.2c-.407-.056-1.145-.765-1.362-.976-.478-.478-.976-.815-.7-1.489a.955.955,0,0,1,1.524-.3.982.982,0,0,1,.288.878c-.07.379-.316.442-.47.7a6.716,6.716,0,0,0,.7,1.194Zm6.517-2.107c-.274-.225-.442-.2-.618-.541a.962.962,0,0,1,1.51-1.124,1,1,0,0,1,.147,1.256c-.056.239.063.2-.1.457a7.267,7.267,0,0,1-.948,1.32l-.323-.169Zm-4.073-1.166h0l-.365-.161a1.236,1.236,0,1,1,1.327-.119,1.053,1.053,0,0,0,.344.829,8.423,8.423,0,0,0,2.451,2.619.751.751,0,0,0,1.067-.253,19.253,19.253,0,0,0,1.236-1.874,4.224,4.224,0,0,0,.562-.984,1.242,1.242,0,0,1-.309-.765,1.145,1.145,0,0,1,.274-.793,1.236,1.236,0,0,1,2.107,1.124c-.211.822-1.053.822-1.166.92a5.894,5.894,0,0,0-.407,1.4l-.744,2.809c-.063.232-.119.457-.176.7-.1.442.056.45.1.815a29.54,29.54,0,0,0-5.618.281c-.414.07-.871.1-1.3.2s-.794.169-1.194.239-2.107.569-2.289.555c-.091-.351.091-.569-.049-.892l-1.032-1.988c-.183-.337-1.285-2.514-1.4-2.584a1.264,1.264,0,0,1-1.215-.835,1.236,1.236,0,0,1,2-1.313,1.313,1.313,0,0,1,.232,1.552c.119.141.239.231.365.4a4.109,4.109,0,0,0,.751.787c.485.478,1.685,1.629,2.381,1.32.513-.232,1.861-3.167,2.065-4Zm-27.171-5.674c0,2.107,2.423,1.693,3.462,3.006.836,1.053-.141,2.212.316,2.584.133.112.351.189.506.3.906.7.478,1.292.562,1.735s1.187.379,1.124,2.107c0,.843.112.6.407,1.187a1.271,1.271,0,0,1,0,1.3c-.246.408-1.77.808-2.282.955a17.6,17.6,0,0,1-2.633.541c-1.208.133-4.839.365-5.618-.7-.562-.758-.154-1.741.225-2.464s0-.6-.161-1.173a1.629,1.629,0,0,1,.239-1.264c.225-.372.513-.52.569-1.046s.639-.667.351-1.11c-.105-.168-.246-.231-.274-.547a1,1,0,0,1,.169-.66,2.958,2.958,0,0,1,.836-.78c.583-.372.351-.456.274-1.151a3.379,3.379,0,0,1,.112-1.4A2.107,2.107,0,0,1,525.12,6669.181Z" transform="translate(-23495.479 -11527.44)" fill="#070001" fill-rule="evenodd"/>
    <path id="路径_4682" data-name="路径 4682" d="M589.652,6738.459c.274.267.569.7,1,1.159s.66.7,1.081,1.088a7.274,7.274,0,0,0,2.7,1.6c2.711.744,5.155.365,6.6-1.278s1.566-4.48.506-6.728c-.99-2.107-2.528-2.929-4.438-4.165-.892-.576-1.763-1.166-2.577-1.763s-1.1-.857-1.8-1.4a4.771,4.771,0,0,1-1.826-3.512,25.092,25.092,0,0,1,.183-4.108c.056-.547.274-1.46,0-1.9a1.887,1.887,0,0,0-1.292-.885,3.59,3.59,0,0,0-3.153,1.039,4.5,4.5,0,0,0-1.222,3.076,13.962,13.962,0,0,0,.421,3.883,7.378,7.378,0,0,1,3.582,1.146.388.388,0,0,1-.33.7c-.148-.063-.351-.218-.513-.3a6.167,6.167,0,0,0-4.48-.589,4.925,4.925,0,0,0-1.152.428c-2.943,1.8-4.389,9.171.225,11.489a7.627,7.627,0,0,0,5.183.7,7.073,7.073,0,0,0,3.069-1.649c.154-.134.632-.7.822-.7a.365.365,0,0,1,.407.365c0,.449-1.552,1.587-2.016,1.861A3.639,3.639,0,0,0,589.652,6738.459Z" transform="translate(-23513.416 -11541.773)" fill="#fff" fill-rule="evenodd"/>
    <path id="路径_4683" data-name="路径 4683" d="M553.652,6730.607a12.471,12.471,0,0,0,4.621-.983,16.606,16.606,0,0,0,3.546-2.016,20.322,20.322,0,0,1-5.885-1.046,17.156,17.156,0,0,1-2.479-1.019c-.414-.21-.744-.386-1.131-.611-.2-.126-.878-.59-1.053-.653a4.063,4.063,0,0,0-1.468,1.728c-.091.21-.162.639-.323.745a8.592,8.592,0,0,0-3.09,1.116,8.239,8.239,0,0,0,1.4,1.054A10.725,10.725,0,0,0,553.652,6730.607Z" transform="translate(-23503.35 -11544.083)" fill="#d41652" fill-rule="evenodd"/>
    <path id="路径_4684" data-name="路径 4684" d="M568.109,6695.082c-.4.218-.5.814-.646,1.32s-.295,1.032-.442,1.545-.3,1.019-.428,1.531-.351.99-.471,1.53c-1,4.369,4.951,4.812,5.948,1.707a3.39,3.39,0,0,0-.7-3.013l-1.4-2.535c-.225-.407-.506-.885-.737-1.271S568.615,6694.794,568.109,6695.082Z" transform="translate(-23509.189 -11535.371)" fill="#de5916" fill-rule="evenodd"/>
    <path id="路径_4685" data-name="路径 4685" d="M529.859,6698.432a14.266,14.266,0,0,1-2.3-.927,9.6,9.6,0,0,1,.927-.955c.288-.295.646-.744.941-.982l1.643.617c.119.063.056,0,.105.07a5.864,5.864,0,0,1-.6,1.138c-.246.387-.534.7-.7,1.04Zm-4.719-2.388a6.175,6.175,0,0,0,.976.7c1.053.659.646.582,1.889-.6a4.49,4.49,0,0,0,.8-.9c-.562-.162-1.313-.7-1.847-.913,0,0-1.756,1.629-1.819,1.707Zm4.115-1.264a14.687,14.687,0,0,1-1.861-.92,8.335,8.335,0,0,1,.7-.814,9.708,9.708,0,0,1,.7-.843c.344.119.892.421,1.327.59a1.531,1.531,0,0,1,.464.225,12.458,12.458,0,0,1-1.32,1.763Zm-2.43-1.264a11.214,11.214,0,0,0,1.362-1.6c-.07-.078-1.714-1.082-1.784-1.1l-1.285,1.566a10.059,10.059,0,0,0,1.706,1.139Zm-2.212-1.524a8.267,8.267,0,0,1-1.4-1.187c.07-.218.464-.575.6-.836a5.36,5.36,0,0,1,1.138.105c.443.239.084.049.464.162a.887.887,0,0,1,.414.231,10.107,10.107,0,0,1-1.243,1.523Zm6.32.429a9.309,9.309,0,0,0,.9-2.17l-1.622-.436a10.247,10.247,0,0,1-1.046,1.841A8.107,8.107,0,0,0,530.934,6692.421Zm-1.545-2.887h.2c.063.162-.091.338-.176.492s-.169.309-.26.471a4.381,4.381,0,0,1-.562.85,11.312,11.312,0,0,1-1.784-1.074l.084-.246h0c.3,0,.365.154.555-.169h-.19a12.43,12.43,0,0,1-2.318.119c-.8,0-1.475-.161-2.212-.225.07.063,0,0,.1.07l.316.057c-.063.154-.295.345-.386.5l-.119-.035a8.18,8.18,0,0,0,.576,1.4v-.112c.232.33.7.555.913.836l-.386.428c-.119-.119.147.147-.049-.07h0l-.091-.077a3.819,3.819,0,0,0,.2.513l.1.246c.056.161.042.169.14.26l-.042-.246c.2-.154.471-.541.7-.625l1.664,1.109a4.2,4.2,0,0,1-.766.787l-.808.766c-.063-.246-.035-.113-.119-.169a10.181,10.181,0,0,0,.737,1.77v-.112c.14.1.309.21.492.323a2.733,2.733,0,0,1,.52.323l-.456.421c-.147.141,0,.1-.169.084a3.166,3.166,0,0,0,.344.815c0-.162,0-.043-.042-.232a8.836,8.836,0,0,0,.934-.786l2.339,1.011a12.113,12.113,0,0,1-1.826,1.833l-.815-.344c.183.877.393.772,1.362.821a6.339,6.339,0,0,0,1.018-.057h.042l.1-.049c-.19,0-.7.091-.962-.154l1.721-1.819a2.39,2.39,0,0,1,.485.141l.225.077.126.042.084.05h0c-.105.575,0,.407-.33.793-.183.232-.386.394-.541.618a1.534,1.534,0,0,0,.527-.253c.2-.133.3-.126.323-.436.042-.456.112-.976.133-1.446-.105.084-.07-.105-.084.077-.154-.092-.358-.105-.541-.2.07-.246.548-.7.7-1.109v.147a4.961,4.961,0,0,0,.148-1.082c0-.379.1-.765.119-1.151-.084.119,0-.134-.091.147l-1.468-.555a6.127,6.127,0,0,1,.667-.906c.19-.26.407-.618.632-.94a.811.811,0,0,1,.428.126v.239l.457-4.108-.1.161-1.4-.4.042-.077q-.331.072-.653.176l-.3.07h-.176Z" transform="translate(-23496.279 -11533.636)" fill="#d99b20" fill-rule="evenodd"/>
    <path id="路径_4686" data-name="路径 4686" d="M560.712,6701.233a1.406,1.406,0,0,1,.344-.463c.169-.176.246-.267.379-.428a4.209,4.209,0,0,0-.653-1.439c.456.091.843.772,1.222.807.26-.414.534-.428.063-.843a4.058,4.058,0,0,0-.857-.632,2.41,2.41,0,0,0-2.339-.035,2.974,2.974,0,0,0-1.2,1.742,5.26,5.26,0,0,0,.049,2.6c.316,1.152,1.552,3.315,3.076,2.437,1.194-.7,1.1-2.872.927-3.259C561.639,6701.535,560.943,6701.353,560.712,6701.233Z" transform="translate(-23506.666 -11536.233)" fill="#0b318f" fill-rule="evenodd"/>
    <path id="路径_4687" data-name="路径 4687" d="M572.636,6714.412c-.126,1.4-.14,3.946-2.24,3.918a2.1,2.1,0,0,1-1.826-1.249,10.863,10.863,0,0,1-.885-2.22,18.688,18.688,0,0,1-.583-2.148c-.077-.323-.19-.8-.239-1.139s.049-.2.941-.33l2.346-.288c.344-.07.843-.126,1.187-.176l.611-.07c.274-.034.492-.146.576-.042a24.826,24.826,0,0,1,.112,3.743Zm-.169-4.551c-.766.161-2.809.357-3.722.478-.59.077-1.243.2-1.8.253-.941.091-1.032.119-.85,1.081.344,1.861,1.11,4.958,2.107,6.271a2.729,2.729,0,0,0,2.893,1.1,2.872,2.872,0,0,0,1.973-2.2,20.786,20.786,0,0,0,.26-5.864C573.268,6710.212,573.394,6709.65,572.467,6709.861Z" transform="translate(-23509.193 -11539.777)" fill="#fff" fill-rule="evenodd"/>
    <path id="路径_4688" data-name="路径 4688" d="M568.39,6716.479a10.844,10.844,0,0,0,.885,2.22,2.1,2.1,0,0,0,1.826,1.25c2.107,0,2.107-2.528,2.24-3.919-.337-.133-.555-.323-1.2-.568a3.454,3.454,0,0,0-2.858.225C568.987,6715.841,568.411,6716.164,568.39,6716.479Z" transform="translate(-23509.9 -11541.396)" fill="#e79087" fill-rule="evenodd"/>
    <path id="路径_4689" data-name="路径 4689" d="M568.037,6715.2c0-.315.6-.639.892-.793a3.454,3.454,0,0,1,2.858-.225c.646.246.864.436,1.2.569a24.842,24.842,0,0,0-.112-3.743c-.084-.105-.3,0-.576.042l-.611.07c-.344.056-.843.1-1.187.175l-2.346.288c-.892.134-.99,0-.941.331s.161.814.239,1.138a18.688,18.688,0,0,0,.583,2.148Z" transform="translate(-23509.547 -11540.12)" fill="#d41652" fill-rule="evenodd"/>
    <path id="路径_4690" data-name="路径 4690" d="M578.92,6726.319a5.771,5.771,0,0,0,2.437,1.728,4.866,4.866,0,0,1,3.336-1.4c0-.2-.218-1.117-.26-1.439a13.671,13.671,0,0,1-.147-1.623c-.148.042-1.053.7-1.257.808a12.61,12.61,0,0,1-1.285.7,15.944,15.944,0,0,1-2.823,1.229Z" transform="translate(-23513.035 -11543.875)" fill="#d41652" fill-rule="evenodd"/>
    <path id="路径_4691" data-name="路径 4691" d="M576.838,6700.577l3.118-.857c.365-.1.815-.12.787-.541-.049-.632-1.138-.147-1.917.042-.7.162-1.468.442-2.107.555.1-.239,1.868-2.367,2.191-2.809s-.133-1-.569-.484-.969,1.236-1.468,1.861l-1.482,1.875c-.33.541.316.7.653.857l3.511,1.481a1.1,1.1,0,0,0,.6.162.365.365,0,0,0,.183-.562,3.951,3.951,0,0,0-1.145-.562l-1.173-.491a8.05,8.05,0,0,1-1.187-.527Z" transform="translate(-23511.957 -11535.746)" fill="#0b318f" fill-rule="evenodd"/>
    <path id="路径_4692" data-name="路径 4692" d="M553.9,6709c-2.381,0-4.038,1.51-2.556,2.247,1.285.646,3.82.253,4.607-.7.428-.52.112-.976-.372-1.222A3.759,3.759,0,0,0,553.9,6709Z" transform="translate(-23504.656 -11539.533)" fill="#f1bdc2" fill-rule="evenodd"/>
    <path id="路径_4693" data-name="路径 4693" d="M584.634,6705.406c-3.687.506-3.273,2.879.246,2.486.9-.1,2.472-.6,2.514-1.454C587.436,6705.47,585.526,6705.287,584.634,6705.406Z" transform="translate(-23513.967 -11538.455)" fill="#f1bdc2" fill-rule="evenodd"/>
    <path id="路径_4694" data-name="路径 4694" d="M531.565,6726.44c-1.6.393-2.107,3.659-.33,6.011a7.161,7.161,0,0,0,1.4,1.4c0-.6-.7-4.6-.8-5.576-.042-.309-.07-.632-.112-.948Z" transform="translate(-23498.504 -11544.727)" fill="#fff" fill-rule="evenodd"/>
    <path id="路径_4695" data-name="路径 4695" d="M528.973,6707.091a2.373,2.373,0,0,0,.393,1.945c.3.323,3.272.344,3.841-.7a1.987,1.987,0,0,0-.232-1.924,4.628,4.628,0,0,1-1.692.7A11.938,11.938,0,0,1,528.973,6707.091Z" transform="translate(-23498.145 -11538.763)" fill="#e8b347" fill-rule="evenodd"/>
    <path id="路径_4696" data-name="路径 4696" d="M529.982,6711.173a2.107,2.107,0,0,0,.435,1.763,2.062,2.062,0,0,0,1.714.422,2.235,2.235,0,0,0,1.327-.878,2.3,2.3,0,0,0,0-1.819,4.962,4.962,0,0,0-.7.288,7.561,7.561,0,0,1-2.774.224Z" transform="translate(-23498.451 -11540.028)" fill="#e8b347" fill-rule="evenodd"/>
    <path id="路径_4697" data-name="路径 4697" d="M531.94,6701.135c.176-.316.463-.653.7-1.039a5.889,5.889,0,0,0,.6-1.138c-.049-.042,0,0-.105-.07l-1.643-.618c-.295.239-.653.7-.941.983a9.667,9.667,0,0,0-.927.955A14.213,14.213,0,0,0,531.94,6701.135Z" transform="translate(-23498.359 -11536.34)" fill="#e8b347" fill-rule="evenodd"/>
    <path id="路径_4698" data-name="路径 4698" d="M526.2,6698.273a6.111,6.111,0,0,0,.976.7c1.053.66.646.583,1.889-.6a4.484,4.484,0,0,0,.8-.9c-.562-.162-1.313-.7-1.847-.913C527.991,6696.539,526.263,6698.161,526.2,6698.273Z" transform="translate(-23497.338 -11535.831)" fill="#e8b347" fill-rule="evenodd"/>
    <path id="路径_4699" data-name="路径 4699" d="M527.622,6702.708a8.253,8.253,0,0,0,.59,1.481l.815.345a12.159,12.159,0,0,0,1.826-1.833l-2.339-1.012a8.827,8.827,0,0,1-.934.787C527.636,6702.667,527.615,6702.547,527.622,6702.708Z" transform="translate(-23497.75 -11537.357)" fill="#e8b347" fill-rule="evenodd"/>
    <path id="路径_4700" data-name="路径 4700" d="M531.265,6696.058a12.361,12.361,0,0,0,1.32-1.763,1.592,1.592,0,0,0-.464-.224c-.435-.169-.983-.471-1.327-.59a8.526,8.526,0,0,0-.7.843,9.4,9.4,0,0,0-.7.814,14.715,14.715,0,0,0,1.875.919Z" transform="translate(-23498.289 -11534.913)" fill="#e8b347" fill-rule="evenodd"/>
    <path id="路径_4701" data-name="路径 4701" d="M527.877,6694.2a11.165,11.165,0,0,0,1.362-1.6c-.07-.077-1.714-1.082-1.784-1.1l-1.285,1.565a10.057,10.057,0,0,0,1.707,1.138Z" transform="translate(-23497.33 -11534.324)" fill="#e8b347" fill-rule="evenodd"/>
    <path id="路径_4702" data-name="路径 4702" d="M533.67,6692.686a9.311,9.311,0,0,0,.9-2.17l-1.622-.436a10.462,10.462,0,0,1-1.046,1.84,8.017,8.017,0,0,0,1.77.765Z" transform="translate(-23499.035 -11533.901)" fill="#e8b347" fill-rule="evenodd"/>
    <path id="路径_4703" data-name="路径 4703" d="M524.612,6695.3a10.847,10.847,0,0,0,.632,1.623c.084.056.056-.077.119.168l.808-.765a4.208,4.208,0,0,0,.766-.787l-1.664-1.11c-.232.084-.506.471-.7.625Z" transform="translate(-23496.854 -11535.196)" fill="#e8b347" fill-rule="evenodd"/>
    <path id="路径_4704" data-name="路径 4704" d="M524.87,6692.323a10.167,10.167,0,0,0,1.243-1.524.835.835,0,0,0-.414-.232c-.379-.111,0,.078-.464-.161a5.359,5.359,0,0,0-1.138-.1c-.134.26-.527.617-.6.835a8.251,8.251,0,0,0,1.369,1.188Z" transform="translate(-23496.535 -11533.967)" fill="#e8b347" fill-rule="evenodd"/>
    <path id="路径_4705" data-name="路径 4705" d="M529.049,6689.992h.19c-.19.316-.253.147-.555.169h0l-.084.246a11.167,11.167,0,0,0,1.784,1.075,4.341,4.341,0,0,0,.562-.85c.091-.161.169-.294.26-.47s.239-.33.176-.492h-.2C530.763,6689.627,529.527,6690.048,529.049,6689.992Z" transform="translate(-23498.053 -11533.778)" fill="#e8b347" fill-rule="evenodd"/>
    <path id="路径_4706" data-name="路径 4706" d="M531.662,6705.432a1.482,1.482,0,0,0,.843-.231c.154-.225.358-.386.541-.618.295-.386.225-.218.33-.793h0l-.084-.049-.133-.042-.218-.077a2.392,2.392,0,0,0-.485-.141l-1.756,1.77C530.953,6705.524,531.473,6705.425,531.662,6705.432Z" transform="translate(-23498.678 -11537.891)" fill="#e8b347" fill-rule="evenodd"/>
    <path id="路径_4707" data-name="路径 4707" d="M534.505,6697.2l.183-1.889v-.239a.807.807,0,0,0-.428-.126c-.225.323-.442.7-.632.941a5.667,5.667,0,0,0-.667.906l1.468.555C534.477,6697.092,534.393,6697.324,534.505,6697.2Z" transform="translate(-23499.352 -11535.352)" fill="#e8b347" fill-rule="evenodd"/>
    <path id="路径_4708" data-name="路径 4708" d="M571,6723.807a1.579,1.579,0,0,0,2.058.512c.218-.126.14-.112.295-.266.049-.049.105-.084.154-.141a1.749,1.749,0,0,0,.323-.562,2.53,2.53,0,0,1-1.264.59A5.092,5.092,0,0,1,571,6723.807Z" transform="translate(-23510.676 -11543.807)" fill="#dedadd" fill-rule="evenodd"/>
    <path id="路径_4709" data-name="路径 4709" d="M596.87,6728.1a5.191,5.191,0,0,0,.4.751,8.326,8.326,0,0,0,1.664,1.615A5.914,5.914,0,0,0,596.87,6728.1Z" transform="translate(-23518.379 -11545.221)" fill="#d41652" fill-rule="evenodd"/>
    <path id="路径_4710" data-name="路径 4710" d="M533.982,6688.965l-.042.077,1.4.4.1-.161.084-.8a9.825,9.825,0,0,0-1.545.485Z" transform="translate(-23499.643 -11533.425)" fill="#e8b347" fill-rule="evenodd"/>
    <path id="路径_4711" data-name="路径 4711" d="M526.58,6700.452a4.15,4.15,0,0,0,.4,1.04c.147,0,0,.056.168-.084l.456-.421a2.73,2.73,0,0,0-.52-.323c-.19-.112-.351-.224-.492-.323Z" transform="translate(-23497.451 -11536.956)" fill="#e8b347" fill-rule="evenodd"/>
    <path id="路径_4712" data-name="路径 4712" d="M536.12,6758.637h.618a7.593,7.593,0,0,0-.3-1.637C536.415,6757.52,536.183,6758.1,536.12,6758.637Z" transform="translate(-23500.291 -11553.825)" fill="#c51672" fill-rule="evenodd"/>
    <path id="路径_4713" data-name="路径 4713" d="M534.405,6702.366a4.16,4.16,0,0,0,.077-1.088v-.148a10.364,10.364,0,0,1-.7,1.109c.183.1.386.113.541.2C534.335,6702.261,534.3,6702.443,534.405,6702.366Z" transform="translate(-23499.596 -11537.191)" fill="#e8b347" fill-rule="evenodd"/>
    <path id="路径_4714" data-name="路径 4714" d="M523.474,6692.763a4.541,4.541,0,0,0,.372.983l.091.077h0c.2.218-.07-.049.049.07l.386-.428c-.239-.281-.7-.506-.913-.836Z" transform="translate(-23496.523 -11534.66)" fill="#e8b347" fill-rule="evenodd"/>
    <path id="路径_4715" data-name="路径 4715" d="M522.553,6690.543l.119.035c.091-.154.323-.344.386-.5l-.309-.056c-.105-.042-.035,0-.105-.07l-.344-.063Z" transform="translate(-23496.178 -11533.845)" fill="#e8b347" fill-rule="evenodd"/>
    <path id="路径_4716" data-name="路径 4716" d="M562.664,6676.543h0l-.365-.161a1.236,1.236,0,1,1,1.327-.119,1.052,1.052,0,0,0,.344.828,8.418,8.418,0,0,0,2.451,2.619.75.75,0,0,0,1.067-.253,19.147,19.147,0,0,0,1.236-1.874,4.213,4.213,0,0,0,.562-.983,1.244,1.244,0,0,1-.309-.766,1.143,1.143,0,0,1,.274-.793,1.236,1.236,0,0,1,2.107,1.123c-.211.822-1.053.822-1.166.92a5.9,5.9,0,0,0-.407,1.405l-.744,2.809c-.063.232-.119.457-.176.7-.1.442.056.45.1.815a29.54,29.54,0,0,0-5.618.281c-.414.069-.871.1-1.3.2s-.794.169-1.194.239-2.107.568-2.289.555c-.091-.352.091-.569-.049-.892l-1.032-1.988c-.183-.337-1.285-2.514-1.4-2.584a1.264,1.264,0,0,1-1.215-.836,1.236,1.236,0,0,1,2-1.312,1.313,1.313,0,0,1,.232,1.552c.119.141.239.231.365.4a4.117,4.117,0,0,0,.751.787c.485.478,1.686,1.629,2.381,1.32C561.112,6680.335,562.461,6677.379,562.664,6676.543Z" transform="translate(-23505.852 -11529.128)" fill="#fff" fill-rule="evenodd"/>
  </g>
</svg>
