<svg xmlns="http://www.w3.org/2000/svg" width="62.019" height="80.742" viewBox="0 0 62.019 80.742">
  <g id="组_2296" data-name="组 2296" transform="translate(23247.186 4704.403)">
    <path id="路径_4482" data-name="路径 4482" d="M301.749,6848.447c-.922-3.089-2.412-4.68-4.572-6.84-1.6-1.375-5.5-3.736-7.545-3.888-.677.871-.18.346-1.087.807-2.714,1.375-7.992,1.274-10.8.115a3.143,3.143,0,0,1-1.346-.827,18.245,18.245,0,0,0-4.132,1.619,15.552,15.552,0,0,0-4.809,3.823,13.679,13.679,0,0,0-1.073,16.991c.849,1.274,3.146,3.96,4.356,4.392a6.092,6.092,0,0,1,2.527-2.275,8.29,8.29,0,0,1,3.866-.719,11.942,11.942,0,0,1,4.082,1.331l-.115-.072c.684,0,1.382.181,2.16.224s1.5-.051,2.239-.051a9.741,9.741,0,0,1,4.831-1.439,8.314,8.314,0,0,1,3.4.72,6.651,6.651,0,0,1,2.3,2,13.65,13.65,0,0,0,2.916-2.714,15.247,15.247,0,0,0,2.2-3.556A13.912,13.912,0,0,0,301.749,6848.447Zm-29.77,9a4.969,4.969,0,0,1-4.1-.836c-1.051-1.1.086-2.159,1.757-2.526a4.646,4.646,0,0,1,3.974.842C274.83,6856.15,273.181,6857.188,271.979,6857.447Zm7.682-7.971c-.389-.252-.72-.827-1.138-1.021a6.006,6.006,0,0,1,.511,1.706,2.872,2.872,0,0,0-.943.907l.85.417.05.036.166.145c.079,1.648-.576,3.873-2.261,3.649-1.26-.173-2.217-2.03-2.333-3.563-.144-1.959.475-3.514,1.67-4.233,1.677-1.008,3.506.5,3.96,1.44a1.285,1.285,0,0,1-.533.518Zm1.03,4.839,1.44-2.88c.54-1.087.9-2.462,1.483-2.765.979-.511,1.526,1.52,1.879,2.275.238.489.49.936.72,1.439l.72,1.44C289.9,6860.327,278.465,6860.464,280.69,6854.315Zm11.563-3.729a7.8,7.8,0,0,1-.914.784c.094.115,0,.051.144.151l.914.525c.187,1.649-.576,3.809-2.16,3.729-1.354-.079-2.289-2.016-2.455-3.478-.353-3.132,1.714-5.551,4.089-4.319a3.8,3.8,0,0,1,1.526,1.44c-.6,1.123-.842,0-1.634-.512A6.67,6.67,0,0,1,292.253,6850.586Zm4.809,7.149c-3.823.72-6.48-2.491-2.16-3.384,1.44-.3,3.333.086,4.01.914,1.066,1.3-.6,2.217-1.814,2.469Z" transform="translate(-23499.857 -11531.552)" fill="#fff"/>
    <path id="路径_4483" data-name="路径 4483" d="M297.06,6865.969c-.245-.086-.338-.238-.576-.281a7.463,7.463,0,0,1-1.483,1.886,8.437,8.437,0,0,1-1.98,1.3c-4.025,1.98-11.275,1.476-13.679-2.75-.058-.094-.122-.245-.151-.3-.137-.187,0-.151-.281-.137-.108.166-.5.338-.72.511.036.525,1.21,1.771,1.541,2.081a9.138,9.138,0,0,0,2.2,1.44,13.884,13.884,0,0,0,4.2,1.225,10.081,10.081,0,0,0,3.218.05,12.03,12.03,0,0,0,4.19-1.231c1.346-.655,3.233-2.023,3.823-3.535C297.24,6866.07,297.168,6866.127,297.06,6865.969Z" transform="translate(-23503.852 -11539.383)" fill="#0b318f" fill-rule="evenodd"/>
    <path id="路径_4484" data-name="路径 4484" d="M275.44,6875.2Z" transform="translate(-23503.08 -11542.048)" fill="#fff" fill-rule="evenodd"/>
    <path id="路径_4485" data-name="路径 4485" d="M280.792,6874.368c.936-.324,1.685,1.152.763,1.519S279.748,6874.721,280.792,6874.368Zm-2.88-.569c-2.649.807-1.721,3.6.209,2.751,1.274-.548,2.462-1.44,1.066-2.549a1.081,1.081,0,0,0-1.274-.2Zm-4.32,6.265c.367,0,5.76-3.176,7.516.936a6.087,6.087,0,0,1-.324,4.479,12.4,12.4,0,0,1-2.383,3.182c1.555,1.635,4.795,4.839,7.156,5.32s5.342-2.419,6.912-3.909c.274-.267.554-.547.828-.771-.389-.568-1.584-.942-2.916-3.29-1.893-3.341-.893-7.581,3.477-7.069,1.922.223,2.88,1.238,4.73,1.512a8.251,8.251,0,0,0-.4-5.3c-1.57-3.247-5.94-3.441-8.64-2.045a8.772,8.772,0,0,0-2.614,1.973c-1.3,1.4-.309.915-2.253-.72a9.619,9.619,0,0,0-1.814-1.238c-3.881-2.03-10.591-.8-9.324,6.94Z" transform="translate(-23502.508 -11541.224)" fill="#d41652" fill-rule="evenodd"/>
    <path id="路径_4486" data-name="路径 4486" d="M312.72,6920.581c4.485-.424,11.627-2.023,14.1-5.759.907-1.361.4-1.627-.6-3.42a63.924,63.924,0,0,1-3.081-6.9l-1.253-3.419c-.194-.36,0-.072-.2-.245a25.781,25.781,0,0,1-2.412,11.894,20.788,20.788,0,0,1-2.88,4.32,25.055,25.055,0,0,1-2.714,2.678,7.442,7.442,0,0,0-.958.85Z" transform="translate(-23513.521 -11549.228)" fill="#d41652" fill-rule="evenodd"/>
    <path id="路径_4487" data-name="路径 4487" d="M263.985,6923.134a14.736,14.736,0,0,1-1.994-1.354,21.643,21.643,0,0,1-7.264-9.806,26.69,26.69,0,0,1-1.346-5.385,36.619,36.619,0,0,1-1.555,7.2,19.6,19.6,0,0,1-1.375,3.039c-.533.886-1.526,1.786-.518,2.938,1.152,1.31,4.025,2.081,6.192,2.491,1.3.245,2.513.41,3.866.576a28.28,28.28,0,0,0,4,.3Z" transform="translate(-23495.816 -11550.839)" fill="#d41652" fill-rule="evenodd"/>
    <path id="路径_4488" data-name="路径 4488" d="M287.088,6858.552l1.44-2.88c.54-1.094.9-2.462,1.476-2.765.979-.519,1.526,1.519,1.886,2.275.23.49.482.936.72,1.44l.72,1.4C296.3,6864.563,284.863,6864.7,287.088,6858.552Z" transform="translate(-23506.262 -11535.781)" fill="#de5a1c" fill-rule="evenodd"/>
    <path id="路径_4489" data-name="路径 4489" d="M302.7,6853.31c-.6,1.116-.85,0-1.642-.511a6.126,6.126,0,0,1,.454,1.677,7.012,7.012,0,0,1-.907.778c.094.122,0,.058.137.158l.914.526c.187,1.648-.576,3.809-2.124,3.722-1.346-.072-2.289-2.009-2.455-3.478-.346-3.132,1.721-5.551,4.1-4.32a3.805,3.805,0,0,1,1.526,1.447Z" transform="translate(-23509.129 -11535.421)" fill="#0b318f" fill-rule="evenodd"/>
    <path id="路径_4490" data-name="路径 4490" d="M284.3,6852.656a1.217,1.217,0,0,1-.533.511c-.382-.251-.72-.835-1.137-1.022a6.247,6.247,0,0,1,.518,1.707,2.791,2.791,0,0,0-.943.9l.842.418.058.043.158.144c.079,1.649-.569,3.874-2.253,3.643-1.267-.173-2.225-2.023-2.333-3.557-.151-1.965.475-3.513,1.67-4.233C282.029,6850.2,283.851,6851.684,284.3,6852.656Z" transform="translate(-23503.982 -11535.235)" fill="#0b318f" fill-rule="evenodd"/>
    <path id="路径_4491" data-name="路径 4491" d="M261.72,6878.475c3.65-.043,3.765,1.03,7.538,1.44-.18-2.52-.094-1.872.454-4.442l-2.635-2.2a4.037,4.037,0,0,0-2.045,1.966c-.18.5.079.72-.338.993C264.693,6876.222,261.958,6876.941,261.72,6878.475Z" transform="translate(-23499.238 -11541.507)" fill="#d41652" fill-rule="evenodd"/>
    <path id="路径_4492" data-name="路径 4492" d="M309.1,6875.222c.684,2.627.67,1.886.619,4.478l2.981-.072a10.985,10.985,0,0,1,3.456.72,5.83,5.83,0,0,0-2.361-2.83c-1.836-1.231-.612-.569-.72-1.864a3.175,3.175,0,0,0-1.282-2.16.8.8,0,0,0-.439-.273c-.2.172-.3.3-.511.482s-.36.288-.576.5C309.87,6874.581,309.5,6874.8,309.1,6875.222Z" transform="translate(-23512.508 -11541.494)" fill="#d41652" fill-rule="evenodd"/>
    <path id="路径_4493" data-name="路径 4493" d="M308.235,6864.167c-3.823.763-6.48-2.491-2.16-3.376,1.44-.3,3.333.079,4.01.907C311.115,6863,309.48,6863.923,308.235,6864.167Z" transform="translate(-23511.037 -11537.985)" fill="#f2bec5" fill-rule="evenodd"/>
    <path id="路径_4494" data-name="路径 4494" d="M273.342,6863.772c-1.44.31-3.326,0-4.089-.828-1.051-1.1.086-2.16,1.749-2.527a4.667,4.667,0,0,1,3.981.842C276.2,6862.476,274.551,6863.52,273.342,6863.772Z" transform="translate(-23501.234 -11537.877)" fill="#f2bec5" fill-rule="evenodd"/>
    <path id="路径_4495" data-name="路径 4495" d="M279,6874.352c-2.649.807-1.721,3.6.216,2.75,1.267-.547,2.455-1.44,1.058-2.549a1.081,1.081,0,0,0-1.274-.2Z" transform="translate(-23503.619 -11541.776)" fill="#dd687d" fill-rule="evenodd"/>
    <path id="路径_4496" data-name="路径 4496" d="M283.485,6875.172c-1.044.353-.173,1.879.763,1.519S284.443,6874.848,283.485,6875.172Z" transform="translate(-23505.201 -11542.027)" fill="#dd687d" fill-rule="evenodd"/>
    <path id="路径_4497" data-name="路径 4497" d="M281.128,6833.462c-.043-.511.18-.417.115-.856l-1.771-5.623c-.526-.353-.85-.122-1.267-.878a1.44,1.44,0,0,1,.187-1.541,1.393,1.393,0,0,1,2.333,1.08c0,.9-.526.461,0,1.512s1.793,3.153,3.1,3.189c.3-.31.554-.454.842-.72a10.522,10.522,0,0,0,.72-.813,4.825,4.825,0,0,0,1.073-2.059c-.266-.288-.346-.209-.554-.6a1.339,1.339,0,1,1,2.419-1.066c.274.943-.259,1.289-.626,1.664a8.851,8.851,0,0,0,2.829,3.6c.914.245,2.779-2.52,3.024-3.434a1.428,1.428,0,0,1,1.569-2.261c.835.345,1.368,2.052-.547,2.621-.418,1.512-.814,2.88-1.332,4.32a13.246,13.246,0,0,1-.72,2.16,4.8,4.8,0,0,1-1.973.828C288.1,6835.146,282.589,6835.146,281.128,6833.462Z" transform="translate(-23503.814 -11527.727)" fill="#fff" fill-rule="evenodd"/>
    <path id="路径_4498" data-name="路径 4498" d="M284.035,6827.163c-.338-.4-.814-.446-.72-1.246a1.066,1.066,0,0,1,2.1-.064c.115.677-.281.9-.59,1.224a4.965,4.965,0,0,0,1.008,1.973,1.628,1.628,0,0,1-.72.72,3.357,3.357,0,0,1-1.166-1.016C283.517,6828.322,284.021,6827.941,284.035,6827.163Z" transform="translate(-23505.283 -11527.993)" fill="#fff" fill-rule="evenodd"/>
    <path id="路径_4499" data-name="路径 4499" d="M295.129,6827.078c-.288-.295-.756-.59-.562-1.324a1.072,1.072,0,1,1,1.354,1.332,3.707,3.707,0,0,0,.425,1.605,2.157,2.157,0,0,1-1.08,1.094,2.619,2.619,0,0,1-.936-1A4,4,0,0,0,295.129,6827.078Z" transform="translate(-23508.371 -11527.987)" fill="#fff" fill-rule="evenodd"/>
    <path id="路径_4500" data-name="路径 4500" d="M297.558,6882.876c.756-.043,3.355.562,3.873,1.181,1.814,2.16,2.628,5.457,2.952,8.178.461,3.78.641,3.067.238,7.581a20.785,20.785,0,0,1-7.869,14.32,26.409,26.409,0,0,1-17.056,5.169,30.7,30.7,0,0,1-9.259-1.821,29.894,29.894,0,0,1-3.816-1.764,20.988,20.988,0,0,1-8.978-10.08,25.035,25.035,0,0,1-1.872-8.273,25.738,25.738,0,0,1,2.657-12.5,15.131,15.131,0,0,1,1.944-3.067,13.218,13.218,0,0,1,3.672.533c1.1.31,2.253.461,3.326.756a7.54,7.54,0,0,1-1.512.107c-.482,0-1.022-.266-1.332.044-.943.979,2.333,1.08,4.19.417,1.339-.475,2.7-1.39,4.392-1.217,4.37.446,3.405,9.086-6.854,10.958-7.38,1.354-7.826-2.937-8.64-1.807-.612.828,3.672,4.716,11.519,1.973a14.448,14.448,0,0,0,3.492-1.677l3.6,3.3a10.131,10.131,0,0,0,4.5,2.413c1.75.324,3.809-1.16,4.824-1.916,1.541-1.138,2.779-2.57,3.6-3.233.4.1,1.253.576,1.764.777a19.012,19.012,0,0,0,1.807.62c3,.885,7.452,1.195,9.863-.965.223-.2.842-.72.85-1.044,0-.194-.209-.864-1.051.036a5.366,5.366,0,0,1-.785.648c-4.557,3.024-15.94-.324-16.213-6.962-.072-1.793.842-3,2.52-3.125s2.988.777,4.377,1.253c1.8.612,5.04.54,4.125-.447-.418-.432-1.166.18-1.793-.115.086-.389.043-.3.547-.3Z" transform="translate(-23497.566 -11543.885)" fill="#fff" fill-rule="evenodd"/>
    <path id="路径_4501" data-name="路径 4501" d="M292.171,6872.941a9.973,9.973,0,0,1-1.051.813,6.985,6.985,0,0,0-.72.72c-.195.173-.051.086-.274.18-.338-.324-.662-.626-1.015-.921a7.906,7.906,0,0,0-.72-.547h0l-.144-.108h0l-.144-.1-.166-.108h0l-.108-.079c.684,0,1.382.187,2.124.23S291.43,6872.941,292.171,6872.941Z" transform="translate(-23506.551 -11541.373)" fill="#fff" fill-rule="evenodd"/>
    <path id="路径_4502" data-name="路径 4502" d="M281.128,6833.462c1.44,1.685,6.955,1.685,9.417,1.115a4.8,4.8,0,0,0,1.973-.827,13.243,13.243,0,0,0,.72-2.16c.518-1.439.914-2.829,1.332-4.319,1.915-.569,1.382-2.275.547-2.621a1.429,1.429,0,0,0-1.569,2.261c-.245.914-2.109,3.679-3.024,3.435a9.048,9.048,0,0,1-2.829-3.6c.367-.374.9-.72.626-1.663a1.338,1.338,0,1,0-2.419,1.065c.209.39.288.311.554.6a4.824,4.824,0,0,1-1.073,2.06,10.665,10.665,0,0,1-.72.813c-.288.295-.547.438-.842.72-1.3-.036-2.549-2.16-3.1-3.189s0-.612,0-1.512a1.393,1.393,0,0,0-2.333-1.08,1.44,1.44,0,0,0-.187,1.541c.417.756.72.525,1.267.878l1.771,5.623C281.308,6833.044,281.085,6832.951,281.128,6833.462Z" transform="translate(-23503.814 -11527.726)" fill="none"/>
    <path id="路径_4503" data-name="路径 4503" d="M288,6872.84h0a13.614,13.614,0,0,1,2.2,1.793c.223-.094.079,0,.273-.181a7.8,7.8,0,0,1,.72-.72c.3-.237.806-.575,1.051-.813l-2.657.216Z" transform="translate(-23506.598 -11541.387)" fill="none"/>
    <path id="路径_4504" data-name="路径 4504" d="M283.142,6828.434c0-.4.065-.194-.151-.461l-.41-.4.374.777C283.07,6828.484,282.782,6828.535,283.142,6828.434Z" transform="translate(-23505.08 -11528.71)" fill="none"/>
    <path id="路径_4505" data-name="路径 4505" d="M284.024,6827.174c0,.77-.518,1.152-.13,1.62a3.366,3.366,0,0,0,1.166,1.015,1.623,1.623,0,0,0,.72-.72,4.957,4.957,0,0,1-1.008-1.973c.31-.324.72-.547.59-1.224a1.065,1.065,0,0,0-2.1.065C283.211,6826.735,283.686,6826.778,284.024,6827.174Z" transform="translate(-23505.271 -11528.004)" fill="none"/>
    <path id="路径_4506" data-name="路径 4506" d="M311.353,6873.2c-.2.173-.3.3-.511.482s-.36.281-.576.5c-.4.4-.763.619-1.166,1,.684,2.628.67,1.887.619,4.479l2.981-.072a10.785,10.785,0,0,1,3.456.72,5.825,5.825,0,0,0-2.361-2.83c-1.836-1.231-.612-.569-.72-1.865a3.189,3.189,0,0,0-1.282-2.16.8.8,0,0,0-.439-.252Z" transform="translate(-23512.508 -11541.487)" fill="none"/>
    <path id="路径_4507" data-name="路径 4507" d="M295.266,6829.785a2.157,2.157,0,0,0,1.08-1.095,3.706,3.706,0,0,1-.425-1.605,1.072,1.072,0,1,0-1.353-1.332c-.194.72.274,1.03.562,1.325a4,4,0,0,1-.8,1.707,2.623,2.623,0,0,0,.936,1Z" transform="translate(-23508.371 -11527.987)" fill="none"/>
    <path id="路径_4508" data-name="路径 4508" d="M297.584,6828.577l.086.108a1.426,1.426,0,0,0,.18-.208l.13-.115h.05l.245-.3-.216-.569c-.115.079-.094.043-.18.151C297.469,6828.095,297.354,6828.2,297.584,6828.577Z" transform="translate(-23509.25 -11528.688)" fill="none"/>
    <path id="路径_4509" data-name="路径 4509" d="M304.615,6899.835c.4-4.515.223-3.8-.238-7.581-.324-2.722-1.138-6.026-2.952-8.179-.518-.619-3.117-1.224-3.873-1.181H295.14c-.5,0-.461-.094-.547.295.626.3,1.375-.316,1.793.115.95.986-2.325,1.059-4.125.446-1.389-.475-2.657-1.39-4.377-1.252s-2.592,1.331-2.52,3.124c.274,6.639,11.656,9.986,16.213,6.962a5.355,5.355,0,0,0,.785-.647c.842-.9,1.058-.23,1.051-.036,0,.339-.626.842-.85,1.044-2.412,2.16-6.868,1.851-9.863.965a19.011,19.011,0,0,1-1.807-.619c-.511-.2-1.361-.677-1.764-.777-.85.662-2.088,2.095-3.6,3.232-1.015.756-3.074,2.239-4.824,1.915a10.139,10.139,0,0,1-4.5-2.411l-3.6-3.3a14.486,14.486,0,0,1-3.492,1.678c-7.84,2.742-12.124-1.146-11.519-1.974.835-1.13,1.282,3.161,8.64,1.808,10.259-1.872,11.224-10.512,6.854-10.958-1.692-.173-3.053.72-4.392,1.217-1.857.662-5.133.562-4.19-.418.31-.31.85-.064,1.332-.043a7.47,7.47,0,0,0,1.512-.109c-1.073-.294-2.225-.445-3.326-.755a13.83,13.83,0,0,0-3.672-.533,15.121,15.121,0,0,0-1.944,3.067,25.74,25.74,0,0,0-2.657,12.5,25.028,25.028,0,0,0,1.872,8.272,20.988,20.988,0,0,0,8.978,10.08,30.1,30.1,0,0,0,3.816,1.764,30.674,30.674,0,0,0,9.259,1.821,26.411,26.411,0,0,0,17.056-5.169,20.787,20.787,0,0,0,7.884-14.363Z" transform="translate(-23497.561 -11543.903)" fill="none"/>
    <path id="路径_4510" data-name="路径 4510" d="M269.258,6879.905c-.18-2.52-.094-1.872.454-4.442l-2.635-2.2a4.038,4.038,0,0,0-2.045,1.965c-.18.5.079.72-.338,1,0,0-2.736.72-2.973,2.247C265.37,6878.429,265.521,6879.5,269.258,6879.905Z" transform="translate(-23499.238 -11541.505)" fill="none"/>
    <path id="路径_4511" data-name="路径 4511" d="M257.073,6916.5a21.057,21.057,0,0,1-2.3-4.528,26.693,26.693,0,0,1-1.346-5.385,36.621,36.621,0,0,1-1.555,7.2,19.6,19.6,0,0,1-1.375,3.039c-.533.886-1.526,1.786-.518,2.938,1.152,1.31,4.025,2.081,6.192,2.491,1.3.245,2.513.41,3.866.576a28.3,28.3,0,0,0,4,.331,14.736,14.736,0,0,1-1.994-1.354,21.169,21.169,0,0,1-4.967-5.306Z" transform="translate(-23495.83 -11550.839)" fill="none"/>
    <path id="路径_4512" data-name="路径 4512" d="M278.369,6888.613c1.555,1.634,4.795,4.838,7.156,5.32s5.342-2.419,6.912-3.909c.274-.267.554-.547.835-.771-.4-.569-1.591-.943-2.923-3.29-1.893-3.348-.893-7.581,3.477-7.07,1.922.223,2.88,1.238,4.73,1.512a8.249,8.249,0,0,0-.4-5.3c-1.569-3.247-5.94-3.441-8.639-2.045a8.791,8.791,0,0,0-2.613,1.973c-1.3,1.4-.31.914-2.254-.72a10.029,10.029,0,0,0-1.814-1.238c-3.808-2.059-10.526-.828-9.251,6.912.367,0,5.76-3.175,7.516.936a6.085,6.085,0,0,1-.324,4.478A11.4,11.4,0,0,1,278.369,6888.613Z" transform="translate(-23502.518 -11541.205)" fill="none"/>
    <path id="路径_4513" data-name="路径 4513" d="M323.127,6904.495l-1.253-3.42c-.194-.36,0-.072-.2-.245a25.78,25.78,0,0,1-2.412,11.894,20.788,20.788,0,0,1-2.88,4.32,25.118,25.118,0,0,1-2.714,2.679,7.488,7.488,0,0,0-.986.828c4.485-.425,11.627-2.023,14.1-5.76.907-1.361.4-1.627-.6-3.419a64.044,64.044,0,0,1-3.053-6.876Z" transform="translate(-23513.51 -11549.226)" fill="none"/>
    <path id="路径_4514" data-name="路径 4514" d="M310,6890.852l-.425-.655a53.726,53.726,0,0,1-2.642-5.443c-.446-1.116-.85-2.16-1.3-3.29a34.971,34.971,0,0,1-1.174-3.319,35.752,35.752,0,0,1-1.31-4.355c-.072-.36-.144-.547-.238-.921a13.886,13.886,0,0,0-2.5-5.335c-.238-.252-.079-.453-.151-.921a5.042,5.042,0,0,0-.238-.856,10.274,10.274,0,0,0-3.2-3.456c.281-2.045-1.015-2.88-1.893-3.788l.122-.144a11.567,11.567,0,0,0,1.44-1.829c.2-.346.374-.655.6-1.022a14.807,14.807,0,0,0,.943-12.2,17.145,17.145,0,0,0-5.68-7.352l-1.375-.957a29.723,29.723,0,0,0-4.32-2,12.384,12.384,0,0,1-1.267-.354c0-.288,1.375-4.449,1.591-5.119l.418-.331c2.88-2.513-1.973-5.371-3.089-2.275-.432-.259-.482-1.065-1.613-1.1a1.691,1.691,0,0,0-1.656,1.044c-.338,1.361.144,1.231.454,2.038a3.057,3.057,0,0,1-.49.885,4.316,4.316,0,0,1-.857-1.195,2.16,2.16,0,0,0-.338-3.19,1.986,1.986,0,0,0-2.326,0,2.248,2.248,0,0,0-.36,3.327c-.122.439-.526.72-.634,1.166l-.72-.907-.079-.173a1.715,1.715,0,1,0-2.16-2.665c-.446.31-.18.317-.612.562l-.086-.3c-1.893-3.247-5.8.454-2.75,2.613.144.1.173.05.274.173s1.541,4.73,1.692,5.184l-.432.475c-1.051-.043-5.191,2.088-6.1,2.772a18.087,18.087,0,0,0-4.615,4.824,12.434,12.434,0,0,0-1.764,3.809,14.4,14.4,0,0,0-.338,6.688,16.023,16.023,0,0,0,1.44,4.14,10.679,10.679,0,0,0,.72,1.2,10.842,10.842,0,0,0,1.742,2.232s-.72.439-.864.54a5.762,5.762,0,0,0-1.3,1.577c-.439.835-.079.555-.979.9a5.135,5.135,0,0,0-2.585,2.362,5.486,5.486,0,0,0-.266.82.85.85,0,0,0,.209.828l-.237.454-.043.086a8.2,8.2,0,0,1-.432.72c-.072.108-.137.223-.2.331l-.094.173c-.086.151-.166.3-.245.453s-.216.439-.331.655l-.05.116-.058.108c-.425.885-.821,1.8-1.166,2.735a20.956,20.956,0,0,0-1.022,3.758c-.072.461-.115.893-.187,1.44l-.864,7.048a28.76,28.76,0,0,1-1.44,6.609c-.763,2.456-3.413,5.421-1.685,6.588,3.355,2.952,8.208,3.376,12.491,3.686l4.046.36a9.092,9.092,0,0,1,1.533.626,29.513,29.513,0,0,0,5.04,1.548,24.442,24.442,0,0,0,5.86.72h1.85a21,21,0,0,0,6.076-.785c.6-.151,1.123-.295,1.678-.482l1.627-.525a29.529,29.529,0,0,0,3-1.44,4.068,4.068,0,0,1,1.49-.662,16.829,16.829,0,0,1,1.908-.108l5.407-1.116a18.848,18.848,0,0,0,3.233-1.079c.482-.231,1.145-.569,1.865-.987h0l.857-.519C308.969,6894.646,311.136,6892.688,310,6890.852Zm-13.938-29.266c.108,1.3-1.116.641.72,1.865a6.84,6.84,0,0,1,2.16,2.318,2.166,2.166,0,0,1,.18.512h0c-.266-.065-.533-.151-.814-.245h-.1a6.269,6.269,0,0,0-2.541-.468l-2.981.072h0c.05-2.592.065-1.85-.619-4.479a.7.7,0,0,1,.072-.072l.223-.187.216-.18a7.427,7.427,0,0,0,.655-.562l.216-.2a.268.268,0,0,0,.072-.057l.115-.094.058-.043.115-.1c.209-.18.31-.31.511-.482a.8.8,0,0,1,.439.274,3.19,3.19,0,0,1,1.289,2.13ZM284.3,6826.229l.216.569-.245.3h-.05l-.13.122c-.043,0-.065.094-.18.2l-.086-.108c-.23-.4-.115-.5.3-.972.072-.072.05-.036.166-.115Zm-2.052.3c-.288-.3-.756-.59-.562-1.325a1.072,1.072,0,1,1,1.354,1.332,3.707,3.707,0,0,0,.425,1.605,2.158,2.158,0,0,1-1.08,1.094,2.62,2.62,0,0,1-.936-1,4,4,0,0,0,.785-1.706Zm-8.733-1.159a1.058,1.058,0,0,1,2.088-.064c.115.677-.281.9-.583,1.224a4.861,4.861,0,0,0,1,1.973,1.628,1.628,0,0,1-.72.72,3.359,3.359,0,0,1-1.166-1.016c-.389-.468.115-.85.13-1.62-.374-.375-.85-.418-.763-1.217Zm-.115,1.332c.216.267.158.065.144.461-.353.1-.065.05-.18-.086l-.374-.778Zm-2.253,0c-.526-.353-.85-.122-1.267-.878a1.44,1.44,0,0,1,.187-1.541,1.393,1.393,0,0,1,2.333,1.08c0,.9-.526.461,0,1.512s1.793,3.153,3.1,3.189c.3-.31.554-.454.842-.72a10.48,10.48,0,0,0,.72-.813,4.824,4.824,0,0,0,1.073-2.059c-.266-.288-.346-.209-.554-.6a1.339,1.339,0,1,1,2.419-1.066c.274.943-.259,1.289-.626,1.664a8.851,8.851,0,0,0,2.829,3.6c.914.245,2.779-2.52,3.024-3.434a1.43,1.43,0,0,1,1.577-2.261c.828.345,1.361,2.052-.554,2.621-.418,1.512-.814,2.88-1.332,4.32a13.231,13.231,0,0,1-.72,2.16,4.837,4.837,0,0,1-1.973.828c-2.462.569-7.919.569-9.417-1.115-.043-.511.18-.418.115-.857Zm-9.136,29.424a13.722,13.722,0,0,1,1.073-16.991,15.537,15.537,0,0,1,4.809-3.823,17.141,17.141,0,0,1,4.14-1.62,3.119,3.119,0,0,0,1.346.828c2.786,1.152,8.056,1.26,10.8-.115.914-.461.41.064,1.094-.813,2.045.159,5.94,2.52,7.545,3.888,2.16,2.16,3.65,3.758,4.572,6.847a13.911,13.911,0,0,1-.612,9.684,15.048,15.048,0,0,1-2.2,3.549,14.449,14.449,0,0,1-2.923,2.721,6.4,6.4,0,0,0-2.289-2,8.234,8.234,0,0,0-3.405-.72,9.64,9.64,0,0,0-4.831,1.44,9.973,9.973,0,0,1-1.051.813,6.969,6.969,0,0,0-.72.72c-.194.173-.05.086-.274.18-.338-.324-.662-.626-1.015-.921-.216-.18-.446-.36-.72-.547h0l-.144-.108h0l-.144-.1-.166-.108h0a11.665,11.665,0,0,0-4.075-1.332,8.321,8.321,0,0,0-3.873.72,5.978,5.978,0,0,0-2.52,2.275C265.159,6860.1,262.863,6857.41,262.013,6856.128ZM287,6865.171h-.209l-.36-.036a4.4,4.4,0,0,0-2.052.331l-.086.043a2.889,2.889,0,0,0-.6.389l-.13.108h0c-.043.043-.079.086-.122.122a3.99,3.99,0,0,0-.281.331.668.668,0,0,0-.079.115l-.043.058c0,.058-.079.123-.115.195a.813.813,0,0,1-.058.1l-.065.13h0c-.036.086-.072.166-.1.245s-.065.187-.094.281l-.043.151-.065.273a5.464,5.464,0,0,0,0,1.965h0a2.442,2.442,0,0,0,.137.626h0l.065.209c.05.173.115.346.18.519l.086.2a6.561,6.561,0,0,0,.353.72,8.478,8.478,0,0,0,2.088,2.548l.245.2.223.173.122.108h0a1.381,1.381,0,0,1,.245.259h0l-.2.173c-.209.187-.418.4-.626.6-1.569,1.49-4.557,4.392-6.912,3.91-1.994-.4-4.615-2.75-6.314-4.45-.317-.316-.6-.612-.842-.871h0l.065-.079a.232.232,0,0,1,.043-.043l.072-.079h0a9.636,9.636,0,0,0,2.16-2.88,6.088,6.088,0,0,0,.324-4.479,3.715,3.715,0,0,0-.72-1.109l-.043-.05-.094-.093-.094-.086-.1-.079a2.024,2.024,0,0,0-.2-.144l-.1-.065-.108-.064a5.242,5.242,0,0,0-4.118,0h-.086l-.382.137-.13.043h-.094l-.137.05-.374.159-.166.072-.187.079-.086.036h-.144a.575.575,0,0,1-.137.036h0c-.036-.245-.072-.482-.094-.72a7.964,7.964,0,0,1,.4-3.651,4.637,4.637,0,0,1,.324-.685c.046-.086.1-.17.151-.251a4.309,4.309,0,0,1,.418-.568l.094-.109.187-.2a5.409,5.409,0,0,1,2.455-1.354l.259-.065a7.662,7.662,0,0,1,5.083.72l.338.187.122.079.065.036.173.108h0l.108.072c.173.108.324.216.482.331l.209.166h0l.209.166.115.094a7.272,7.272,0,0,1,1.346,1.439.122.122,0,0,0,.187,0l.05-.036c.115-.115.3-.36.662-.72.094-.108.187-.2.288-.3l.144-.145a9.319,9.319,0,0,1,.921-.763l.159-.115.086-.058c.2-.13.4-.259.626-.381l.389-.209a7.784,7.784,0,0,1,5.349-.59,3.687,3.687,0,0,1,.367.108l.36.129c.115.05.238.1.346.159l.173.086.166.093.166.1a4.621,4.621,0,0,1,.677.519c.05.043.093.094.137.137a4.685,4.685,0,0,1,.929,1.3,8.251,8.251,0,0,1,.4,5.3,21.819,21.819,0,0,1-3.6-1.267,5.791,5.791,0,0,0-.922-.216Zm-28.525-1.721a.458.458,0,0,1,.058-.058,3.4,3.4,0,0,1,.677-.511l.13-.08.137-.072a7.294,7.294,0,0,1,1.44-.583c.418-.273.158-.5.338-1a2.01,2.01,0,0,1,.252-.468,1.737,1.737,0,0,1,.1-.144l.058-.072a4.084,4.084,0,0,1,.446-.5l.151-.137.151-.13.238-.173h0a2.458,2.458,0,0,1,.648-.346l2.635,2.2c-.036.166-.065.324-.1.461s-.058.273-.086.4a.679.679,0,0,0,0,.115l-.043.158h0v.1h0l-.043.18a.467.467,0,0,1,0,.05v.123a.306.306,0,0,0,0,.079h0a4.746,4.746,0,0,0-.144,1.627h0v.187h0v.1c0,.237.036.519.058.856a4.616,4.616,0,0,1-.806-.108l-.288-.043-.54-.1c-.374-.079-.72-.166-1.015-.259l-.482-.151-.274-.086-.18-.058a12.994,12.994,0,0,0-1.267-.375l-.2-.043a10.956,10.956,0,0,0-2.484-.208,1.769,1.769,0,0,1,.439-.921Zm1.181,35.94c-1.354-.166-2.57-.331-3.866-.576-2.16-.41-5.04-1.181-6.192-2.491-1.008-1.152,0-2.052.518-2.937a19.59,19.59,0,0,0,1.375-3.038,36.627,36.627,0,0,0,1.555-7.2,26.683,26.683,0,0,0,1.346,5.385,21.5,21.5,0,0,0,7.264,9.806,14.79,14.79,0,0,0,1.994,1.353,28.346,28.346,0,0,1-4-.288Zm17.956,3.456a30.721,30.721,0,0,1-9.259-1.822,29.969,29.969,0,0,1-3.816-1.764,20.986,20.986,0,0,1-8.978-10.079,25.034,25.034,0,0,1-1.872-8.272,25.717,25.717,0,0,1,2.657-12.5,15.114,15.114,0,0,1,1.944-3.066,13.218,13.218,0,0,1,3.672.533c1.1.31,2.253.461,3.326.756a7.5,7.5,0,0,1-1.512.108c-.482,0-1.022-.267-1.332.043-.943.979,2.333,1.08,4.2.418,1.332-.476,2.693-1.39,4.385-1.217,4.37.446,3.405,9.086-6.854,10.958-7.38,1.354-7.826-2.937-8.639-1.807-.612.828,3.672,4.716,11.519,1.973a14.466,14.466,0,0,0,3.492-1.677l3.6,3.3a10.189,10.189,0,0,0,4.5,2.412c1.75.324,3.809-1.159,4.824-1.916,1.541-1.137,2.779-2.57,3.6-3.232.4.1,1.253.576,1.764.777a19.029,19.029,0,0,0,1.807.619c2.995.886,7.451,1.2,9.863-.965.223-.2.842-.72.85-1.044,0-.194-.209-.864-1.051.036a5.083,5.083,0,0,1-.785.648c-4.557,3.024-15.94-.324-16.213-6.962-.072-1.792.842-3,2.52-3.125s2.988.778,4.377,1.253c1.8.612,5.04.54,4.125-.446-.418-.432-1.166.18-1.793-.115.086-.389.043-.3.547-.3h2.412c.756-.043,3.355.562,3.881,1.181,1.807,2.16,2.621,5.458,2.945,8.179.461,3.78.641,3.067.238,7.581a20.786,20.786,0,0,1-7.869,14.32,26.41,26.41,0,0,1-17.078,5.227Zm31.174-9.835c-2.477,3.744-9.619,5.342-14.1,5.76l.094-.108a10.369,10.369,0,0,1,.893-.72,25.157,25.157,0,0,0,2.714-2.678,19.9,19.9,0,0,0,2.059-2.88l.079-.137c.1-.18.209-.367.317-.576a2.267,2.267,0,0,0,.123-.23l.137-.252c.043-.086.086-.173.137-.259l.151-.3c.2-.41.4-.835.569-1.267s.331-.878.475-1.332c.079-.223.144-.453.209-.684.036-.115.065-.237.1-.353.058-.238.122-.468.173-.72s.108-.482.158-.72c.122-.6.23-1.231.31-1.865a3.564,3.564,0,0,1,.05-.389,7.165,7.165,0,0,1,.079-.771c.029-.259.043-.525.058-.785.065-.885.086-1.792.079-2.707.079.072.094.064.094.058h0v.036h0v.086h0l1.253,3.419c.677,1.75,1.649,4.1,2.577,5.933.137.273.274.533.4.785l.1.18c.137.252.274.468.389.669h0l.094.166h0a1.766,1.766,0,0,1,.094.151l.043.072.086.144c.086.159.166.3.223.439a.821.821,0,0,1,.05.115,1.447,1.447,0,0,1,.05.166.6.6,0,0,1,0,.108,1.85,1.85,0,0,1-.317,1.461Z" transform="translate(-23495.479 -11527.44)" fill="#070001"/>
  </g>
</svg>
