<svg xmlns="http://www.w3.org/2000/svg" xmlns:xlink="http://www.w3.org/1999/xlink" width="63.685" height="86.583" viewBox="0 0 63.685 86.583">
  <defs>
    <clipPath id="clip-path">
      <path id="路径_12118" data-name="路径 12118" d="M695.206,257.687s-1.63.425-.769,2.435.209,3.744,1.185,4.818,3.845,3.358,8.031-.95S695.25,257.733,695.206,257.687Z" transform="translate(-694.186 -257.687)" fill="#c60041" clip-rule="evenodd"/>
    </clipPath>
    <clipPath id="clip-path-2">
      <path id="路径_12121" data-name="路径 12121" d="M724.234,268.636s1.2-3.155-3.819-3.155-8.056,1.733-11.289.75,2.342,4.734,7.192,4.527,7.637-.62,8.641.285,4.53,4.538,4.629,15.4C729.588,286.462,729.512,270.748,724.234,268.636Z" transform="translate(-708.166 -265.481)" fill="none" clip-rule="evenodd"/>
    </clipPath>
    <clipPath id="clip-path-3">
      <path id="路径_12123" data-name="路径 12123" d="M727.057,268.648a17.428,17.428,0,0,0-4.736.019,24.712,24.712,0,0,0-3.694.733s2.759.046,4.7.033a26.782,26.782,0,0,1,4.8.636Z" transform="translate(-718.627 -268.511)" fill="none"/>
    </clipPath>
    <clipPath id="clip-path-4">
      <path id="路径_12127" data-name="路径 12127" d="M728.133,268.365a19.085,19.085,0,0,0-5.177-.466,27.078,27.078,0,0,0-4.112.421s3.01.334,5.127.519a29.311,29.311,0,0,1,5.177,1.187Z" transform="translate(-718.844 -267.896)" fill="none"/>
    </clipPath>
    <clipPath id="clip-path-5">
      <path id="路径_12130" data-name="路径 12130" d="M725.249,268.281a5.176,5.176,0,0,0-5.421-5.027c-5.275,0-7.065,3.418-10.465,2.306s2.468,5.354,7.568,5.121,7.372-.629,8.427.4,2.169,3.327,2.757,10.834c0,.028.5,1.319.5,1.29C728.826,280.181,730.711,270.541,725.249,268.281Z" transform="translate(-708.354 -263.254)" fill="none" clip-rule="evenodd"/>
    </clipPath>
  </defs>
  <g id="组_2183" data-name="组 2183" transform="translate(-668.393 -227.022)">
    <g id="组_2166" data-name="组 2166" transform="translate(669.426 275.386)">
      <g id="组_2163" data-name="组 2163" transform="translate(3.802 19.128)">
        <g id="路径_12060" data-name="路径 12060" transform="translate(-674.016 -305.731)" fill="#50585d" stroke-linecap="round" stroke-linejoin="round">
          <path d="M 678.683349609375 314.9097290039062 C 678.2000732421875 314.9097290039062 677.7183837890625 314.829833984375 677.2516479492188 314.6722717285156 C 675.1069946289062 313.9482116699219 673.8963012695312 311.7755432128906 674.5528564453125 309.8290100097656 C 674.6595458984375 309.5127563476562 674.816650390625 309.0477905273438 674.9675903320312 308.6011657714844 L 675.28271484375 307.6681823730469 C 675.7779541015625 306.2002868652344 677.2448120117188 305.2139892578125 678.9327392578125 305.2139892578125 C 679.415771484375 305.2139892578125 679.8972778320312 305.2937316894531 680.3638916015625 305.4510498046875 C 682.509033203125 306.1752624511719 683.7196655273438 308.3479614257812 683.0628662109375 310.2944641113281 L 682.3338623046875 312.4551086425781 C 681.8377685546875 313.9233703613281 680.3707885742188 314.9097290039062 678.683349609375 314.9097290039062 Z" stroke="none"/>
          <path d="M 678.9327392578125 305.7305908203125 C 677.5003051757812 305.7304992675781 676.2112426757812 306.5321350097656 675.772216796875 307.8334045410156 C 675.5821533203125 308.396484375 675.2322998046875 309.4310302734375 675.0423583984375 309.9941101074219 C 674.475830078125 311.6738586425781 675.5386962890625 313.5487060546875 677.4168701171875 314.1828002929688 C 677.8395385742188 314.3255004882812 678.2675170898438 314.3931274414062 678.683349609375 314.3931274414062 C 680.1155395507812 314.3931274414062 681.40478515625 313.591064453125 681.8443603515625 312.2899475097656 L 682.5733642578125 310.1292724609375 C 683.139892578125 308.4504089355469 682.0770263671875 306.5746765136719 680.1988525390625 305.9405822753906 C 679.7763671875 305.7981567382812 679.348388671875 305.7306213378906 678.9327392578125 305.7305908203125 M 678.9325561523438 304.6973876953125 L 678.9325561523438 305.7305908203125 L 678.9326171875 304.6973876953125 C 678.9326171875 304.6973876953125 678.9328002929688 304.6973876953125 678.9328002929688 304.6973876953125 C 679.4721069335938 304.6974182128906 680.0090942382812 304.7862854003906 680.5289306640625 304.9614868164062 C 682.9441528320312 305.7769165039062 684.3002319335938 308.2432861328125 683.5523681640625 310.4596252441406 L 682.8233642578125 312.6202392578125 C 682.2562255859375 314.298828125 680.592529296875 315.4263305664062 678.683349609375 315.4263305664062 C 678.143798828125 315.4263305664062 677.6065063476562 315.3373107910156 677.0863647460938 315.1617431640625 C 674.6719360351562 314.3465881347656 673.3157958984375 311.8802795410156 674.0632934570312 309.6639099121094 C 674.1700439453125 309.3475646972656 674.3272094726562 308.8825073242188 674.4781494140625 308.4357604980469 L 674.7932739257812 307.5029602050781 C 675.359375 305.8249206542969 677.0228881835938 304.6973876953125 678.9325561523438 304.6973876953125 Z" stroke="none" fill="#1a1311"/>
        </g>
        <ellipse id="椭圆_623" data-name="椭圆 623" cx="3.209" cy="3.589" rx="3.209" ry="3.589" transform="matrix(0.32, -0.947, 0.947, 0.32, 0, 7.304)" fill="#96a7b1"/>
        <path id="路径_12061" data-name="路径 12061" d="M679.923,308.466a3.891,3.891,0,0,0-1.89-.155,3.942,3.942,0,0,1,1.388.208,3.416,3.416,0,0,1,2.375,4.189,3.157,3.157,0,0,1-2.537,2.048,3.23,3.23,0,0,0,3.04-2.1A3.416,3.416,0,0,0,679.923,308.466Z" transform="translate(-674.47 -306.095)" fill="#646f75"/>
        <path id="路径_12062" data-name="路径 12062" d="M677.807,314.508a3.416,3.416,0,0,1-2.375-4.189,3.164,3.164,0,0,1,2.589-2.057,3.222,3.222,0,0,0-2.979,2.1,3.416,3.416,0,0,0,2.375,4.189,3.9,3.9,0,0,0,1.837.164A3.943,3.943,0,0,1,677.807,314.508Z" transform="translate(-674.016 -306.096)" fill="#fff"/>
        <g id="路径_12063" data-name="路径 12063" transform="translate(-674.346 -306.524)" fill="#50585d" stroke-linecap="round" stroke-linejoin="round">
          <path d="M 678.3755493164062 314.0889282226562 C 678.37548828125 314.0889282226562 678.37548828125 314.0889282226562 678.3754272460938 314.0889282226562 C 678.2124633789062 314.0889282226562 678.0501098632812 314.06201171875 677.8929443359375 314.0089111328125 C 677.1668090820312 313.7633972167969 676.7582397460938 313.0235290527344 676.9820556640625 312.359619140625 L 677.0777587890625 312.0757141113281 L 677.1678466796875 311.8083190917969 C 677.3370361328125 311.3063659667969 677.8360595703125 310.9689636230469 678.4095458984375 310.9689636230469 C 678.5726318359375 310.9689636230469 678.735107421875 310.9959106445312 678.8925170898438 311.049072265625 C 679.2614135742188 311.1732177734375 679.5677490234375 311.4355163574219 679.7328491210938 311.7685241699219 C 679.8802490234375 312.06591796875 679.9052734375 312.3959045410156 679.8033447265625 312.6976623535156 L 679.6761474609375 313.0757446289062 L 679.6177978515625 313.2492980957031 C 679.4481811523438 313.7516174316406 678.948974609375 314.0889282226562 678.3755493164062 314.0889282226562 Z" stroke="none"/>
          <path d="M 678.4095458984375 311.2272644042969 C 677.9576416015625 311.2272644042969 677.5510864257812 311.4800720214844 677.4125366210938 311.8910522460938 C 677.3526611328125 312.0681762695312 677.2867431640625 312.2649841308594 677.226806640625 312.442138671875 C 677.0479736328125 312.97265625 677.3834228515625 313.56396484375 677.9755859375 313.7641906738281 C 678.1090087890625 313.8092651367188 678.2442016601562 313.8306274414062 678.37548828125 313.8306274414062 C 678.8275756835938 313.8306274414062 679.234375 313.5774230957031 679.3729858398438 313.1669311523438 C 679.432861328125 312.9889221191406 679.4987182617188 312.7929992675781 679.5586547851562 312.614990234375 C 679.737548828125 312.0853271484375 679.4020385742188 311.4931335449219 678.8098754882812 311.2937927246094 C 678.67626953125 311.2486877441406 678.5409545898438 311.2272644042969 678.4095458984375 311.2272644042969 M 678.4095458984375 310.7106628417969 C 678.4095458984375 310.7106628417969 678.4095458984375 310.7106628417969 678.4095458984375 310.7106628417969 C 678.600830078125 310.7106628417969 678.7911376953125 310.7421875 678.9751586914062 310.8043212890625 C 679.4082641601562 310.9501342773438 679.7689819335938 311.2598266601562 679.9642333984375 311.65380859375 C 680.142333984375 312.0130615234375 680.172119140625 312.4131469726562 680.048095703125 312.7803039550781 L 679.9210205078125 313.1580810546875 L 679.8626098632812 313.3316345214844 C 679.6574096679688 313.9393310546875 679.059814453125 314.3472290039062 678.37548828125 314.3472290039062 C 678.184326171875 314.3472290039062 677.994140625 314.3157348632812 677.810302734375 314.2536315917969 C 676.9492797851562 313.9625244140625 676.468017578125 313.0758666992188 676.7372436523438 312.277099609375 L 676.8328857421875 311.9933471679688 L 676.9231567382812 311.7256164550781 C 677.127685546875 311.1187133789062 677.72509765625 310.7106628417969 678.4095458984375 310.7106628417969 Z" stroke="none" fill="#1a1311"/>
        </g>
        <path id="路径_12064" data-name="路径 12064" d="M678.623,311.938a1.019,1.019,0,1,1-1.4.6A1.078,1.078,0,0,1,678.623,311.938Z" transform="translate(-674.346 -306.617)" fill="#96a7b1"/>
        <path id="路径_12065" data-name="路径 12065" d="M678.691,311.938a1.169,1.169,0,0,0-1.045.133,1.2,1.2,0,0,1,.832-.017,1.078,1.078,0,0,1,.749,1.322.929.929,0,0,1-.352.465.963.963,0,0,0,.566-.58A1.078,1.078,0,0,0,678.691,311.938Z" transform="translate(-674.414 -306.617)" fill="#646f75"/>
        <path id="路径_12066" data-name="路径 12066" d="M678.123,313.795a1.078,1.078,0,0,1-.749-1.321.935.935,0,0,1,.4-.5.958.958,0,0,0-.547.573,1.078,1.078,0,0,0,.749,1.322,1.178,1.178,0,0,0,1-.1A1.2,1.2,0,0,1,678.123,313.795Z" transform="translate(-674.346 -306.632)" fill="#fff"/>
      </g>
      <g id="组_2164" data-name="组 2164" transform="translate(31.148 28.497)">
        <g id="路径_12067" data-name="路径 12067" transform="translate(-705.911 -316.679)" fill="#50585d" stroke-linecap="round" stroke-linejoin="round">
          <path d="M 710.1412963867188 325.8854064941406 C 710.1411743164062 325.8854064941406 710.1412353515625 325.8854064941406 710.14111328125 325.8854064941406 C 709.880615234375 325.8854064941406 709.6170043945312 325.8623352050781 709.3576049804688 325.8168640136719 C 708.2880859375 325.6298828125 707.3453979492188 325.0786437988281 706.7032470703125 324.2647399902344 C 706.0477905273438 323.433837890625 705.7822875976562 322.4303894042969 705.9556884765625 321.4393005371094 L 706.1142578125 320.5346069335938 C 706.1990356445312 320.0506896972656 706.2890014648438 319.5369567871094 706.3494262695312 319.1927795410156 C 706.6566772460938 317.4371337890625 708.2987670898438 316.1626586914062 710.25390625 316.1626586914062 C 710.5138549804688 316.1626586914062 710.7769165039062 316.1856079101562 711.0358276367188 316.2308959960938 C 713.2657470703125 316.6217651367188 714.7918090820312 318.5859069824219 714.4379272460938 320.6093139648438 L 714.044189453125 322.8548889160156 C 713.737060546875 324.6107788085938 712.0955810546875 325.8854064941406 710.1412963867188 325.8854064941406 Z" stroke="none"/>
          <path d="M 710.25390625 316.6792602539062 C 708.5780639648438 316.67919921875 707.1272583007812 317.7451477050781 706.8582763671875 319.2821350097656 C 706.7554931640625 319.8674011230469 706.5672607421875 320.9430236816406 706.464599609375 321.5283508300781 C 706.1591186523438 323.2739868164062 707.4940795898438 324.9666137695312 709.44677734375 325.3080139160156 C 709.6807250976562 325.3490295410156 709.9130859375 325.3688049316406 710.14111328125 325.3688049316406 C 711.81640625 325.3688049316406 713.2664794921875 324.302978515625 713.5353393554688 322.7656860351562 L 713.9290161132812 320.5202941894531 C 714.2344970703125 318.7738342285156 712.8995971679688 317.0820617675781 710.9468383789062 316.7397766113281 C 710.71337890625 316.6989440917969 710.4815063476562 316.6792907714844 710.25390625 316.6792602539062 M 710.2537231445312 315.6460571289062 C 710.2537841796875 315.6460571289062 710.25390625 315.6460571289062 710.2539672851562 315.6460571289062 C 710.5436401367188 315.6460571289062 710.8366088867188 315.6716003417969 711.124755859375 315.7219848632812 C 713.6354370117188 316.1620483398438 715.3497924804688 318.3944091796875 714.94677734375 320.6983032226562 L 714.5530395507812 322.9441223144531 C 714.20263671875 324.9475708007812 712.3471069335938 326.4020080566406 710.1411743164062 326.4020080566406 C 709.850830078125 326.4020080566406 709.5571899414062 326.3763427734375 709.2683715820312 326.3257141113281 C 708.0737915039062 326.1168518066406 707.0186157226562 325.49853515625 706.2976684570312 324.584716796875 C 705.5498657226562 323.6368103027344 705.2477416992188 322.4881286621094 705.4468383789062 321.3502502441406 L 705.6054077148438 320.4454650878906 C 705.690185546875 319.9614562988281 705.7801513671875 319.4476623535156 705.8406372070312 319.1034240722656 C 706.191162109375 317.100341796875 708.0471801757812 315.6460571289062 710.2537231445312 315.6460571289062 Z" stroke="none" fill="#1a1311"/>
        </g>
        <ellipse id="椭圆_624" data-name="椭圆 624" cx="3.209" cy="3.589" rx="3.209" ry="3.589" transform="translate(0 8.01) rotate(-80.071)" fill="#96a7b1"/>
        <path id="路径_12068" data-name="路径 12068" d="M710.97,319.365a3.9,3.9,0,0,0-1.659.065,3.932,3.932,0,0,1,1.257.015,3.415,3.415,0,0,1,2.982,3.78,3.191,3.191,0,0,1-2.429,2.478,3.247,3.247,0,0,0,2.831-2.559A3.414,3.414,0,0,0,710.97,319.365Z" transform="translate(-706.328 -317.058)" fill="#646f75"/>
        <path id="路径_12069" data-name="路径 12069" d="M709.976,325.649a3.415,3.415,0,0,1-2.982-3.78,3.253,3.253,0,0,1,2.871-2.564,3.327,3.327,0,0,0-3.4,2.6,3.415,3.415,0,0,0,2.982,3.78,3.945,3.945,0,0,0,1.219.021A3.951,3.951,0,0,1,709.976,325.649Z" transform="translate(-705.911 -317.058)" fill="#fff"/>
        <g id="路径_12070" data-name="路径 12070" transform="translate(-706.268 -317.49)" fill="#50585d" stroke-linecap="round" stroke-linejoin="round">
          <path d="M 710.0646362304688 325.1641540527344 C 710.0645751953125 325.1641540527344 710.0645751953125 325.1641540527344 710.0645751953125 325.1641540527344 C 709.9769897460938 325.1641540527344 709.8884887695312 325.1564331054688 709.8013916015625 325.1412048339844 C 709.440673828125 325.0780639648438 709.1224365234375 324.8917541503906 708.9052124023438 324.6165771484375 C 708.68115234375 324.3327026367188 708.5906372070312 323.9891662597656 708.6502685546875 323.6492004394531 C 708.6693725585938 323.5411071777344 708.6893310546875 323.4263305664062 708.7091064453125 323.3125915527344 L 708.7503662109375 323.0759582519531 C 708.8555297851562 322.4764404296875 709.4130859375 322.0413208007812 710.076171875 322.0413208007812 C 710.163818359375 322.0413208007812 710.2525024414062 322.049072265625 710.3397216796875 322.0643310546875 C 710.7003784179688 322.12744140625 711.0184936523438 322.3137512207031 711.2355346679688 322.5889282226562 C 711.4592895507812 322.8726196289062 711.5496826171875 323.2158813476562 711.489990234375 323.5554809570312 C 711.45849609375 323.7395629882812 711.4224853515625 323.9444885253906 711.389892578125 324.1297302246094 C 711.2854614257812 324.7289428710938 710.7280883789062 325.1641540527344 710.0646362304688 325.1641540527344 Z" stroke="none"/>
          <path d="M 710.076171875 322.2996520996094 C 709.5475463867188 322.2996215820312 709.08984375 322.635498046875 709.0047607421875 323.1205749511719 C 708.9723510742188 323.305419921875 708.9371948242188 323.5098571777344 708.9046630859375 323.69384765625 C 708.8079833984375 324.2449951171875 709.2297973632812 324.7789306640625 709.8458862304688 324.8867492675781 C 709.9195556640625 324.899658203125 709.9927368164062 324.9058532714844 710.0645751953125 324.9058532714844 C 710.5933227539062 324.9058532714844 711.0510864257812 324.5693664550781 711.135498046875 324.0849609375 C 711.1680297851562 323.9001159667969 711.2039794921875 323.6956176757812 711.235595703125 323.5107727050781 C 711.332275390625 322.9605407714844 710.911376953125 322.4266052246094 710.2952270507812 322.3187866210938 C 710.221435546875 322.3058776855469 710.1481323242188 322.2996520996094 710.076171875 322.2996520996094 M 710.0761108398438 321.7830200195312 C 710.1787109375 321.7830200195312 710.2824096679688 321.7920837402344 710.38427734375 321.8099060058594 C 710.8075561523438 321.8839721679688 711.1819458007812 322.1038208007812 711.4383544921875 322.428955078125 C 711.7083129882812 322.7712097167969 711.8170166015625 323.1871643066406 711.7444458007812 323.6001586914062 C 711.7130737304688 323.7835083007812 711.6769409179688 323.9888610839844 711.644287109375 324.1744995117188 C 711.518310546875 324.8972778320312 710.8538818359375 325.4224853515625 710.0645751953125 325.4224853515625 C 709.962158203125 325.4224853515625 709.858642578125 325.4134521484375 709.7568359375 325.3956298828125 C 709.33349609375 325.3215637207031 708.9591064453125 325.1017150878906 708.7024536132812 324.776611328125 C 708.4321899414062 324.4342346191406 708.3233032226562 324.0179748535156 708.3958129882812 323.6045837402344 C 708.4149780273438 323.4963684082031 708.4348754882812 323.3818359375 708.45458984375 323.2683410644531 L 708.4959106445312 323.0313415527344 C 708.622802734375 322.3080139160156 709.2874145507812 321.7830200195312 710.0761108398438 321.7830200195312 Z" stroke="none" fill="#1a1311"/>
        </g>
        <path id="路径_12071" data-name="路径 12071" d="M710.2,322.989a1.019,1.019,0,1,1-1.29.8A1.077,1.077,0,0,1,710.2,322.989Z" transform="translate(-706.268 -317.587)" fill="#96a7b1"/>
        <path id="路径_12072" data-name="路径 12072" d="M710.346,322.989a1.243,1.243,0,0,0-.41,0,1.328,1.328,0,0,1,.224.019,1.078,1.078,0,0,1,.941,1.193,1.023,1.023,0,0,1-.881.805,1.048,1.048,0,0,0,1.066-.821A1.077,1.077,0,0,0,710.346,322.989Z" transform="translate(-706.419 -317.587)" fill="#646f75"/>
        <path id="路径_12073" data-name="路径 12073" d="M709.071,323.832a1.077,1.077,0,0,1,1.282-.8,1.176,1.176,0,0,0-.157-.039,1.019,1.019,0,1,0-.349,1.995h.008A1.056,1.056,0,0,1,709.071,323.832Z" transform="translate(-706.268 -317.587)" fill="#fff"/>
      </g>
      <g id="路径_12074" data-name="路径 12074" transform="translate(-669.426 -283.377)" fill="#bc2700" stroke-linecap="round" stroke-linejoin="round">
        <path d="M 712.5637817382812 315.1406860351562 C 712.5634765625 315.1406860351562 712.563720703125 315.1406860351562 712.5634155273438 315.1406860351562 C 711.8424682617188 315.1406555175781 711.1119384765625 315.0805053710938 710.39208984375 314.9618835449219 C 698.1817626953125 312.9602355957031 686.4058227539062 309.0869750976562 675.391845703125 303.4497680664062 C 670.5175170898438 300.9596862792969 667.8902587890625 295.8946838378906 669.2808837890625 291.6682739257812 C 669.3408813476562 291.4851989746094 669.4857177734375 291.0379028320312 669.6359252929688 290.5740356445312 C 669.80419921875 290.0545654296875 669.9791259765625 289.5143737792969 670.050048828125 289.2982788085938 C 670.2819213867188 288.5945129394531 670.6175537109375 287.9363403320312 671.0478515625 287.3414306640625 L 671.4002685546875 286.8344421386719 L 671.4030151367188 286.8304748535156 L 671.4058227539062 286.8265686035156 C 673.2018432617188 284.3431396484375 676.3457641601562 282.8605041503906 679.81591796875 282.8605041503906 C 681.735595703125 282.8605041503906 683.6532592773438 283.319580078125 685.3614501953125 284.1880798339844 C 694.3065795898438 288.7662048339844 703.8694458007812 291.9114379882812 713.7857055664062 293.5370788574219 C 716.424560546875 293.9773864746094 718.8689575195312 295.2837524414062 720.6701049804688 297.2157287597656 C 722.485595703125 299.1631164550781 723.472900390625 301.5576782226562 723.4500732421875 303.9583435058594 L 723.4500122070312 303.9636535644531 L 723.4498291015625 303.9689636230469 L 723.4320678710938 304.558837890625 C 723.4259643554688 305.3008422851562 723.3052978515625 306.0341796875 723.073486328125 306.7385559082031 C 723.0159912109375 306.9136657714844 722.8831176757812 307.3237609863281 722.7418212890625 307.7598571777344 C 722.5626831054688 308.3127746582031 722.3773803710938 308.884521484375 722.302978515625 309.1095581054688 C 721.1170043945312 312.7165222167969 717.2026977539062 315.1406860351562 712.5637817382812 315.1406860351562 Z" stroke="none"/>
        <path d="M 712.5634765625 314.6240539550781 C 716.892822265625 314.6241760253906 720.6806640625 312.3895568847656 721.8125 308.9473876953125 C 721.946044921875 308.54345703125 722.4534912109375 306.9706726074219 722.582763671875 306.5770568847656 C 722.7982177734375 305.9224243164062 722.910400390625 305.2404174804688 722.91552734375 304.5490112304688 L 722.9334716796875 303.9534301757812 C 722.97802734375 299.2632751464844 718.9227294921875 294.9179992675781 713.7021484375 294.046875 C 703.732177734375 292.4124450683594 694.119140625 289.2506103515625 685.1273193359375 284.6485900878906 C 683.4365234375 283.7889404296875 681.6007690429688 283.3771057128906 679.81591796875 283.3771057128906 C 676.618896484375 283.3771057128906 673.5833129882812 284.6972351074219 671.824462890625 287.1293029785156 L 671.4693603515625 287.6401672363281 C 671.0714111328125 288.1895141601562 670.756591796875 288.8047790527344 670.5408935546875 289.4594116210938 C 670.4066162109375 289.8684387207031 669.899169921875 291.4403381347656 669.7716064453125 291.8297424316406 C 668.4598388671875 295.8164978027344 670.977294921875 300.6144409179688 675.627197265625 302.9898986816406 C 686.5931396484375 308.6025085449219 698.3189697265625 312.459228515625 710.47607421875 314.4521484375 C 711.1797485351562 314.5680847167969 711.8785400390625 314.6240539550781 712.5634765625 314.6240539550781 M 712.563720703125 315.6572875976562 L 712.563720703125 314.6240539550781 L 712.5636596679688 315.6572875976562 C 711.8143920898438 315.6572570800781 711.0556030273438 315.5947875976562 710.30810546875 315.4716186523438 C 698.0452270507812 313.4613647460938 686.21826171875 309.5713195800781 675.1564331054688 303.9096374511719 C 672.7197265625 302.6648254394531 670.7279663085938 300.7414245605469 669.548828125 298.4941101074219 C 668.3369750976562 296.1844482421875 668.0675659179688 293.7029724121094 668.7901611328125 291.5068054199219 C 668.8497924804688 291.3246459960938 668.9944458007812 290.8780212402344 669.1444702148438 290.4148559570312 C 669.3129272460938 289.8945922851562 669.4881591796875 289.3535766601562 669.5592041015625 289.1371459960938 C 669.8074340820312 288.3838195800781 670.1664428710938 287.679443359375 670.6265258789062 287.0424194335938 L 670.97607421875 286.5395812988281 C 670.979736328125 286.5343017578125 670.9834594726562 286.529052734375 670.9872436523438 286.5238342285156 C 672.8800659179688 283.9064636230469 676.1805419921875 282.3438720703125 679.81591796875 282.3438720703125 C 681.8165893554688 282.3438720703125 683.815185546875 282.8223571777344 685.5955810546875 283.7276000976562 C 694.4942016601562 288.2818603515625 704.0059814453125 291.4103088378906 713.8693237304688 293.0272521972656 C 716.6212158203125 293.4864501953125 719.169677734375 294.8486633300781 721.0479736328125 296.8634643554688 C 722.9541625976562 298.9081420898438 723.99072265625 301.4295654296875 723.9666748046875 303.9632568359375 C 723.966552734375 303.9703369140625 723.9664306640625 303.9774475097656 723.9662475585938 303.9845275878906 L 723.9486083984375 304.56884765625 C 723.9415283203125 305.3623962402344 723.8121948242188 306.1466369628906 723.564208984375 306.9000854492188 C 723.5068969726562 307.0745239257812 723.374267578125 307.4838256835938 723.2332763671875 307.9190979003906 C 723.0538940429688 308.4727478027344 722.868408203125 309.0452270507812 722.7935180664062 309.2716979980469 C 721.537841796875 313.0904846191406 717.4265747070312 315.6572875976562 712.563720703125 315.6572875976562 Z" stroke="none" fill="#1a1311"/>
      </g>
      <path id="路径_12075" data-name="路径 12075" d="M722.713,306.577a6.629,6.629,0,0,0,.333-2.028l.018-.6c.044-4.69-4.011-9.035-9.232-9.907a97.115,97.115,0,0,1-28.575-9.4c-4.719-2.4-10.562-1.309-13.3,2.481l-.355.511a6.652,6.652,0,0,0-.928,1.819c-1.311,3.987,1.207,8.785,5.856,11.16a118.455,118.455,0,0,0,34.85,11.462C716.527,312.931,721.4,310.564,722.713,306.577Z" transform="translate(-669.555 -283.377)" fill="#e85400"/>
      <ellipse id="椭圆_625" data-name="椭圆 625" cx="7.289" cy="16.104" rx="7.289" ry="16.104" transform="translate(10.525 17.86) rotate(-74.693)" fill="#bc2700"/>
      <path id="路径_12076" data-name="路径 12076" d="M714.9,294.047a97.1,97.1,0,0,1-28.574-9.4,11.61,11.61,0,0,0-8.626-.774,11.7,11.7,0,0,1,7.214,1.11,97.136,97.136,0,0,0,28.574,9.4c5.221.87,9.276,5.216,9.231,9.906l-.017.6a6.653,6.653,0,0,1-.334,2.028,8.4,8.4,0,0,1-5.755,5.163c3.421-.59,6.222-2.623,7.167-5.5a6.63,6.63,0,0,0,.333-2.028l.018-.6C724.171,299.264,720.116,294.918,714.9,294.047Z" transform="translate(-670.619 -283.377)" fill="#bc2700"/>
      <path id="路径_12077" data-name="路径 12077" d="M712.066,311.788A118.3,118.3,0,0,1,677.189,300.5c-4.649-2.375-7.167-7.173-5.856-11.16.216-.654,1.286-1.565,1.685-2.114l.354-.511a8.783,8.783,0,0,1,3.744-2.915,9.124,9.124,0,0,0-5.162,3.392l-.355.511a6.652,6.652,0,0,0-.928,1.819c-1.311,3.987,1.207,8.785,5.856,11.16a118.455,118.455,0,0,0,34.85,11.462,9.06,9.06,0,0,0,6.542-.983A10.782,10.782,0,0,1,712.066,311.788Z" transform="translate(-669.555 -283.438)" fill="#f99900"/>
      <path id="路径_12078" data-name="路径 12078" d="M721.609,298.989a12.142,12.142,0,0,0-7.213-4.059,101.306,101.306,0,0,1-29.8-9.8,12.134,12.134,0,0,0-8.624-.917,8.827,8.827,0,0,0-3.906,2.979l-.355.511a6.6,6.6,0,0,0-.613,1.035c.944.6,2.811.131,4.088.91,1.038.632,1.461,2.541,2.7,3.237,1.093.612,2.937-.019,4.172.615,1.132.581,1.693,2.451,2.934,3.029,1.166.543,2.955-.226,4.207.3,1.195.5,1.9,2.32,3.165,2.79,1.22.453,2.938-.464,4.217-.053,1.244.4,2.109,2.148,3.4,2.5,1.265.341,2.887-.737,4.192-.458,1.284.275,2.325,1.924,3.642,2.129,1.3.2,2.79-1.05,4.114-.925s2.544,1.634,3.874,1.67,2.628-1.4,3.957-1.456c1.1-.046,2.277.864,3.407,1.077l0-.08A8.936,8.936,0,0,0,721.609,298.989Z" transform="translate(-669.667 -283.439)" fill="#fff"/>
      <path id="路径_12079" data-name="路径 12079" d="M701.469,292.585c-8.128-2.224-15.566-1.223-17.23,2.191.952.717,1.52,2.32,2.654,2.849,1.166.543,2.955-.226,4.207.3,1.195.5,1.9,2.32,3.165,2.79,1.22.453,2.938-.464,4.217-.053,1.244.4,2.109,2.148,3.4,2.5,1.265.341,2.887-.737,4.192-.458,1.284.275,2.325,1.924,3.642,2.129,1.3.2,2.79-1.05,4.114-.925a2.984,2.984,0,0,1,1.1.377,3.231,3.231,0,0,0,.145-.411C716.14,299.984,710.047,294.933,701.469,292.585Z" transform="translate(-671.563 -284.535)" fill="#b4c1c8"/>
      <g id="组_2165" data-name="组 2165" transform="translate(9.927 0.379)">
        <path id="路径_12080" data-name="路径 12080" d="M686.029,285.132a12.229,12.229,0,0,0-5-1.312,11.739,11.739,0,0,1,4.364,1.229,97.091,97.091,0,0,0,19.557,7.477A101.346,101.346,0,0,1,686.029,285.132Z" transform="translate(-681.026 -283.82)" fill="#b4c1c8"/>
        <path id="路径_12081" data-name="路径 12081" d="M730.476,305.377c-.005-.094-.012-.188-.02-.282,0-.042-.008-.085-.012-.128-.012-.108-.025-.215-.041-.322,0-.024-.005-.047-.009-.071-.019-.125-.042-.25-.067-.374-.009-.046-.02-.092-.029-.138q-.027-.123-.056-.244c-.013-.052-.027-.1-.04-.156-.021-.08-.044-.159-.068-.238-.014-.047-.027-.1-.042-.142-.036-.113-.075-.225-.115-.336-.021-.06-.044-.118-.067-.177s-.047-.121-.072-.181-.053-.128-.08-.191-.047-.107-.072-.161c-.11-.239-.229-.475-.359-.706l-.069-.123c-.041-.07-.083-.14-.125-.21l-.072-.115c-.045-.072-.091-.144-.138-.215a12.141,12.141,0,0,0-7.132-4.043c3.98,1.4,6.93,4.843,7.255,8.634a6.856,6.856,0,0,0,1.441.515l0-.08c0-.133,0-.264-.007-.4C730.481,305.457,730.478,305.417,730.476,305.377Z" transform="translate(-686.908 -285.696)" fill="#b4c1c8"/>
      </g>
      <path id="路径_12082" data-name="路径 12082" d="M714.05,294.047a97.1,97.1,0,0,1-28.574-9.4c-4.72-2.4-10.563-1.309-13.3,2.481l-.337.486c.186.145.406.3.671.478.9.6,2.71.134,3.947.887.994.607,1.4,2.437,2.592,3.1,1.048.587,2.816-.018,4,.59,1.086.557,1.623,2.35,2.814,2.905,1.118.521,2.833-.216,4.034.287,1.145.48,1.822,2.224,3.034,2.674,1.171.435,2.818-.444,4.044-.05,1.193.383,2.022,2.06,3.261,2.393,1.213.326,2.769-.707,4.02-.439,1.231.264,2.23,1.845,3.492,2.042,1.245.194,2.675-1.007,3.945-.887s2.44,1.566,3.715,1.6,2.52-1.343,3.794-1.4,2.635,1.213,3.9,1.064c.037,0,.074-.014.111-.021C722.672,298.6,718.856,294.849,714.05,294.047Z" transform="translate(-669.773 -283.377)" fill="#ffd900"/>
      <path id="路径_12083" data-name="路径 12083" d="M701.576,292.585c-7.344-2.01-14.124-1.385-16.592,1.272,1.058.582,1.6,2.333,2.772,2.88,1.118.521,2.833-.216,4.034.287,1.145.48,1.822,2.224,3.034,2.674,1.171.435,2.818-.444,4.044-.051,1.193.383,2.022,2.06,3.261,2.393,1.213.326,2.769-.707,4.02-.439,1.231.264,2.23,1.845,3.492,2.042,1.245.194,2.675-1.007,3.945-.887a4.137,4.137,0,0,1,1.678.725C715.843,299.655,709.872,294.856,701.576,292.585Z" transform="translate(-671.67 -284.535)" fill="#fca400"/>
      <path id="路径_12084" data-name="路径 12084" d="M685.673,284.347c-.113-.049-.226-.1-.34-.141-.062-.025-.124-.048-.186-.071-.108-.041-.216-.08-.324-.117-.062-.021-.125-.043-.187-.062-.113-.037-.226-.071-.339-.1l-.172-.05c-.133-.037-.267-.07-.4-.1l-.11-.027q-.264-.06-.53-.108l-.011,0c-.169-.031-.34-.056-.51-.08l-.121-.015c-.135-.016-.271-.031-.406-.043l-.139-.011c-.133-.01-.266-.018-.4-.024l-.128-.005q-.218-.006-.436-.005h-.082a11.571,11.571,0,0,0-1.584.132l-.05.009q-.231.037-.46.083l-.073.015c-.149.031-.3.066-.444.1l-.06.015c-.164.043-.326.088-.487.139a11.7,11.7,0,0,1,7.214,1.11,97.135,97.135,0,0,0,28.574,9.4c4.589.765,8.276,4.215,9.071,8.224a2.946,2.946,0,0,0,1.392.258c.037,0,.075-.014.111-.021h0a9.234,9.234,0,0,0-1.612-4.084l-.021-.03c-.069-.1-.141-.2-.214-.294l-.039-.052c-.07-.092-.142-.182-.215-.272l-.055-.066q-.106-.128-.216-.254l-.066-.074c-.073-.081-.147-.162-.222-.24-.024-.026-.049-.05-.074-.075-.075-.078-.151-.156-.229-.231l-.077-.074c-.08-.075-.159-.151-.241-.223l-.07-.062c-.086-.075-.173-.151-.261-.225l-.025-.02q-.429-.354-.9-.668l-.13-.089c-.071-.046-.143-.091-.215-.136l-.17-.106c-.068-.041-.138-.08-.207-.12l-.19-.109c-.067-.037-.135-.072-.2-.107s-.136-.072-.205-.106-.133-.066-.2-.1l-.217-.1-.2-.087-.228-.1-.2-.079c-.079-.03-.159-.059-.24-.088l-.2-.07c-.084-.028-.168-.055-.252-.081l-.193-.06c-.09-.027-.181-.05-.271-.075l-.182-.049c-.1-.026-.2-.048-.305-.071l-.156-.036c-.154-.032-.31-.062-.467-.088a97.1,97.1,0,0,1-28.574-9.4c-.163-.082-.326-.159-.49-.234Z" transform="translate(-670.619 -283.377)" fill="#fca400"/>
      <path id="路径_12085" data-name="路径 12085" d="M672.506,288.154a1.4,1.4,0,0,0,.131.074,6.51,6.51,0,0,1,.6-1l.354-.511a8.783,8.783,0,0,1,3.744-2.915c-.124.033-.247.067-.371.1l-.031.009q-.176.054-.349.113l-.044.015q-.171.059-.337.123l-.044.018c-.113.044-.224.089-.335.137l-.026.012a9.662,9.662,0,0,0-1.313.7c-.021.015-.044.027-.065.041-.074.048-.146.1-.219.149-.042.029-.085.058-.126.088-.064.045-.126.092-.188.14s-.1.074-.146.112-.112.091-.168.138-.1.086-.154.131-.1.09-.151.136-.106.1-.158.151-.092.088-.136.134-.11.114-.163.171-.08.085-.118.128c-.06.067-.118.136-.176.205-.03.037-.062.072-.091.11-.087.108-.171.217-.252.329l-.337.486C672.021,287.821,672.241,287.978,672.506,288.154Z" transform="translate(-669.773 -283.438)" fill="#fff038"/>
    </g>
    <g id="组_2171" data-name="组 2171" transform="translate(701.579 227.994)">
      <path id="路径_12086" data-name="路径 12086" stroke="#1a1311" d="M718.448,231.913a.98.98,0,1,1-1.16.747A.974.974,0,0,1,718.448,231.913Z" fill="#fff" transform="translate(-708.482 -228.556)" stroke-linecap="round" stroke-linejoin="round" stroke-width="0.972" fill-rule="evenodd"/>
      <path id="路径_12087" data-name="路径 12087" stroke="#1a1311" d="M711.8,230.442a.98.98,0,1,1-1.16.747A.975.975,0,0,1,711.8,230.442Z" fill="#fff" transform="translate(-707.522 -228.344)" stroke-linecap="round" stroke-linejoin="round" stroke-width="0.972" fill-rule="evenodd"/>
      <g id="组_2170" data-name="组 2170" transform="translate(0.516 0.347)">
        <g id="组_2167" data-name="组 2167" transform="translate(0 0.241)">
          <path id="路径_12088" data-name="路径 12088" d="M708.438,228.859a.168.168,0,0,1-.178.155.166.166,0,1,1,.178-.155Z" transform="translate(-707.676 -228.681)" fill="#e0dfde" fill-rule="evenodd"/>
          <path id="路径_12089" data-name="路径 12089" d="M707.783,229.309a.679.679,0,0,0-.058.845" transform="translate(-707.604 -228.772)" fill="none" stroke="#dededd" stroke-linecap="round" stroke-miterlimit="10" stroke-width="0.217" fill-rule="evenodd"/>
        </g>
        <g id="组_2168" data-name="组 2168" transform="translate(6.076)">
          <path id="路径_12090" data-name="路径 12090" d="M715.539,228.578a.167.167,0,1,1-.155-.178A.166.166,0,0,1,715.539,228.578Z" transform="translate(-714.777 -228.4)" fill="#e0dfde" fill-rule="evenodd"/>
          <path id="路径_12091" data-name="路径 12091" d="M714.884,229.028a.679.679,0,0,0-.058.845" transform="translate(-714.705 -228.49)" fill="none" stroke="#dededd" stroke-linecap="round" stroke-miterlimit="10" stroke-width="0.217" fill-rule="evenodd"/>
        </g>
        <g id="组_2169" data-name="组 2169" transform="translate(11.615 2.993)">
          <path id="路径_12092" data-name="路径 12092" d="M722.382,232.14a.167.167,0,1,1-.073-.224A.168.168,0,0,1,722.382,232.14Z" transform="translate(-721.305 -231.898)" fill="#e0dfde" fill-rule="evenodd"/>
          <path id="路径_12093" data-name="路径 12093" d="M721.577,232.3a.679.679,0,0,0-.386.755" transform="translate(-721.177 -231.956)" fill="none" stroke="#dededd" stroke-linecap="round" stroke-miterlimit="10" stroke-width="0.217" fill-rule="evenodd"/>
        </g>
      </g>
      <g id="路径_12094" data-name="路径 12094" transform="translate(-707.001 -227.994)" fill="#fff" stroke-linecap="round" stroke-linejoin="round" fill-rule="evenodd">
        <path d="M 717.3259887695312 239.0723876953125 C 717.2189331054688 239.0723876953125 717.111572265625 239.0597229003906 717.0069580078125 239.0347442626953 L 716.9677734375 239.025390625 L 716.9306640625 239.0097045898438 C 716.9080810546875 239.0001831054688 714.64990234375 238.0509338378906 712.476806640625 237.5321350097656 C 710.304443359375 237.0124969482422 707.87744140625 236.8408355712891 707.8532104492188 236.8391723632812 L 707.81298828125 236.8363952636719 L 707.7737426757812 236.8270263671875 C 707.4169311523438 236.7418365478516 707.1144409179688 236.5222015380859 706.9219360351562 236.2085876464844 C 706.7296142578125 235.8951568603516 706.670654296875 235.5262451171875 706.7559814453125 235.1698150634766 L 706.7738037109375 235.0950317382812 C 706.8809814453125 234.6528167724609 707.1986694335938 234.3011932373047 707.605224609375 234.1387176513672 L 707.681640625 231.3164672851562 C 707.31103515625 231.1869049072266 706.9983520507812 230.9383697509766 706.7860107421875 230.6014251708984 C 706.536865234375 230.2062072753906 706.4556884765625 229.7363433837891 706.5573120117188 229.2783966064453 C 706.7348022460938 228.4777984619141 707.4542846679688 227.8966522216797 708.2681274414062 227.8966522216797 C 708.3941650390625 227.8966522216797 708.5208129882812 227.9105529785156 708.6445922851562 227.9379577636719 C 709.1011962890625 228.0390319824219 709.4905395507812 228.313232421875 709.7407836914062 228.7100677490234 C 709.9901123046875 229.1054229736328 710.0714721679688 229.5753173828125 709.9699096679688 230.0332183837891 C 709.9437866210938 230.1493530273438 709.9072265625 230.2606811523438 709.8604125976562 230.3666687011719 C 710.3124389648438 230.8903656005859 710.7322998046875 231.2377319335938 711.06005859375 231.3558349609375 C 711.1246948242188 231.3792114257812 711.1968994140625 231.3909454345703 711.2753295898438 231.3909454345703 C 711.7045288085938 231.3909301757812 712.2774658203125 231.0518188476562 712.7251586914062 230.5529174804688 C 712.453857421875 230.1156158447266 712.3602905273438 229.5866546630859 712.4745483398438 229.0713806152344 C 712.67578125 228.1654968261719 713.4949340820312 227.5081024169922 714.42236328125 227.5081024169922 C 714.56689453125 227.5081024169922 714.7122192382812 227.5240020751953 714.8543090820312 227.5553741455078 C 715.3748168945312 227.6704711914062 715.8190307617188 227.9814453125 716.1051635742188 228.4310455322266 C 716.3910522460938 228.8803253173828 716.4846801757812 229.4139709472656 716.36865234375 229.9336700439453 C 716.253173828125 230.4533233642578 715.9441528320312 230.8924713134766 715.5111694335938 231.1730194091797 C 715.822509765625 231.9261474609375 716.3353271484375 232.46728515625 716.6392211914062 232.5925598144531 C 716.6395263671875 232.5926666259766 716.6605224609375 232.6010589599609 716.7134399414062 232.6010589599609 C 716.851806640625 232.6010437011719 717.2536010742188 232.5428009033203 718.116943359375 232.0360107421875 C 718.1242065429688 231.9695892333984 718.1351928710938 231.9034118652344 718.1500244140625 231.8378143310547 C 718.327392578125 231.0390167236328 719.04736328125 230.4580841064453 719.861572265625 230.4580841064453 C 719.9869995117188 230.4580841064453 720.1130981445312 230.4718322753906 720.236328125 230.4989776611328 C 720.6934814453125 230.6001586914062 721.082763671875 230.8743591308594 721.3330688476562 231.2711944580078 C 721.5823974609375 231.6665496826172 721.6637573242188 232.1364440917969 721.5621948242188 232.5943450927734 C 721.3836059570312 233.3951721191406 720.663818359375 233.9761047363281 719.8505859375 233.9761047363281 C 719.8505249023438 233.9761047363281 719.8505859375 233.9761047363281 719.8505249023438 233.9761047363281 C 719.7843017578125 233.9761047363281 719.7178344726562 233.9722747802734 719.6517944335938 233.9646453857422 L 718.3031005859375 236.6377258300781 C 718.6409301757812 236.9681854248047 718.7990112304688 237.4630432128906 718.684326171875 237.9425659179688 L 718.6664428710938 238.0175476074219 C 718.516357421875 238.6391906738281 717.9652709960938 239.0723876953125 717.3259887695312 239.0723876953125 Z" stroke="none"/>
        <path d="M 714.42236328125 227.9940948486328 C 713.729736328125 227.9940948486328 713.105224609375 228.4732208251953 712.9490356445312 229.1766052246094 C 712.8344116210938 229.6934509277344 712.99951171875 230.2068786621094 713.3435668945312 230.5585632324219 C 712.8098754882812 231.3010711669922 711.9779663085938 231.8769378662109 711.2753295898438 231.8769378662109 C 711.1431274414062 231.8769378662109 711.0155639648438 231.8565521240234 710.8953247070312 231.8130493164062 C 710.3134765625 231.6033935546875 709.7058715820312 230.9616241455078 709.2711791992188 230.4173736572266 C 709.3764038085938 230.2770538330078 709.4542846679688 230.1110534667969 709.4954223632812 229.9279327392578 C 709.647705078125 229.2416534423828 709.2198486328125 228.5630493164062 708.53955078125 228.4124755859375 C 708.4486083984375 228.392333984375 708.357666015625 228.3826446533203 708.2681274414062 228.3826446533203 C 707.6880493164062 228.3826446533203 707.1636962890625 228.7884521484375 707.03173828125 229.3836822509766 C 706.8794555664062 230.0699615478516 707.3064575195312 230.7485504150391 707.9876098632812 230.899169921875 C 708.0509643554688 230.9128570556641 708.1151123046875 230.9222412109375 708.1784057617188 230.9256744384766 L 708.0808715820312 234.5273742675781 C 707.6924438476562 234.5419006347656 707.3424072265625 234.8123321533203 707.24658203125 235.2076416015625 L 707.2286376953125 235.282958984375 C 707.11474609375 235.7587432861328 707.4099731445312 236.2405090332031 707.8865966796875 236.3543243408203 C 707.8865966796875 236.3543243408203 710.3502197265625 236.5237426757812 712.5896606445312 237.0594177246094 C 714.8298950195312 237.59423828125 717.1198120117188 238.5620269775391 717.1198120117188 238.5620269775391 C 717.1887817382812 238.5785064697266 717.2579345703125 238.5863952636719 717.3259887695312 238.5863952636719 C 717.7284545898438 238.5863952636719 718.0956420898438 238.3110504150391 718.1937255859375 237.9048614501953 L 718.211669921875 237.8295593261719 C 718.315185546875 237.3965759277344 718.0798950195312 236.9601593017578 717.6776733398438 236.7984161376953 L 719.3908081054688 233.4029693603516 C 719.4515991210938 233.4269256591797 719.5140380859375 233.4457397460938 719.5791015625 233.4602966308594 C 719.6700439453125 233.4804382324219 719.760986328125 233.4901123046875 719.8505249023438 233.4901123046875 C 720.4306030273438 233.4901123046875 720.9550170898438 233.0843200683594 721.0877075195312 232.4890594482422 C 721.239990234375 231.8027801513672 720.8121337890625 231.1241760253906 720.1318359375 230.9736022949219 C 720.041259765625 230.9536590576172 719.95068359375 230.9440765380859 719.861572265625 230.9440765380859 C 719.281005859375 230.9440155029297 718.7562255859375 231.3499145507812 718.6240844726562 231.9448089599609 C 718.5958862304688 232.0697631835938 718.5872802734375 232.1938323974609 718.5958862304688 232.3144989013672 C 718.0266723632812 232.6674499511719 717.2391357421875 233.0870513916016 716.7134399414062 233.0870513916016 C 716.6171875 233.0870513916016 716.5297241210938 233.072998046875 716.4539794921875 233.0418701171875 C 715.9038696289062 232.8150787353516 715.2021484375 231.9354095458984 714.9111938476562 230.9282531738281 C 715.3912353515625 230.7630767822266 715.7762451171875 230.3592071533203 715.8943481445312 229.8278045654297 C 716.0758056640625 229.0148620605469 715.5623168945312 228.2096710205078 714.74951171875 228.0299377441406 C 714.6398315429688 228.0057220458984 714.5302734375 227.9940948486328 714.42236328125 227.9940948486328 M 714.42236328125 227.0220947265625 C 714.60205078125 227.0220947265625 714.7825927734375 227.0418548583984 714.9590454101562 227.0807952880859 C 715.606689453125 227.2240142822266 716.1591796875 227.61083984375 716.51513671875 228.1701049804688 C 716.8709106445312 228.7290496826172 716.9873046875 229.3929748535156 716.843017578125 230.0395355224609 C 716.73193359375 230.5392608642578 716.4767456054688 230.9792022705078 716.11767578125 231.3142852783203 C 716.344970703125 231.7264556884766 716.6155395507812 232.0074615478516 716.7640380859375 232.1089019775391 C 716.8701171875 232.0905303955078 717.1504516601562 232.0174560546875 717.6766967773438 231.7274017333984 C 717.9039916992188 230.7114105224609 718.8225708007812 229.9720764160156 719.8614501953125 229.9720764160156 C 720.022216796875 229.9720916748047 720.1834106445312 229.9896850585938 720.3408813476562 230.0243530273438 C 720.9261474609375 230.1538848876953 721.4241333007812 230.5045471191406 721.744140625 231.0119476318359 C 722.0623168945312 231.5164184570312 722.1661987304688 232.1157989501953 722.03662109375 232.6996307373047 C 721.8158569335938 233.6897888183594 720.945556640625 234.4161834716797 719.9461669921875 234.4600219726562 L 718.8795776367188 236.5740356445312 C 719.1676025390625 236.9965972900391 719.281982421875 237.5328063964844 719.1570434570312 238.0555572509766 L 719.1392211914062 238.1302490234375 C 718.9359130859375 238.9722442626953 718.1905517578125 239.5583953857422 717.3259887695312 239.5583953857422 C 717.180908203125 239.5583953857422 717.0355834960938 239.5412445068359 716.89404296875 239.5074462890625 C 716.8418579101562 239.4949798583984 716.7908325195312 239.4782257080078 716.7413940429688 239.4573516845703 C 716.7193603515625 239.4480438232422 714.4956665039062 238.5137481689453 712.3639526367188 238.0048522949219 C 710.2330322265625 237.4951171875 707.8436279296875 237.3256683349609 707.8197021484375 237.3240051269531 C 707.7662353515625 237.3203125 707.7129516601562 237.3121948242188 707.6608276367188 237.2997436523438 C 707.1776733398438 237.1843566894531 706.7681884765625 236.8871459960938 706.5077514648438 236.4627990722656 C 706.2474975585938 236.0387420654297 706.1677856445312 235.5393676757812 706.2833251953125 235.0566864013672 L 706.3010864257812 234.9823150634766 C 706.4187622070312 234.4967651367188 706.7232666015625 234.0921173095703 707.1271362304688 233.8390960693359 L 707.1870727539062 231.626708984375 C 706.8583984375 231.4469757080078 706.5799560546875 231.1860046386719 706.3748168945312 230.8605651855469 C 706.0569458007812 230.3562469482422 705.9532470703125 229.7569580078125 706.0828247070312 229.1731109619141 C 706.3092041015625 228.1519470214844 707.228271484375 227.41064453125 708.2681274414062 227.41064453125 C 708.4293823242188 227.41064453125 708.5914306640625 227.4284210205078 708.7496337890625 227.4634552001953 C 709.3338623046875 227.5927734375 709.8318481445312 227.9434204101562 710.15185546875 228.4508056640625 C 710.4700317382812 228.9552917480469 710.5738525390625 229.5546569824219 710.4443359375 230.1384887695312 C 710.4353637695312 230.1784057617188 710.4254150390625 230.2178802490234 710.41455078125 230.2568817138672 C 710.8670654296875 230.7396697998047 711.1395263671875 230.8678894042969 711.2247924804688 230.8986053466797 C 711.2310180664062 230.9008483886719 711.2455444335938 230.9049377441406 711.275390625 230.9049377441406 C 711.4796752929688 230.9049377441406 711.8121337890625 230.7420806884766 712.1316528320312 230.4590606689453 C 711.9373779296875 229.9944152832031 711.8872680664062 229.4748992919922 712.0001220703125 228.9661560058594 C 712.2503051757812 227.8395690917969 713.2689819335938 227.0220947265625 714.42236328125 227.0220947265625 Z" stroke="none" fill="#1a1311"/>
      </g>
      <path id="路径_12095" data-name="路径 12095" d="M717.607,237.822a28.6,28.6,0,0,0-4.486-1.606,28.98,28.98,0,0,0-4.747-.6.945.945,0,0,0-1.074.657l-.018.076a.5.5,0,0,0-.009.052,1.072,1.072,0,0,1,.927-.342,28.947,28.947,0,0,1,4.747.6,28.558,28.558,0,0,1,4.486,1.607c.475.248.749.56.667,1.019a.9.9,0,0,0,.146-.316l.018-.075A.915.915,0,0,0,717.607,237.822Z" transform="translate(-707.04 -229.093)" fill="#e0dfde" fill-rule="evenodd"/>
      <path id="路径_12096" data-name="路径 12096" d="M716.736,228.881a1.484,1.484,0,0,1,.029.316,1.511,1.511,0,0,1-2.827.716,1.509,1.509,0,0,0,2.992-.27A1.5,1.5,0,0,0,716.736,228.881Z" transform="translate(-708.002 -228.122)" fill="#e0dfde" fill-rule="evenodd"/>
      <path id="路径_12097" data-name="路径 12097" d="M709.737,230.928s.777,1.435,1.429,1.649,1.343-.5,1.343-.5a1.66,1.66,0,0,1-1.13.185A4.474,4.474,0,0,1,709.737,230.928Z" transform="translate(-707.396 -228.417)" fill="#e0dfde" fill-rule="evenodd"/>
      <path id="路径_12098" data-name="路径 12098" d="M716.327,231.67s.364,1.634.934,2.043,1.475-.253,1.475-.253a1.317,1.317,0,0,1-1.158,0A5,5,0,0,1,716.327,231.67Z" transform="translate(-708.347 -228.525)" fill="#e0dfde" fill-rule="evenodd"/>
      <path id="路径_12099" data-name="路径 12099" d="M709.525,229.54a1.433,1.433,0,0,1-2.233,1.1l.008.01a1.231,1.231,0,0,0,1.827.167A1.206,1.206,0,0,0,709.525,229.54Z" transform="translate(-707.043 -228.217)" fill="#e0dfde" fill-rule="evenodd"/>
      <path id="路径_12100" data-name="路径 12100" d="M723.085,232.588a1.433,1.433,0,0,1-2.233,1.1l.009.01a1.232,1.232,0,0,0,1.827.167A1.206,1.206,0,0,0,723.085,232.588Z" transform="translate(-709 -228.657)" fill="#e0dfde" fill-rule="evenodd"/>
      <path id="路径_12101" data-name="路径 12101" d="M720.475,233.889l-2.292,3.389,1.01.562,1.843-3.627Z" transform="translate(-708.614 -228.845)" fill="#e0dfde" fill-rule="evenodd"/>
      <path id="路径_12102" data-name="路径 12102" d="M719,238.621a.5.5,0,0,1,.152.624.683.683,0,0,1-.475.459l.555.367a.737.737,0,0,0,.589-.406,1.09,1.09,0,0,0,.091-.74S718.942,238.57,719,238.621Z" transform="translate(-708.686 -229.527)" fill="#e0dfde" fill-rule="evenodd"/>
    </g>
    <g id="路径_12103" data-name="路径 12103" transform="translate(-1.768 -5.607)" fill="#c60041" stroke-linecap="round" stroke-linejoin="round" fill-rule="evenodd">
      <path d="M 725.036376953125 297.4084777832031 C 721.8296508789062 297.4084777832031 716.693115234375 297.0093383789062 710.43359375 295.10791015625 C 705.9122314453125 293.7341613769531 701.8775634765625 293.0306396484375 698.3178100585938 292.4099731445312 C 694.7393188476562 291.7859802246094 691.6488647460938 291.2471008300781 688.891845703125 290.1954650878906 C 685.8417358398438 289.031982421875 683.5313720703125 287.34130859375 681.6210327148438 284.874755859375 L 681.5519409179688 284.7856140136719 L 681.5292358398438 284.6751403808594 C 681.0635986328125 282.412841796875 681.0850830078125 280.0474853515625 681.5930786132812 277.6447143554688 C 681.9974975585938 275.7317810058594 682.7095947265625 273.791748046875 683.70947265625 271.8784790039062 C 685.4086303710938 268.6272277832031 687.329345703125 266.600830078125 687.4102783203125 266.5161743164062 L 687.5782470703125 266.3404541015625 L 687.819580078125 266.3694458007812 L 722.5066528320312 270.5367431640625 L 722.8099365234375 270.5731811523438 L 722.9086303710938 270.8623046875 L 725.091552734375 277.2596130371094 L 725.1055297851562 277.300537109375 L 725.112060546875 277.34326171875 L 725.30029296875 278.5772094726562 C 725.3779296875 278.9189453125 726.6504516601562 284.4642944335938 727.9043579101562 286.8682250976562 C 729.287841796875 289.5205688476562 731.9349365234375 293.6995544433594 733.147216796875 294.9109802246094 C 733.3574829101562 295.1213989257812 733.416748046875 295.4063110351562 733.3060913085938 295.6733093261719 C 733.2296752929688 295.8576354980469 732.9971923828125 296.4186401367188 730.7009887695312 296.9046630859375 C 729.614990234375 297.1344909667969 727.750732421875 297.4084777832031 725.036376953125 297.4084777832031 Z" stroke="none"/>
      <path d="M 725.036376953125 296.9224853515625 C 730.340576171875 296.9224853515625 733.38525390625 295.8368225097656 732.8036499023438 295.2547302246094 C 731.4986572265625 293.9505920410156 728.8057861328125 289.6472473144531 727.4734497070312 287.0929870605469 C 726.14111328125 284.5386657714844 724.8224487304688 278.6676330566406 724.8224487304688 278.6676330566406 L 724.631591796875 277.4165649414062 L 722.4486694335938 271.0192565917969 L 687.7615966796875 266.8519592285156 C 687.7615966796875 266.8519592285156 680.0233764648438 274.9478454589844 682.0052490234375 284.5771789550781 C 688.0748291015625 292.4137573242188 697.0674438476562 290.5389099121094 710.5748291015625 294.6428833007812 C 716.228759765625 296.3603515625 721.2177124023438 296.9224853515625 725.036376953125 296.9224853515625 M 725.036376953125 297.8945007324219 C 721.7966918945312 297.8945007324219 716.6089477539062 297.49169921875 710.2922973632812 295.5729064941406 C 705.7993774414062 294.2078247070312 701.7803344726562 293.5070190429688 698.234375 292.8887329101562 C 691.1154174804688 291.6474304199219 685.492431640625 290.6669616699219 681.23681640625 285.17236328125 C 681.1459350585938 285.0550537109375 681.0831298828125 284.91845703125 681.05322265625 284.7731323242188 C 680.5740356445312 282.4449157714844 680.595703125 280.0127563476562 681.1176147460938 277.544189453125 C 681.5311889648438 275.587890625 682.25830078125 273.6059265136719 683.2787475585938 271.6533508300781 C 685.0093994140625 268.3418579101562 686.97607421875 266.2670593261719 687.0589599609375 266.1803588867188 C 687.243408203125 265.9873352050781 687.4978637695312 265.8799438476562 687.7615356445312 265.8799438476562 C 687.800048828125 265.8799438476562 687.8388061523438 265.8822326660156 687.8775634765625 265.8869018554688 L 722.5646362304688 270.05419921875 C 722.9354248046875 270.0987548828125 723.2479858398438 270.3518676757812 723.3685913085938 270.7053527832031 L 725.551513671875 277.1026611328125 C 725.570068359375 277.1571044921875 725.5838012695312 277.2131042480469 725.5924682617188 277.2699890136719 L 725.778076171875 278.4864501953125 C 725.88427734375 278.9518432617188 727.126220703125 284.3255004882812 728.3352661132812 286.6434631347656 C 729.703125 289.2658081054688 732.3077392578125 293.385009765625 733.49072265625 294.5671997070312 C 733.8396606445312 294.9164428710938 733.9407348632812 295.411376953125 733.7550659179688 295.8594055175781 C 733.5656127929688 296.3164672851562 733.0587158203125 296.9024047851562 730.8015747070312 297.380126953125 C 729.6929321289062 297.6147766113281 727.792724609375 297.8945007324219 725.036376953125 297.8945007324219 Z" stroke="none" fill="#1a1311"/>
    </g>
    <path id="路径_12104" data-name="路径 12104" d="M727.662,272.332s1.053,7.266,2.221,13.159a77.42,77.42,0,0,0,2.333,8.883c.645,1.651-14.566-.042-15.321-1.6s8.963-21.632,8.963-21.632Z" transform="translate(-6.843 -6.225)" fill="#a3003d" fill-rule="evenodd"/>
    <path id="路径_12105" data-name="路径 12105" d="M689.538,269.962c-3.206,1.082-6.692,11.5-5.636,14.019.691,1.647,7.115,3.857,7.115,3.857S692.745,268.879,689.538,269.962Z" transform="translate(-2.061 -6.049)" fill="#a3003d" fill-rule="evenodd"/>
    <path id="路径_12106" data-name="路径 12106" d="M697.407,255.316s-1.582-.146-1.348,2.078-.968,3.716-.323,5.062,2.814,4.448,8.383,1.521S697.436,255.375,697.407,255.316Z" transform="translate(-3.769 -3.942)" fill="#e0dfde" fill-rule="evenodd"/>
    <path id="路径_12107" data-name="路径 12107" stroke="#1a1311" d="M724,281.987c0,9.966-8.835,18.044-19.734,18.044s-19.734-8.078-19.734-18.044,5.958-19.584,19.734-18.044C718.941,263.943,724,272.022,724,281.987Z" fill="#e0dfde" transform="translate(-2.18 -5.164)" stroke-linecap="round" stroke-linejoin="round" stroke-width="0.972" fill-rule="evenodd"/>
    <path id="路径_12108" data-name="路径 12108" d="M723.119,281.06c0,9.421-8.05,17.057-18.727,17.057s-19.333-7.636-19.333-17.057S690.622,264.2,705,264.2,722.439,271.7,723.119,281.06Z" transform="translate(-2.256 -5.224)" fill="#fff" fill-rule="evenodd"/>
    <ellipse id="椭圆_626" data-name="椭圆 626" cx="3.127" cy="5.441" rx="3.127" ry="5.441" transform="translate(696.218 261.78) rotate(-86.648)" fill="#e0dfde"/>
    <g id="路径_12109" data-name="路径 12109" transform="translate(-1.843 -3.795)" fill="#fff" stroke-linecap="round" stroke-linejoin="round">
      <path d="M 690.6424560546875 268.9831237792969 L 690.4791259765625 268.9130554199219 C 690.4116821289062 268.8840942382812 690.3676147460938 268.8469848632812 690.3531494140625 268.8348083496094 C 690.3526000976562 268.8343811035156 690.3147583007812 268.8042907714844 690.1536254882812 268.6951293945312 C 688.8845825195312 267.8359680175781 684.5833740234375 264.6941528320312 682.517578125 260.3410339355469 C 681.5376586914062 258.2763061523438 681.4425048828125 256.3537902832031 682.2565307617188 255.0664367675781 C 682.7616577148438 254.2675170898438 683.5863647460938 253.8093109130859 684.5191040039062 253.8093109130859 C 685.1719360351562 253.8093109130859 685.8624267578125 254.0337066650391 686.5159301757812 254.458251953125 C 686.92431640625 254.7234649658203 687.3197631835938 255.0657501220703 687.6912231445312 255.4755859375 C 690.4647827148438 258.5308227539062 692.9283447265625 259.5774841308594 693.2274169921875 259.6969604492188 C 693.3196411132812 259.7145080566406 693.5963134765625 259.7618713378906 693.8965454101562 259.7618713378906 C 694.317626953125 259.7618713378906 694.5363159179688 259.6695861816406 694.6005859375 259.5832214355469 C 694.7398071289062 259.396240234375 694.9075927734375 259.3569946289062 695.0238037109375 259.3569946289062 C 695.2705688476562 259.3569946289062 695.4763793945312 259.5365295410156 695.5132446289062 259.7838745117188 C 695.53125 259.9049072265625 695.5537109375 260.0555114746094 695.0280151367188 261.4606323242188 C 694.8303833007812 261.9888610839844 694.4141845703125 263.064208984375 693.8469848632812 264.3309326171875 C 693.3159790039062 265.5169372558594 692.8206787109375 266.4952087402344 692.3749389648438 267.2385864257812 C 691.7576293945312 268.26806640625 691.2757568359375 268.7901306152344 690.8125 268.9313049316406 L 690.6424560546875 268.9831237792969 Z" stroke="none"/>
      <path d="M 684.5191040039062 254.2952880859375 C 682.5679321289062 254.2952880859375 681.3098754882812 256.662841796875 682.9566650390625 260.1326904296875 C 684.958251953125 264.3504638671875 689.1357421875 267.4190673828125 690.4261474609375 268.2927551269531 C 690.6674194335938 268.4561767578125 690.6648559570312 268.4638977050781 690.6707763671875 268.4664306640625 C 692.1221313476562 268.0240478515625 695.22607421875 259.8429260253906 695.0238037109375 259.8429870605469 C 695.0167846679688 259.8429870605469 695.0057373046875 259.8529052734375 694.990478515625 259.8733825683594 C 694.7684326171875 260.1717834472656 694.308349609375 260.2478637695312 693.8965454101562 260.2478637695312 C 693.467529296875 260.2478637695312 693.0908203125 260.1651916503906 693.0908203125 260.1651916503906 C 693.0908203125 260.1651916503906 690.4072875976562 259.1905517578125 687.3311157226562 255.8019409179688 C 686.9758911132812 255.4100341796875 686.6121826171875 255.1002197265625 686.2511596679688 254.8657836914062 C 685.6519165039062 254.4765014648438 685.0590209960938 254.2952880859375 684.5191040039062 254.2952880859375 M 684.5191040039062 253.3233032226562 C 685.2661743164062 253.3233032226562 686.0481567382812 253.5748291015625 686.7807006835938 254.0506896972656 C 687.2240600585938 254.3385925292969 687.651611328125 254.7082214355469 688.05126953125 255.1491394042969 C 690.6513671875 258.0133056640625 692.96044921875 259.0594482421875 693.3641357421875 259.2278747558594 C 693.4661254882812 259.2454223632812 693.6751098632812 259.27587890625 693.8965454101562 259.27587890625 C 694.1025390625 259.27587890625 694.2117309570312 259.2497253417969 694.2567138671875 259.2350463867188 C 694.5227661132812 258.919921875 694.8478393554688 258.8709716796875 695.0238037109375 258.8709716796875 C 695.02392578125 258.8709716796875 695.0241088867188 258.8709716796875 695.024169921875 258.8709716796875 C 695.5133056640625 258.8709411621094 695.9212036132812 259.2246398925781 695.993896484375 259.7120971679688 C 696.0269165039062 259.9332885742188 696.052978515625 260.1080017089844 695.4832153320312 261.630859375 C 695.2836303710938 262.1644592285156 694.8632202148438 263.2505798339844 694.2905883789062 264.5295104980469 C 693.751708984375 265.7330322265625 693.2473754882812 266.7285766601562 692.791748046875 267.4884643554688 C 692.0986938476562 268.6443481445312 691.5491333007812 269.21484375 690.9541625976562 269.3961791992188 C 690.8616333007812 269.4244079589844 690.76611328125 269.4384155273438 690.6707763671875 269.4384155273438 C 690.5404663085938 269.4384155273438 690.4104614257812 269.4122314453125 690.288818359375 269.3602294921875 C 690.2027587890625 269.3234558105469 690.125 269.2761840820312 690.0514526367188 269.2160034179688 C 690.0390014648438 269.2067260742188 689.9940185546875 269.1740112304688 689.8810424804688 269.0975341796875 C 688.5863647460938 268.220947265625 684.1970825195312 265.0136108398438 682.0785522460938 260.5494079589844 C 681.0256958007812 258.3309936523438 680.9407958984375 256.2378540039062 681.8457641601562 254.8067016601562 C 682.4418334960938 253.8639831542969 683.416259765625 253.3233032226562 684.5191040039062 253.3233032226562 Z" stroke="none" fill="#1a1311"/>
    </g>
    <path id="路径_12110" data-name="路径 12110" d="M686.943,264.065l.236.4.082-.16Z" transform="translate(-2.528 -5.205)" fill="#e0dfde" fill-rule="evenodd"/>
    <path id="路径_12111" data-name="路径 12111" d="M695.521,257.71s-1.542.1-.974,2.227-.356,3.763.472,4.975,3.388,3.9,8.284.2S695.558,257.762,695.521,257.71Z" transform="translate(-3.607 -4.288)" fill="#e0dfde" fill-rule="evenodd"/>
    <path id="路径_12112" data-name="路径 12112" d="M696.422,261.214s-2.978-.06-3.06-.127c-.062-.049-2.235,6.883-3.692,8.181-.63.56.8,1.349.8,1.349a3.647,3.647,0,0,0,3.227-.36C695.65,269.237,699.841,263.171,696.422,261.214Z" transform="translate(-2.898 -4.775)" fill="#fff"/>
    <path id="路径_12113" data-name="路径 12113" d="M693.344,260.382a25.691,25.691,0,0,1,.157,4c-.166.938,3.584,6.943,7.719,3.886S705,266.282,705,266.282,693.759,258.508,693.344,260.382Z" transform="translate(-3.451 -4.631)" fill="#e0dfde" fill-rule="evenodd"/>
    <g id="路径_12114" data-name="路径 12114" transform="translate(-3.565 -4.303)" fill="#c60041" stroke-linecap="round" stroke-linejoin="round" fill-rule="evenodd">
      <path d="M 698.8895263671875 266.968017578125 C 698.8893432617188 266.968017578125 698.8892211914062 266.968017578125 698.8890380859375 266.968017578125 C 697.06201171875 266.9678344726562 695.8013916015625 265.9047241210938 695.2125854492188 265.2710266113281 C 694.5721435546875 264.5824279785156 694.5079345703125 263.7064208984375 694.4400024414062 262.7789916992188 C 694.3831176757812 262.0018920898438 694.32421875 261.1983337402344 693.950927734375 260.3341064453125 C 693.5841674804688 259.4850158691406 693.5458374023438 258.7680969238281 693.8370971679688 258.2032775878906 C 694.1879272460938 257.5228576660156 694.8668212890625 257.3600769042969 694.943115234375 257.34375 L 695.2076416015625 257.2871398925781 L 695.2870483398438 257.3697509765625 C 695.314208984375 257.3742980957031 695.3433837890625 257.379150390625 695.3721923828125 257.3839416503906 C 696.0816040039062 257.5020446777344 698.240478515625 257.8614196777344 700.3196411132812 258.5063781738281 C 703.1119384765625 259.3725891113281 704.6611938476562 260.3901977539062 705.0558471679688 261.6173400878906 C 705.3339233398438 262.4819030761719 705.0236206054688 263.3732604980469 704.1336059570312 264.2666625976562 C 702.3482666015625 266.0591125488281 700.5838012695312 266.968017578125 698.8895263671875 266.968017578125 Z" stroke="none"/>
      <path d="M 695.0447998046875 257.8190002441406 C 695.0447998046875 257.8190002441406 693.5335693359375 258.1424255371094 694.3970947265625 260.1413879394531 C 695.260498046875 262.1403198242188 694.579345703125 263.8765563964844 695.568603515625 264.9402160644531 C 696.1157836914062 265.529052734375 697.2522583007812 266.4820251464844 698.8890991210938 266.4820251464844 C 700.2113037109375 266.4820251464844 701.8599243164062 265.8606872558594 703.789306640625 263.9236450195312 C 708.107177734375 259.5894470214844 695.0892333984375 257.8652038574219 695.0447998046875 257.8190002441406 M 695.0447998046875 256.8469848632812 C 695.1233520507812 256.8469848632812 695.201171875 256.8565063476562 695.2766723632812 256.8750610351562 C 695.3131103515625 256.881591796875 695.3724975585938 256.8912963867188 695.4520263671875 256.904541015625 C 696.1694946289062 257.0239868164062 698.3529052734375 257.387451171875 700.463623046875 258.0422058105469 C 703.4183349609375 258.9588012695312 705.0718383789062 260.0795593261719 705.5185546875 261.4685363769531 C 705.9398193359375 262.7784729003906 705.1851806640625 263.8997192382812 704.4779052734375 264.6096496582031 C 702.5980224609375 266.4970397949219 700.7176513671875 267.4540405273438 698.8890991210938 267.4540405273438 C 696.8778686523438 267.4540405273438 695.499267578125 266.2935791015625 694.8565673828125 265.6018371582031 C 694.0999145507812 264.7882995605469 694.0264282226562 263.7848815917969 693.955322265625 262.8144836425781 C 693.9013671875 262.07763671875 693.8455200195312 261.3157043457031 693.5047607421875 260.5267944335938 C 693.0774536132812 259.5376586914062 693.0439453125 258.6809692382812 693.4051513671875 257.9805297851562 C 693.8583984375 257.1014709472656 694.7421264648438 256.8897705078125 694.8413696289062 256.8685302734375 C 694.9089965820312 256.8540649414062 694.9771728515625 256.8469848632812 695.0447998046875 256.8469848632812 Z" stroke="none" fill="#1a1311"/>
    </g>
    <g id="组_2173" data-name="组 2173" transform="translate(690.613 253.403)">
      <path id="路径_12115" data-name="路径 12115" d="M695.206,257.687s-1.63.425-.769,2.435.209,3.744,1.185,4.818,3.845,3.358,8.031-.95S695.25,257.733,695.206,257.687Z" transform="translate(-694.186 -257.687)" fill="#c60041" fill-rule="evenodd"/>
      <g id="组_2172" data-name="组 2172" clip-path="url(#clip-path)">
        <path id="路径_12116" data-name="路径 12116" d="M692.952,257.1a23.976,23.976,0,0,0,4.586,5.684c2.4,1.893,6.924,2.3,6.924,2.3l.3-3.174-10.15-6.257Z" transform="translate(-694.008 -257.394)" fill="#a3003d"/>
        <path id="路径_12117" data-name="路径 12117" d="M694.332,260.672a10.086,10.086,0,0,0,1.7,3.778,4.786,4.786,0,0,0,3.268,1.717c1.236.1,4.424-1.433,4.424-1.433l.216,3.051-6.488.658-3.085-2.863Z" transform="translate(-694.207 -258.118)" fill="#a3003d" fill-rule="evenodd"/>
      </g>
    </g>
    <g id="组_2175" data-name="组 2175" transform="translate(702.576 260.072)">
      <g id="组_2174" data-name="组 2174" transform="translate(0 0)" clip-path="url(#clip-path-2)">
        <path id="路径_12119" data-name="路径 12119" d="M708.2,266.523s2.921,3.411,7.091,3.673c1.882.119,7.809-.776,9.164.087,1.1.7,1.084,1.129,1.084,1.129a5.966,5.966,0,0,0-1.705-.655c-1.794.246-5.88,1.586-7.165,1.189a85.934,85.934,0,0,1-8.092-2.929A11.253,11.253,0,0,1,708.2,266.523Z" transform="translate(-708.172 -265.631)" fill="#a3003d"/>
        <path id="路径_12120" data-name="路径 12120" d="M725.969,266.92a29.786,29.786,0,0,0-7.432.893c-4.879,1.106-9.975-.473-10.152-1.1a3.4,3.4,0,0,0-.69-1.177l7.674-.779,11.355,1.4Z" transform="translate(-708.098 -265.377)" fill="#a3003d"/>
      </g>
    </g>
    <g id="组_2177" data-name="组 2177" transform="translate(711.528 262.665)">
      <g id="组_2176" data-name="组 2176" clip-path="url(#clip-path-3)">
        <path id="路径_12122" data-name="路径 12122" d="M724.469,268.929s.839-3.346-3.947-2.9-7.517,2.5-10.7,1.782,2.689,4.647,7.3,4,7.225-1.322,8.27-.483c1.029.828,3.466,4.4,4.607,15.533a4.272,4.272,0,0,1-.774.209C729.16,284.317,729.706,270.623,724.469,268.929Z" transform="translate(-717.227 -268.147)" fill="#a3003d" fill-rule="evenodd"/>
      </g>
    </g>
    <path id="路径_12124" data-name="路径 12124" d="M722.792,269.29s2.642-3.36-2.634-3.36-8.68.719-12.14-.191c-3.83-1.006.1,7.4,7.747,6.711,4.856-.44,6.482-.874,8.239-.573Z" transform="translate(-5.354 -5.434)" fill="#e0dfde" fill-rule="evenodd"/>
    <g id="路径_12125" data-name="路径 12125" transform="translate(-5.618 -5.088)" fill="#c60041" stroke-linecap="round" stroke-linejoin="round" fill-rule="evenodd">
      <path d="M 727.9590454101562 277.0331420898438 L 727.9429321289062 276.9884643554688 L 727.9256591796875 276.9407043457031 L 727.9135131835938 276.9070129394531 L 727.9064331054688 276.8719177246094 C 727.5977783203125 275.3398132324219 727.1844482421875 274.1217956542969 726.6056518554688 273.0387878417969 C 726.6027221679688 273.0332641601562 726.6001586914062 273.0291748046875 726.59814453125 273.0262451171875 L 726.390625 272.9822082519531 L 726.2842407226562 272.7818603515625 L 726.2655029296875 272.7460021972656 C 726.2579345703125 272.7314147949219 726.2503662109375 272.7166748046875 726.242431640625 272.7025146484375 L 726.2223510742188 272.6666870117188 L 726.2085571289062 272.6279907226562 C 726.0068359375 272.0616760253906 725.8241577148438 271.8679504394531 725.4627685546875 271.5172424316406 C 725.0430297851562 271.1097717285156 724.1688842773438 270.9359130859375 722.539794921875 270.9359130859375 C 721.5465087890625 270.9359130859375 720.2986450195312 270.9994201660156 718.8536987304688 271.0729370117188 C 718.251708984375 271.1035766601562 717.6292114257812 271.1352233886719 716.9549560546875 271.1662292480469 C 716.8565063476562 271.1707458496094 716.7601318359375 271.1729431152344 716.66015625 271.1729431152344 C 715.6024780273438 271.1729431152344 713.4270629882812 270.891845703125 710.7413940429688 269.0093688964844 C 709.3146362304688 268.00927734375 707.875 266.6029357910156 707.875 265.7155151367188 C 707.875 265.4759216308594 707.971923828125 265.2666320800781 708.14794921875 265.1261901855469 C 708.29833984375 265.0061950683594 708.4946899414062 264.9453430175781 708.7315673828125 264.9453430175781 C 708.948974609375 264.9453430175781 709.2074584960938 264.995361328125 709.5218505859375 265.0982360839844 C 709.9298706054688 265.2316589355469 710.3206787109375 265.2965087890625 710.7164306640625 265.2965087890625 C 711.740234375 265.2964477539062 712.6923217773438 264.8508911132812 713.794677734375 264.3349914550781 C 715.2864990234375 263.6368713378906 717.1431274414062 262.7680053710938 719.8292846679688 262.7680053710938 C 722.7913818359375 262.7680053710938 724.2468872070312 264.2710266113281 724.9463500976562 265.5318908691406 C 725.49267578125 266.5167541503906 725.6646118164062 267.4960632324219 725.7181396484375 267.9715881347656 C 726.7481689453125 268.5584716796875 727.545654296875 269.78369140625 728.0911254882812 271.619384765625 C 728.5098266601562 273.0284118652344 728.782470703125 274.7849426269531 728.9014282226562 276.8402709960938 L 727.9590454101562 277.0331420898438 Z" stroke="none"/>
      <path d="M 728.416259765625 276.8683471679688 C 728.2305908203125 273.6611328125 727.5460205078125 269.3098449707031 725.2561645507812 268.2812805175781 C 725.2561645507812 268.2812805175781 725.1055908203125 263.2539978027344 719.8292846679688 263.2539978027344 C 715.2918090820312 263.2539978027344 713.337646484375 265.7823791503906 710.7164306640625 265.7825012207031 C 710.2901000976562 265.7825012207031 709.8463134765625 265.7156372070312 709.3707275390625 265.5601501464844 C 709.1011962890625 265.4719543457031 708.8896484375 265.4313659667969 708.7315673828125 265.4313659667969 C 706.9310302734375 265.4313659667969 712.0337524414062 270.6869506835938 716.66015625 270.6869506835938 C 716.75146484375 270.6869506835938 716.8417358398438 270.6849060058594 716.9326171875 270.6807556152344 C 719.2855224609375 270.5725402832031 721.1311645507812 270.4499206542969 722.539794921875 270.4499206542969 C 724.1839599609375 270.4499206542969 725.2329711914062 270.6168212890625 725.80126953125 271.1684875488281 C 726.2068481445312 271.5621032714844 726.435302734375 271.8162536621094 726.6663818359375 272.4648742675781 C 726.6826782226562 272.4939575195312 726.697998046875 272.5248107910156 726.7134399414062 272.5538940429688 C 726.83837890625 272.5804138183594 726.9547729492188 272.6608581542969 727.0343017578125 272.8097229003906 C 727.7060546875 274.0667724609375 728.1065063476562 275.4042663574219 728.3828735351562 276.7759399414062 C 728.3939819335938 276.8067626953125 728.4051513671875 276.8375244140625 728.416259765625 276.8683471679688 M 728.4157104492188 277.8404541015625 C 728.0133056640625 277.8404541015625 727.6430053710938 277.5894470214844 727.5018920898438 277.1979675292969 L 727.4859008789062 277.15380859375 L 727.4684448242188 277.10546875 C 727.4522705078125 277.0606079101562 727.439453125 277.0146484375 727.4300537109375 276.9679260253906 C 727.1444091796875 275.5502624511719 726.7683715820312 274.4141235351562 726.2509765625 273.4088439941406 C 726.0843505859375 273.3186645507812 725.94580078125 273.1807250976562 725.8550415039062 273.0098266601562 L 725.833984375 272.9696044921875 C 725.828857421875 272.9597473144531 725.8238525390625 272.94970703125 725.8184814453125 272.9401245117188 C 725.7918701171875 272.892578125 725.76904296875 272.8424377441406 725.7507934570312 272.7910766601562 C 725.58642578125 272.3298645019531 725.4614868164062 272.1932067871094 725.1243286132812 271.8659973144531 C 724.6668701171875 271.4219360351562 723.06591796875 271.4219360351562 722.539794921875 271.4219360351562 C 721.5588989257812 271.4219360351562 720.3167724609375 271.4851379394531 718.8785400390625 271.5582885742188 C 718.2759399414062 271.5889587402344 717.6527709960938 271.6206665039062 716.9772338867188 271.6517333984375 C 716.8712768554688 271.6565856933594 716.767578125 271.658935546875 716.66015625 271.658935546875 C 714.0625610351562 271.658935546875 711.662109375 270.2482299804688 710.4624633789062 269.4073486328125 C 709.94921875 269.047607421875 707.3889770507812 267.1788940429688 707.3889770507812 265.7155151367188 C 707.3889770507812 265.3306884765625 707.5551147460938 264.9774169921875 707.8448486328125 264.7462768554688 C 708.0834350585938 264.555908203125 708.3817749023438 264.4593505859375 708.7315673828125 264.4593505859375 C 709.0010986328125 264.4593505859375 709.30908203125 264.5172424316406 709.6730346679688 264.6363525390625 C 710.0314331054688 264.7535400390625 710.3727416992188 264.8105163574219 710.7163696289062 264.8104858398438 C 711.6321411132812 264.8104553222656 712.4955444335938 264.4063720703125 713.5886840820312 263.8948059082031 C 715.1241455078125 263.17626953125 717.0350341796875 262.281982421875 719.8292846679688 262.281982421875 C 723.0278930664062 262.281982421875 724.6085815429688 263.9211120605469 725.371337890625 265.296142578125 C 725.8746948242188 266.2035522460938 726.0828247070312 267.1117248535156 726.16845703125 267.6777038574219 C 728.0245971679688 268.9019165039062 729.1062622070312 271.9694213867188 729.3866577148438 276.8121643066406 C 729.41455078125 277.2942810058594 729.0842895507812 277.7237548828125 728.6112060546875 277.8205871582031 C 728.5457763671875 277.833984375 728.4802856445312 277.8404541015625 728.4157104492188 277.8404541015625 Z" stroke="none" fill="#1a1311"/>
    </g>
    <g id="组_2179" data-name="组 2179" transform="translate(711.713 262.139)">
      <g id="组_2178" data-name="组 2178" transform="translate(0 0)" clip-path="url(#clip-path-4)">
        <path id="路径_12126" data-name="路径 12126" d="M725.256,268.519a3.479,3.479,0,0,0-4.015-3.57c-5.263.371-8.471,1.961-11.87.849s2.462,5.355,7.562,5.121,8.031-.7,9.086.322c1.04,1.01,3.335,5.163,3.438,17.446a4.676,4.676,0,0,1-.867.148C728.8,285.815,729.963,270.978,725.256,268.519Z" transform="translate(-717.331 -267.469)" fill="#a3003d" fill-rule="evenodd"/>
      </g>
    </g>
    <g id="组_2181" data-name="组 2181" transform="translate(702.737 258.166)">
      <g id="组_2180" data-name="组 2180" transform="translate(0 0)" clip-path="url(#clip-path-5)">
        <path id="路径_12128" data-name="路径 12128" d="M725.508,266.3a9.56,9.56,0,0,0-7.991-1.358c-5.131,1.251-9.9.944-10.086.239s-1.245-.761-1.245-.761l10.165-3.309L726,264.324Z" transform="translate(-708.042 -262.945)" fill="#a3003d"/>
        <path id="路径_12129" data-name="路径 12129" d="M708.393,266.136s3.072,3.858,7.457,4.155c1.979.133,8.211-.878,9.636.1a3.457,3.457,0,0,1,1.207,2.506s-1.451-1.652-1.848-1.593c-1.887.278-6.872,1.732-8.223,1.282a60.588,60.588,0,0,1-7.832-3.628A13.593,13.593,0,0,1,708.393,266.136Z" transform="translate(-708.36 -263.67)" fill="#a3003d"/>
      </g>
    </g>
    <ellipse id="椭圆_627" data-name="椭圆 627" cx="12.549" cy="14.944" rx="12.549" ry="14.944" transform="translate(688.188 259.872) rotate(-85.359)" fill="#dfdfdf" stroke="#1a1311" stroke-linecap="round" stroke-linejoin="round" stroke-width="0.972"/>
    <path id="路径_12131" data-name="路径 12131" d="M721.459,250.766c-.534,6.586-7.429,11.4-15.4,10.755s-13.513-5.854-12.979-12.441,6.862-11.986,15.635-11.1C717.118,238.835,721.994,244.179,721.459,250.766Z" transform="translate(-3.408 -1.427)" fill="#fff"/>
    <path id="路径_12132" data-name="路径 12132" d="M716.176,247.486l-2.262-.522,1.964-1.167a.441.441,0,1,0-.451-.758l-3.047,1.812a.441.441,0,0,0-.116.658l2.05,2.514a.441.441,0,1,0,.684-.557l-1.351-1.658,2.331.537a.428.428,0,0,0,.073.011.441.441,0,0,0,.126-.87Z" transform="translate(-6.167 -2.45)" fill="#e0dfde"/>
    <ellipse id="椭圆_628" data-name="椭圆 628" cx="1.297" cy="2.394" rx="1.297" ry="2.394" transform="translate(708.718 251.132) rotate(-85.359)" fill="#e59daf"/>
    <path id="路径_12133" data-name="路径 12133" d="M715.372,245.145l-3.048,1.812,2.05,2.514" transform="translate(-6.19 -2.475)" fill="none" stroke="#00267f" stroke-linecap="round" stroke-linejoin="round" stroke-width="0.972"/>
    <path id="路径_12134" data-name="路径 12134" d="M727.816,271.729a.147.147,0,0,0,.013.176,9.643,9.643,0,0,1,1.065,2.044,21.823,21.823,0,0,1,1.349,4.425c.183.664.305,1.494.388,1.9.582,2.86.984-.387.984-.387l-.972-6.175s-.605-2.735-1.552-2.509C728.2,271.419,727.907,271.608,727.816,271.729Z" transform="translate(-8.422 -6.233)" fill="#c60041" fill-rule="evenodd"/>
    <path id="路径_12135" data-name="路径 12135" d="M703.663,245.233a5.705,5.705,0,0,1,.786-.472,2.734,2.734,0,0,0,0-.689c-.033-.207-.109-.443-.13-.6.253.086.455.775.7.928a1.351,1.351,0,0,0,.367-.208c.219-.221-.365-.928-.527-1.107a1.934,1.934,0,0,0-3.2.342,4.023,4.023,0,0,0-.362,3.822,1.331,1.331,0,0,0,1.468.919A1.882,1.882,0,0,0,704,246.946c.5-1.221.318-1.1-.188-1.533a1.13,1.13,0,0,1-.084-.077c-.067-.077-.033-.032-.069-.1" transform="translate(-4.55 -2.076)" fill="#e0dfde" fill-rule="evenodd"/>
    <path id="路径_12136" data-name="路径 12136" d="M703.263,245.078a5.624,5.624,0,0,1,.786-.472,2.741,2.741,0,0,0,0-.69c-.033-.207-.11-.443-.13-.6.253.086.455.775.7.929a1.353,1.353,0,0,0,.367-.208c.219-.221-.365-.929-.527-1.108a1.933,1.933,0,0,0-3.2.343,4.019,4.019,0,0,0-.363,3.821,1.33,1.33,0,0,0,1.468.919,1.877,1.877,0,0,0,1.251-1.225c.5-1.221.319-1.1-.188-1.533a1.125,1.125,0,0,1-.084-.077c-.067-.077-.033-.031-.069-.1" transform="translate(-4.493 -2.054)" fill="#00267f" fill-rule="evenodd"/>
    <path id="路径_12137" data-name="路径 12137" d="M703.456,244.281a.511.511,0,1,1-.376-.714A.581.581,0,0,1,703.456,244.281Z" transform="translate(-4.768 -2.246)" fill="#fff" fill-rule="evenodd"/>
    <path id="路径_12138" data-name="路径 12138" d="M702.1,245.793a.354.354,0,1,1-.26-.5A.4.4,0,0,1,702.1,245.793Z" transform="translate(-4.616 -2.496)" fill="#fff" fill-rule="evenodd"/>
    <line id="直线_653" data-name="直线 653" x1="3.299" y1="0.761" transform="translate(706.306 244.408)" fill="none" stroke="#00267f" stroke-linecap="round" stroke-linejoin="round" stroke-width="0.972"/>
    <path id="路径_12139" data-name="路径 12139" d="M724.174,279.675c-3.172,5.38-11.9,5.5-14.926,2.867-4.152-3.608,1.231-6.467,3.113-5.935s4.231.2,5.036-.507" transform="translate(-5.525 -6.941)" fill="#e0dfde"/>
    <path id="路径_12140" data-name="路径 12140" d="M724.14,278.841c-3.236,3.751-11.376,5.741-14.587,1.592-2.315-2.99,1.468-5.063,3.265-4.617s4.325-1.028,5.109-1.681" transform="translate(-5.685 -6.658)" fill="#fff" stroke="#1a1311" stroke-linecap="round" stroke-linejoin="round" stroke-width="0.972"/>
    <g id="组_2182" data-name="组 2182" transform="translate(695.183 244.923)">
      <path id="路径_12141" data-name="路径 12141" d="M700.334,248.462s-.554-.021-.422.428a6.516,6.516,0,0,0,4.648,4c3.532,1.006,4.413-1.476,4.4-2.67a2.45,2.45,0,0,0-3.259-2.15c-1.9.632-1.445,1.042-5.365.387" transform="translate(-699.579 -247.799)" fill="#e0dfde" fill-rule="evenodd"/>
      <path id="路径_12142" data-name="路径 12142" d="M699.968,248.308s-.555-.021-.422.428a6.514,6.514,0,0,0,4.648,4c3.531,1.006,4.412-1.476,4.4-2.671a2.45,2.45,0,0,0-3.259-2.149c-1.9.632-1.444,1.042-5.364.387" transform="translate(-699.526 -247.777)" fill="#e57c00" fill-rule="evenodd"/>
      <path id="路径_12143" data-name="路径 12143" d="M702.739,251.052a12.141,12.141,0,0,1-3.187-2.15,6.522,6.522,0,0,0,4.646,4c2,.571,3.153.019,3.771-.784A12.951,12.951,0,0,1,702.739,251.052Z" transform="translate(-699.529 -247.94)" fill="#d5620c" fill-rule="evenodd"/>
      <path id="路径_12144" data-name="路径 12144" d="M702.995,249.221s.861.668,1.13.626.19-.8.4-.833,1.185.629,1.185.629" transform="translate(-700.026 -247.955)" fill="none" stroke="#fff" stroke-linecap="round" stroke-miterlimit="10" stroke-width="0.111" fill-rule="evenodd"/>
    </g>
    <ellipse id="椭圆_629" data-name="椭圆 629" cx="1.297" cy="2.394" rx="1.297" ry="2.394" transform="translate(690.7 249.548) rotate(-85.359)" fill="#e59daf"/>
    <path id="路径_12145" data-name="路径 12145" d="M699.68,254.007a7.334,7.334,0,0,0,5.7,3.87c4.233.561,5.557-.851,5.557-.851" transform="translate(-4.365 -3.753)" fill="none" stroke="#00267f" stroke-linecap="round" stroke-linejoin="round" stroke-width="0.972"/>
    <path id="路径_12146" data-name="路径 12146" d="M711.589,257.394a6.769,6.769,0,0,0,1.531-2.986c.5-1.971,2.141-1.874,3.158-.917,1.053.99.029,2.528-1.225,3.194a6.57,6.57,0,0,1-3.464.709" transform="translate(-6.084 -3.583)" fill="#c60041" fill-rule="evenodd"/>
    <path id="路径_12147" data-name="路径 12147" d="M727.614,271.827s.183-.042.683.626a12.987,12.987,0,0,1,1.716,2.953c.036.356-.46-3.281-1.473-4.042C728.131,271.056,727.614,271.827,727.614,271.827Z" transform="translate(-8.396 -6.247)" fill="#a3003d" fill-rule="evenodd"/>
    <path id="路径_12148" data-name="路径 12148" d="M682.469,255.944a4.7,4.7,0,0,0,.074,3.4c.739,1.96,2.367,4.929,6.693,8.318C688.045,265.4,682.226,261.534,682.469,255.944Z" transform="translate(-1.842 -4.033)" fill="#e0dfde" fill-rule="evenodd"/>
  </g>
</svg>
