<svg xmlns="http://www.w3.org/2000/svg" viewBox="0 0 10.91 6.15"><defs><style>.cls-1{fill:#e40055;}</style></defs><title>资源 4</title><g id="图层_2" data-name="图层 2"><g id="图层_1-2" data-name="图层 1"><path id="路径_946" data-name="路径 946" class="cls-1" d="M5.46,0h0a1.42,1.42,0,0,0-1,.43A1.48,1.48,0,0,0,4,1.48,1.53,1.53,0,0,0,4.52,2.6c-.13.67-.36,1.08-.61,1.1h0A1.77,1.77,0,0,1,2.72,3a1.42,1.42,0,0,0,.16-.86A1.47,1.47,0,0,0,1.52.79H1.45a1.42,1.42,0,0,0-1,.43,1.49,1.49,0,0,0,0,2.11,1.43,1.43,0,0,0,.69.38l.72,2c-1.86.58,9.05.58,7.19,0l.72-2A1.48,1.48,0,0,0,9.54.79H9.47A1.46,1.46,0,0,0,8,2.27,1.58,1.58,0,0,0,8.19,3,1.79,1.79,0,0,1,7,3.7H7c-.25,0-.48-.42-.6-1.1A1.46,1.46,0,0,0,6.59.54,1.48,1.48,0,0,0,5.46,0Z"/></g></g></svg>