<svg xmlns="http://www.w3.org/2000/svg" width="76.244" height="80.509" viewBox="0 0 76.244 80.509">
  <g id="组_2563" data-name="组 2563" transform="translate(-921.697 -4632.001)">
    <g id="组_1935" data-name="组 1935" transform="translate(23767.309 9490.602)">
      <path id="路径_4243" data-name="路径 4243" d="M693.841,6681.276l1.562,1.413,8.726-1.886,1.639-5.088a.381.381,0,0,1,.389-.261h.141a1.356,1.356,0,1,0-1.484-1.35,1.264,1.264,0,0,0,.12.53.361.361,0,0,1,0,.339c-.226.424-.918,1.7-2.24,1.229a6.124,6.124,0,0,1-2.827-2.862.374.374,0,0,1,.12-.452,1.35,1.35,0,0,0,.707-1.3,1.95,1.95,0,0,0-1.844-1.689,1.915,1.915,0,0,0-1.837,1.689,1.463,1.463,0,0,0,.926,1.456.382.382,0,0,1,.163.495,6.046,6.046,0,0,1-2.12,2.537,2.479,2.479,0,0,1-1.781-.177c-.268-.084-.572-.183-.911-.275a.391.391,0,0,1-.24-.191.382.382,0,0,1,0-.3,1.248,1.248,0,0,0,.085-.452,1.491,1.491,0,1,0-1.484,1.356h.191a.368.368,0,0,1,.4.255Z" transform="translate(-23507.301 -11527.752)" fill="#fff" fill-rule="evenodd"/>
      <path id="路径_4244" data-name="路径 4244" d="M668.09,6740.2s-6.7,12.252-6.8,22.477c0,0-2.021,3.809,17.523,4.24s25.063-.841,25.063-.841,15.185-1.675,15.6-4.946-5.165-18.6-6.359-20.943S668.132,6740.127,668.09,6740.2Z" transform="translate(-23498.811 -11548.064)" fill="#d41652" fill-rule="evenodd"/>
      <path id="路径_4245" data-name="路径 4245" d="M661.131,6762.528Zm.339.17a.642.642,0,0,0,.12.544c.537.841,3.286,2.827,17.071,3.137,19.233.41,24.914-.82,24.971-.827h.042c.035,0,3.823-.424,7.61-1.236,6.705-1.413,7.589-2.826,7.659-3.356.4-3.095-5.059-18.244-6.359-20.71,0-.042-.346-.3-2.183-.509-1.251-.142-3.01-.248-5.222-.3-3.759-.092-8.854-.063-15.135.1-10.231.262-20.392.784-21.9.883a74.269,74.269,0,0,0-3.257,7.193c-1.526,3.928-3.356,9.708-3.413,14.937a.263.263,0,0,1-.035.163Zm24.8,4.515c-2.268,0-4.8,0-7.624-.085-10.373-.226-16.5-1.448-17.728-3.533a1.343,1.343,0,0,1-.162-1.124c.071-5.32,1.922-11.164,3.469-15.142a69.828,69.828,0,0,1,3.384-7.448.333.333,0,0,1,.064-.085c.106-.105.127-.105.643-.141l1.138-.063,4.077-.205c3-.134,7.674-.339,12.916-.5,8.9-.276,20.42-.459,24.787.205,1.244.19,1.83.424,2.028.8a100.331,100.331,0,0,1,3.83,10.189c1.321,3.985,2.826,9.129,2.6,10.98-.2,1.541-2.9,2.827-8.253,3.992-3.681.792-7.356,1.216-7.666,1.251s-4.579.911-17.5.911Z" transform="translate(-23498.656 -11547.92)" fill="#070001" fill-rule="evenodd"/>
      <path id="路径_4246" data-name="路径 4246" d="M693.066,6710.54c12.719,0,23,14.958,23,28.97s-10.3,21.728-23,21.728-23.006-7.73-23.006-21.728S680.362,6710.54,693.066,6710.54Z" transform="translate(-23501.404 -11539.676)" fill="#fff" fill-rule="evenodd"/>
      <path id="路径_4247" data-name="路径 4247" d="M692.961,6710c6.26,0,11.941,3.533,16.138,8.832a33.921,33.921,0,0,1,7.235,20.491c0,6.84-2.424,12.217-6.359,15.955-4.24,4.027-10.3,6.147-16.958,6.147s-12.719-2.12-16.958-6.147c-3.964-3.738-6.359-9.115-6.359-15.955a33.916,33.916,0,0,1,7.235-20.49c4.2-5.279,9.892-8.833,16.145-8.833Zm15.545,9.3c-4.063-5.108-9.539-8.55-15.545-8.55s-11.5,3.441-15.545,8.55a33.209,33.209,0,0,0-7.066,20.031c0,6.621,2.339,11.808,6.147,15.411,4.126,3.894,9.984,5.942,16.485,5.942s12.351-2.049,16.478-5.942c3.808-3.6,6.147-8.79,6.147-15.411a33.208,33.208,0,0,0-7.094-20.024Z" transform="translate(-23501.297 -11539.518)" fill="#070001" fill-rule="evenodd"/>
      <path id="路径_4248" data-name="路径 4248" d="M693.607,6680.965l1.562,1.413,8.726-1.886,1.639-5.088a.381.381,0,0,1,.389-.261h.141a1.356,1.356,0,1,0-1.484-1.35,1.264,1.264,0,0,0,.12.53.361.361,0,0,1,0,.339c-.226.424-.918,1.7-2.24,1.229a6.124,6.124,0,0,1-2.826-2.862.374.374,0,0,1,.12-.452,1.35,1.35,0,0,0,.707-1.3,1.95,1.95,0,0,0-1.844-1.689,1.915,1.915,0,0,0-1.837,1.689,1.463,1.463,0,0,0,.925,1.456.382.382,0,0,1,.163.495,6.046,6.046,0,0,1-2.12,2.537,2.479,2.479,0,0,1-1.781-.177c-.268-.084-.572-.183-.911-.275a.39.39,0,0,1-.24-.191.382.382,0,0,1,0-.3,1.248,1.248,0,0,0,.085-.452,1.491,1.491,0,1,0-1.484,1.356h.191a.368.368,0,0,1,.4.255l1.618,4.988Zm1.413,2.2a.368.368,0,0,1-.247-.1l-.9-.806-.608-.559-.2-.19a.544.544,0,0,1-.184-.255l-1.547-4.776a2.12,2.12,0,1,1,2.268-2.12,1.645,1.645,0,0,1,0,.325l.594.184c.586.191.975.318,1.244.2a5.293,5.293,0,0,0,1.562-1.865,2.119,2.119,0,0,1-1-1.929,2.65,2.65,0,0,1,2.586-2.438,2.686,2.686,0,0,1,2.593,2.438,2,2,0,0,1-.707,1.709,5.516,5.516,0,0,0,2.233,2.2c.353.12.749.113,1.244-.707a1.927,1.927,0,0,1-.113-.664,2.24,2.24,0,1,1,2.346,2.118l-1.618,5.032a.359.359,0,0,1-.283.247l-9.122,1.979Z" transform="translate(-23507.066 -11527.44)" fill="#070001" fill-rule="evenodd"/>
      <path id="路径_4249" data-name="路径 4249" d="M694.991,6684.76c10.154,0,18.371,6.826,18.371,15.255s-8.239,15.255-18.371,15.255-18.371-6.826-18.371-15.255S684.831,6684.76,694.991,6684.76Z" transform="translate(-23503.328 -11532.111)" fill="#fff" fill-rule="evenodd"/>
      <path id="路径_4250" data-name="路径 4250" d="M694.824,6685c-9.942,0-18.025,6.677-18.025,14.881s8.083,14.88,18.025,14.88,18.018-6.677,18.018-14.88S704.759,6685,694.824,6685Zm0,30.51a20.7,20.7,0,0,1-13.248-4.55,15.747,15.747,0,0,1-4.035-4.946,13.278,13.278,0,0,1,0-12.224,15.744,15.744,0,0,1,4.035-4.946,21.551,21.551,0,0,1,26.49,0,15.858,15.858,0,0,1,4.042,4.946,13.327,13.327,0,0,1,0,12.224,15.875,15.875,0,0,1-4.042,4.946,20.687,20.687,0,0,1-13.241,4.55Z" transform="translate(-23503.16 -11531.974)" fill="#070001" fill-rule="evenodd"/>
      <path id="路径_4251" data-name="路径 4251" d="M695.868,6708.31c.509-.445,7.25-2.275,11.51.134,0,0-.254,9.892-5.589,9.8S695.8,6708.479,695.868,6708.31Z" transform="translate(-23508.975 -11538.703)" fill="#d41652" fill-rule="evenodd"/>
      <path id="路径_4252" data-name="路径 4252" d="M702.556,6689.92c1-.035,3.109,5.568,3.321,6.635a2.955,2.955,0,0,1-3.455,3.456c-3.172-.226-3.49-2.41-2.671-4.664S701.107,6689.885,702.556,6689.92Z" transform="translate(-23510.002 -11533.625)" fill="#de5916" fill-rule="evenodd"/>
      <path id="路径_4253" data-name="路径 4253" d="M714.153,6699.693a.405.405,0,0,1-.247-.085l-3.476-2.7a.417.417,0,0,1,0-.671l3.377-2.183a.424.424,0,0,1,.572.127.41.41,0,0,1-.12.573l-2.89,1.865,3.01,2.339a.411.411,0,0,1,.078.58A.418.418,0,0,1,714.153,6699.693Z" transform="translate(-23513.199 -11534.82)" fill="#0b318f" fill-rule="evenodd"/>
      <path id="路径_4254" data-name="路径 4254" d="M714.907,6698.106h0l-4.451-.17a.4.4,0,0,1-.4-.424.418.418,0,0,1,.424-.4l4.452.17a.413.413,0,0,1-.028.826Z" transform="translate(-23513.139 -11535.734)" fill="#0b318f" fill-rule="evenodd"/>
      <path id="路径_4255" data-name="路径 4255" d="M678.5,6721.379c1.01-1.639,1.413-2.508,4.5-1.95s10.9,5.921,10.9,5.921-8.705,2.558-16.068-2.014C677.836,6723.316,675.808,6722.044,678.5,6721.379Z" transform="translate(-23503.471 -11542.234)" fill="#d41652" fill-rule="evenodd"/>
      <path id="路径_4256" data-name="路径 4256" d="M678.344,6721.248Zm-.466,1.639a19.455,19.455,0,0,0,10.6,2.664,24.024,24.024,0,0,0,4.381-.495c-1.979-1.322-7.617-4.946-10.048-5.391-2.713-.5-3.095.127-4.013,1.618l-.1.163a.36.36,0,0,1-.233.169c-.77.191-1.081.431-1.1.58s.3.53.551.707Zm10.069,3.42a21.944,21.944,0,0,1-4.727-.495,18.055,18.055,0,0,1-5.738-2.29c-.106-.071-1.024-.707-.9-1.413.085-.516.579-.9,1.519-1.152h0a4.5,4.5,0,0,1,1.59-1.816,4.9,4.9,0,0,1,3.2-.155c3.116.565,10.726,5.766,11.051,5.985a.387.387,0,0,1,.155.367.374.374,0,0,1-.262.3,22.218,22.218,0,0,1-5.37.707Z" transform="translate(-23503.314 -11542.103)" fill="#070001" fill-rule="evenodd"/>
      <path id="路径_4257" data-name="路径 4257" d="M708.62,6725.172a15.545,15.545,0,0,1,7.772-4.784c4.7-1.025,4.522.509,4.628,1.413a2.24,2.24,0,0,1,2.53,1.619C724.115,6725.349,714.061,6726.218,708.62,6725.172Z" transform="translate(-23512.717 -11542.466)" fill="#d41652" fill-rule="evenodd"/>
      <path id="路径_4258" data-name="路径 4258" d="M709.205,6724.773a36.911,36.911,0,0,0,7.907.212c2.982-.226,5.271-.777,5.836-1.413.12-.134.1-.205.092-.24a1.858,1.858,0,0,0-2.12-1.356.375.375,0,0,1-.283-.071.382.382,0,0,1-.148-.254,1.494,1.494,0,0,1,0-.184,1.161,1.161,0,0,0-.375-.926c-.283-.219-1.336-.487-3.78.049a14.987,14.987,0,0,0-7.122,4.162Zm4.8,1.081a30.517,30.517,0,0,1-5.61-.459.352.352,0,0,1-.283-.24.368.368,0,0,1,.064-.368,14.872,14.872,0,0,1,2.19-2.056,14.709,14.709,0,0,1,5.8-2.826c2.247-.488,3.639-.467,4.388.077a1.687,1.687,0,0,1,.65,1.272,3.221,3.221,0,0,1,.827.12,2.431,2.431,0,0,1,1.731,1.8.961.961,0,0,1-.255.954c-1.024,1.117-4.769,1.512-6.359,1.632-1.032.05-2.106.092-3.144.092Z" transform="translate(-23512.561 -11542.321)" fill="#070001" fill-rule="evenodd"/>
      <path id="路径_4259" data-name="路径 4259" d="M674.03,6722.605a22.27,22.27,0,0,1-4.989-7.157c-1.6-4.049-6.981-2.968-6.981,1.922s5.653,14.7,7.4,16.506S674.1,6722.57,674.03,6722.605Z" transform="translate(-23499.057 -11540.387)" fill="#fff" fill-rule="evenodd"/>
      <path id="路径_4260" data-name="路径 4260" d="M674.088,6722.157a.374.374,0,0,1-.5.551,22.67,22.67,0,0,1-5.087-7.292,3.457,3.457,0,0,0-2-2.12,2.913,2.913,0,0,0-1.554-.1,3.058,3.058,0,0,0-1.413.706,4.24,4.24,0,0,0-1.265,3.237c0,1.957.94,4.755,2.169,7.489a39.871,39.871,0,0,0,5.123,8.755.377.377,0,0,1-.537.53,40.176,40.176,0,0,1-5.271-8.98c-1.265-2.827-2.233-5.724-2.233-7.772a4.947,4.947,0,0,1,1.512-3.787,3.846,3.846,0,0,1,1.788-.918,3.654,3.654,0,0,1,1.964.134,4.169,4.169,0,0,1,2.438,2.515,21.792,21.792,0,0,0,4.868,7.058Z" transform="translate(-23498.896 -11540.214)" fill="#070001" fill-rule="evenodd"/>
      <path id="路径_4261" data-name="路径 4261" d="M727.146,6722.758s4.049-4.3,4.883-7.193a3.221,3.221,0,0,1,6.147-.134c1.364,3.109,1.413,8.161-7.363,18.7S727.146,6722.793,727.146,6722.758Z" transform="translate(-23517.719 -11540.469)" fill="#fff" fill-rule="evenodd"/>
      <path id="路径_4262" data-name="路径 4262" d="M731.267,6734.345a.381.381,0,0,1-.24-.085.374.374,0,0,1-.049-.53c9.009-10.8,8.479-15.623,7.306-18.314a3.01,3.01,0,0,0-2.953-1.957,2.735,2.735,0,0,0-2.48,2.048c-.855,2.947-4.946,7.405-5.116,7.6a.375.375,0,1,1-.53-.53c.042-.042,4.14-4.515,4.946-7.3a3.533,3.533,0,0,1,3.158-2.586,3.765,3.765,0,0,1,3.7,2.4,9.4,9.4,0,0,1,.141,6.826c-1.053,3.42-3.533,7.434-7.568,12.273A.353.353,0,0,1,731.267,6734.345Z" transform="translate(-23518.139 -11540.305)" fill="#070001" fill-rule="evenodd"/>
      <path id="路径_4263" data-name="路径 4263" d="M696.73,6713.232s1.781-1.675,5.533-1.413,4.734,1.229,4.734,1.229l-.869,3.879-2.021,2.2-2.417.495-2.579-1.081-1.964-3.83S696.758,6713.274,696.73,6713.232Z" transform="translate(-23509.229 -11540.043)" fill="#e68d87" fill-rule="evenodd"/>
      <path id="路径_4264" data-name="路径 4264" d="M696.1,6708.371a19.664,19.664,0,0,0,.48,3.109,11.3,11.3,0,0,0,2.247,4.89,3.864,3.864,0,0,0,2.826,1.342h.071c4.416,0,5.045-7.772,5.123-9.186a12.433,12.433,0,0,0-6.663-.989,15.083,15.083,0,0,0-4.084.854Zm5.653,10.09h-.092A4.887,4.887,0,0,1,697.62,6716a14.734,14.734,0,0,1-1.886-5c-.17-.834-.254-1.541-.3-1.979-.085-.848-.042-.946,0-1.01a.338.338,0,0,1,.1-.141,12.254,12.254,0,0,1,4.557-1.1,12.918,12.918,0,0,1,7.384,1.187.39.39,0,0,1,.191.332,21.788,21.788,0,0,1-.813,5.038c-1.039,3.357-2.8,5.13-5.123,5.13Z" transform="translate(-23508.832 -11538.546)" fill="#fff" fill-rule="evenodd"/>
      <path id="路径_4265" data-name="路径 4265" d="M693.623,6695.369c.057-.163.318-.353.445-.452a6.068,6.068,0,0,0,.48-.388,4.505,4.505,0,0,0-.473-1.653c.473.176.784.968,1.18,1.066.346-.4.643-.375.212-.9a4.694,4.694,0,0,0-.82-.812,2.6,2.6,0,0,0-2.5-.424,3.209,3.209,0,0,0-1.569,1.675,5.609,5.609,0,0,0-.375,2.784c.148,1.293,1.124,3.809,2.9,3.123,1.413-.53,1.646-2.9,1.526-3.342C694.57,6695.842,693.857,6695.531,693.623,6695.369Z" transform="translate(-23507.303 -11534.135)" fill="#0b318f" fill-rule="evenodd"/>
      <path id="路径_4266" data-name="路径 4266" d="M654.456,6704.6l9.235,10.175s1.145.939,1.166-1.031-2.685-13.821-2.685-13.821-1.413-.579-4.89,1.258S654.435,6704.615,654.456,6704.6Z" transform="translate(-23496.809 -11536.535)" fill="#e8b347" fill-rule="evenodd"/>
      <path id="路径_4267" data-name="路径 4267" d="M662.885,6701.31a19.13,19.13,0,0,1-2.2,8.479l.516.3a19.783,19.783,0,0,0,2.282-8.762Z" transform="translate(-23498.65 -11536.967)" fill="#d99b20" fill-rule="evenodd"/>
      <path id="路径_4268" data-name="路径 4268" d="M665.636,6706.12s-.48,5.328-2.176,7.151l.438.4c1.837-1.964,2.332-7.49,2.339-7.5Z" transform="translate(-23499.467 -11538.379)" fill="#d99b20" fill-rule="evenodd"/>
      <path id="路径_4269" data-name="路径 4269" d="M667.227,6713.61s-.064,2.918-.9,4.1l.488.346c.94-1.335,1.01-4.416,1.01-4.43Z" transform="translate(-23500.309 -11540.576)" fill="#d99b20" fill-rule="evenodd"/>
      <path id="路径_4270" data-name="路径 4270" d="M659.69,6703.933a14.95,14.95,0,0,0,4.762,1.413v-.6a14.55,14.55,0,0,1-4.529-1.335Z" transform="translate(-23498.361 -11537.584)" fill="#d99b20" fill-rule="evenodd"/>
      <path id="路径_4271" data-name="路径 4271" d="M655.21,6706.122a31.755,31.755,0,0,0,8.719,3.532l.155-.579a31.016,31.016,0,0,1-8.543-3.455Z" transform="translate(-23497.047 -11538.232)" fill="#d99b20" fill-rule="evenodd"/>
      <path id="路径_4272" data-name="路径 4272" d="M658.42,6711.714s3.6,2.826,7.115,2.89v-.593c-3.314-.063-6.741-2.763-6.748-2.77Z" transform="translate(-23497.988 -11539.881)" fill="#d99b20" fill-rule="evenodd"/>
      <path id="路径_4273" data-name="路径 4273" d="M664.71,6718.234s2.19,1.038,3.236.452l-.3-.523c-.77.431-2.678-.466-2.685-.474Z" transform="translate(-23499.834 -11541.773)" fill="#d99b20" fill-rule="evenodd"/>
      <path id="路径_4274" data-name="路径 4274" d="M663.794,6714.352c.106.078.276.148.339.12s.191-.105.2-.876c0-1.76-2.254-11.85-2.628-13.511-.459-.063-1.837-.07-4.395,1.279-2.325,1.223-2.77,2.382-2.671,2.89h0l9.15,10.09Zm.3.877a1.409,1.409,0,0,1-.8-.312l-.042-.035-9.186-10.111h0a.6.6,0,0,1-.155-.282,2,2,0,0,1,.311-1.484,6.7,6.7,0,0,1,2.734-2.282c3.533-1.865,5.045-1.342,5.208-1.271a.346.346,0,0,1,.219.262c.113.487,2.72,11.913,2.7,13.912,0,.841-.212,1.351-.629,1.548A.812.812,0,0,1,664.1,6715.229Z" transform="translate(-23496.656 -11536.387)" fill="#070001" fill-rule="evenodd"/>
      <path id="路径_4275" data-name="路径 4275" d="M650.38,6692.049a6.579,6.579,0,0,1,7.836,1.045,2.128,2.128,0,0,1,1.554,2.028s1.724.855,1.258,2.078-7.822,4.55-7.822,4.55a1.6,1.6,0,0,1-.707-2.2s-2.007-1.2-.487-2.827a1.413,1.413,0,0,1-.283-1.865C652.373,6693.675,652.267,6692.8,650.38,6692.049Z" transform="translate(-23495.629 -11534.003)" fill="#fff" fill-rule="evenodd"/>
      <path id="路径_4276" data-name="路径 4276" d="M651.106,6691.89a2.26,2.26,0,0,1,1.109,1.138,2.318,2.318,0,0,1-.276,1.844,1.067,1.067,0,0,0,.177,1.413.359.359,0,0,1,.141.269.331.331,0,0,1-.1.282,1.413,1.413,0,0,0-.452,1.1,1.97,1.97,0,0,0,.862,1.152.375.375,0,0,1,.141.495,1.173,1.173,0,0,0,.375,1.6c.516-.233,2.014-.933,3.533-1.724,3.483-1.816,3.865-2.431,3.907-2.537.346-.9-1.06-1.6-1.074-1.6a.374.374,0,0,1-.2-.36,1.752,1.752,0,0,0-1.286-1.646.341.341,0,0,1-.155-.085,5.973,5.973,0,0,0-5.01-1.752,7,7,0,0,0-1.689.431Zm1.95,10.083a.381.381,0,0,1-.177-.049,1.943,1.943,0,0,1-.968-2.4,2.451,2.451,0,0,1-.954-1.491,1.972,1.972,0,0,1,.424-1.448,1.851,1.851,0,0,1-.106-2.049,1.6,1.6,0,0,0,.24-1.244c-.148-.381-.615-.707-1.413-1.046a.4.4,0,0,1-.233-.318.368.368,0,0,1,.177-.354,7.275,7.275,0,0,1,2.671-.862,6.77,6.77,0,0,1,5.554,1.894,2.473,2.473,0,0,1,1.738,2.12c.509.3,1.71,1.188,1.229,2.431-.092.248-.346.9-4.24,2.933-1.887.982-3.731,1.823-3.752,1.83a.424.424,0,0,1-.191.056Z" transform="translate(-23495.479 -11533.843)" fill="#070001" fill-rule="evenodd"/>
      <path id="路径_4277" data-name="路径 4277" d="M651.56,6692.39s2.431-.084,2.523,1.809.53,1.83,2.12.968.572,1.145-1.032,1.8-.763,2.459.558,1.569,2.544-1.448,3.081-1.872,2.339,1.413-.092,2.494a22.492,22.492,0,0,0-4.4,2.734s-.558.459-.848.114a8.179,8.179,0,0,1-.664-1.145l.078-.939-.933-1.194.254-1.194.127-.636-.4-.968.48-1.569-.254-1.208A7.982,7.982,0,0,1,651.56,6692.39Z" transform="translate(-23495.975 -11534.351)" fill="#f6e9d3" fill-rule="evenodd"/>
      <path id="路径_4278" data-name="路径 4278" d="M651.106,6691.89a2.26,2.26,0,0,1,1.109,1.138,2.318,2.318,0,0,1-.276,1.844,1.067,1.067,0,0,0,.177,1.413.359.359,0,0,1,.141.269.331.331,0,0,1-.1.282,1.413,1.413,0,0,0-.452,1.1,1.97,1.97,0,0,0,.862,1.152.375.375,0,0,1,.141.495,1.173,1.173,0,0,0,.375,1.6c.516-.233,2.014-.933,3.533-1.724,3.483-1.816,3.865-2.431,3.907-2.537.346-.9-1.06-1.6-1.074-1.6a.374.374,0,0,1-.2-.36,1.752,1.752,0,0,0-1.286-1.646.341.341,0,0,1-.155-.085,5.973,5.973,0,0,0-5.01-1.752,7,7,0,0,0-1.689.431Zm1.95,10.083a.381.381,0,0,1-.177-.049,1.943,1.943,0,0,1-.968-2.4,2.451,2.451,0,0,1-.954-1.491,1.972,1.972,0,0,1,.424-1.448,1.851,1.851,0,0,1-.106-2.049,1.6,1.6,0,0,0,.24-1.244c-.148-.381-.615-.707-1.413-1.046a.4.4,0,0,1-.233-.318.368.368,0,0,1,.177-.354,7.275,7.275,0,0,1,2.671-.862,6.77,6.77,0,0,1,5.554,1.894,2.473,2.473,0,0,1,1.738,2.12c.509.3,1.71,1.188,1.229,2.431-.092.248-.346.9-4.24,2.933-1.887.982-3.731,1.823-3.752,1.83a.424.424,0,0,1-.191.056Z" transform="translate(-23495.479 -11533.843)" fill="#070001" fill-rule="evenodd"/>
      <path id="路径_4279" data-name="路径 4279" d="M748.779,6704.607l-9.263,10.189s-1.152.94-1.166-1.031,2.685-13.821,2.685-13.821,1.413-.58,4.89,1.257S748.793,6704.622,748.779,6704.607Z" transform="translate(-23521.441 -11536.541)" fill="#e8b347" fill-rule="evenodd"/>
      <path id="路径_4280" data-name="路径 4280" d="M747.629,6703.19a13.066,13.066,0,0,0,1.936,4.282l-.445.4a13.562,13.562,0,0,1-2.07-4.53Z" transform="translate(-23523.994 -11537.52)" fill="#d99b20" fill-rule="evenodd"/>
      <path id="路径_4281" data-name="路径 4281" d="M743.544,6701.31a19.131,19.131,0,0,0,2.2,8.479l-.523.3a19.827,19.827,0,0,1-2.275-8.762Z" transform="translate(-23522.791 -11536.967)" fill="#d99b20" fill-rule="evenodd"/>
      <path id="路径_4282" data-name="路径 4282" d="M740.8,6706.12s.48,5.328,2.176,7.151l-.438.4c-1.837-1.964-2.339-7.49-2.339-7.5Z" transform="translate(-23521.982 -11538.379)" fill="#d99b20" fill-rule="evenodd"/>
      <path id="路径_4283" data-name="路径 4283" d="M739.751,6713.61s.064,2.918.9,4.1l-.488.346c-.947-1.335-1.01-4.416-1.01-4.43Z" transform="translate(-23521.676 -11540.576)" fill="#d99b20" fill-rule="evenodd"/>
      <path id="路径_4284" data-name="路径 4284" d="M745.915,6703.933a14.879,14.879,0,0,1-4.755,1.413v-.6a14.55,14.55,0,0,0,4.529-1.335Z" transform="translate(-23522.266 -11537.584)" fill="#d99b20" fill-rule="evenodd"/>
      <path id="路径_4285" data-name="路径 4285" d="M748.692,6706.122a31.756,31.756,0,0,1-8.719,3.532l-.163-.579a31.008,31.008,0,0,0,8.55-3.455Z" transform="translate(-23521.869 -11538.232)" fill="#d99b20" fill-rule="evenodd"/>
      <path id="路径_4286" data-name="路径 4286" d="M746.208,6711.714s-3.589,2.826-7.108,2.89v-.593c3.314-.063,6.741-2.763,6.748-2.77Z" transform="translate(-23521.66 -11539.881)" fill="#d99b20" fill-rule="evenodd"/>
      <path id="路径_4287" data-name="路径 4287" d="M741.529,6718.234s-2.19,1.038-3.229.452l.3-.523c.77.431,2.678-.466,2.678-.474Z" transform="translate(-23521.426 -11541.773)" fill="#d99b20" fill-rule="evenodd"/>
      <path id="路径_4288" data-name="路径 4288" d="M748.3,6704.267l.269.24Zm-7.066-4.19c-.375,1.653-2.643,11.75-2.628,13.51,0,.77.2.876.2.876a1.065,1.065,0,0,0,.339-.12l9.186-10.09h0c.1-.509-.353-1.667-2.671-2.89-2.579-1.364-3.943-1.342-4.4-1.279Zm-2.4,15.143a.818.818,0,0,1-.353-.078c-.417-.2-.622-.707-.629-1.547,0-2,2.586-13.425,2.692-13.913a.367.367,0,0,1,.226-.261c.162-.071,1.674-.593,5.2,1.271a6.675,6.675,0,0,1,2.742,2.282,2.021,2.021,0,0,1,.3,1.484.542.542,0,0,1-.148.282h0l-9.186,10.111-.042.035A1.415,1.415,0,0,1,738.842,6715.219Z" transform="translate(-23521.297 -11536.378)" fill="#070001" fill-rule="evenodd"/>
      <path id="路径_4289" data-name="路径 4289" d="M752.754,6692.05a6.587,6.587,0,0,0-7.836,1.046,2.127,2.127,0,0,0-1.554,2.028s-1.731.854-1.258,2.077,7.822,4.551,7.822,4.551a1.6,1.6,0,0,0,.707-2.2s2.007-1.2.487-2.827a1.413,1.413,0,0,0,.283-1.865C750.762,6693.676,750.868,6692.8,752.754,6692.05Z" transform="translate(-23522.518 -11534.004)" fill="#fff" fill-rule="evenodd"/>
      <path id="路径_4290" data-name="路径 4290" d="M749.279,6691.421a6.075,6.075,0,0,0-4.239,1.8.316.316,0,0,1-.149.084,1.744,1.744,0,0,0-1.286,1.646.368.368,0,0,1-.205.354s-1.413.707-1.074,1.611c.042.105.417.706,3.907,2.536,1.519.792,3.017,1.491,3.533,1.725a1.18,1.18,0,0,0,.374-1.6.368.368,0,0,1,.141-.5,1.973,1.973,0,0,0,.862-1.151,1.373,1.373,0,0,0-.459-1.1.373.373,0,0,1-.1-.281.366.366,0,0,1,.148-.269,1.06,1.06,0,0,0,.17-1.413,2.318,2.318,0,0,1-.269-1.845,2.262,2.262,0,0,1,1.1-1.137,6.854,6.854,0,0,0-1.71-.439,6.571,6.571,0,0,0-.707-.041Zm.5,10.563a.388.388,0,0,1-.155-.035s-1.873-.849-3.752-1.83c-3.914-2.035-4.169-2.685-4.24-2.933-.48-1.243.707-2.119,1.229-2.431a2.459,2.459,0,0,1,1.731-2.119,6.756,6.756,0,0,1,5.561-1.887,7.19,7.19,0,0,1,2.671.854.376.376,0,0,1,.177.354.391.391,0,0,1-.24.318c-.813.318-1.279.664-1.413,1.046a1.6,1.6,0,0,0,.24,1.243,1.837,1.837,0,0,1-.113,2.049,1.913,1.913,0,0,1,.424,1.448,2.445,2.445,0,0,1-.947,1.491,1.943,1.943,0,0,1-.968,2.4.431.431,0,0,1-.2.027Z" transform="translate(-23522.371 -11533.854)" fill="#070001" fill-rule="evenodd"/>
      <path id="路径_4291" data-name="路径 4291" d="M752.511,6692.39s-2.431-.084-2.53,1.809-.523,1.83-2.12.968-.572,1.145,1.032,1.8.763,2.459-.551,1.569-2.544-1.448-3.088-1.872-2.332,1.413.1,2.494a22.515,22.515,0,0,1,4.4,2.734s.558.459.841.114a7.74,7.74,0,0,0,.671-1.145l-.085-.939.94-1.194-.254-1.194-.127-.636.4-.968-.473-1.569.254-1.208a7.973,7.973,0,0,0,.594-.763Z" transform="translate(-23523.131 -11534.351)" fill="#f6e9d3" fill-rule="evenodd"/>
      <path id="路径_4292" data-name="路径 4292" d="M749.279,6691.421a6.075,6.075,0,0,0-4.239,1.8.316.316,0,0,1-.149.084,1.744,1.744,0,0,0-1.286,1.646.368.368,0,0,1-.205.354s-1.413.707-1.074,1.611c.042.105.417.706,3.907,2.536,1.519.792,3.017,1.491,3.533,1.725a1.18,1.18,0,0,0,.374-1.6.368.368,0,0,1,.141-.5,1.973,1.973,0,0,0,.862-1.151,1.373,1.373,0,0,0-.459-1.1.373.373,0,0,1-.1-.281.366.366,0,0,1,.148-.269,1.06,1.06,0,0,0,.17-1.413,2.318,2.318,0,0,1-.269-1.845,2.262,2.262,0,0,1,1.1-1.137,6.854,6.854,0,0,0-1.71-.439,6.571,6.571,0,0,0-.707-.041Zm.5,10.563a.388.388,0,0,1-.155-.035s-1.873-.849-3.752-1.83c-3.914-2.035-4.169-2.685-4.24-2.933-.48-1.243.707-2.119,1.229-2.431a2.459,2.459,0,0,1,1.731-2.119,6.756,6.756,0,0,1,5.561-1.887,7.19,7.19,0,0,1,2.671.854.376.376,0,0,1,.177.354.391.391,0,0,1-.24.318c-.813.318-1.279.664-1.413,1.046a1.6,1.6,0,0,0,.24,1.243,1.837,1.837,0,0,1-.113,2.049,1.913,1.913,0,0,1,.424,1.448,2.445,2.445,0,0,1-.947,1.491,1.943,1.943,0,0,1-.968,2.4.431.431,0,0,1-.2.027Z" transform="translate(-23522.371 -11533.854)" fill="#070001" fill-rule="evenodd"/>
    </g>
  </g>
</svg>
