<svg xmlns="http://www.w3.org/2000/svg" width="58.081" height="80.24" viewBox="0 0 58.081 80.24">
  <g id="组_2115" data-name="组 2115" transform="translate(22971.196 4707.91)">
    <path id="路径_4717" data-name="路径 4717" d="M555.95,6831.078c.519.318,2.408,1.273,6.552,1.273,4.428,0,4.76-1.425,4.781-1.584l-.145-1.135a.276.276,0,0,1,0-.166l1.674-4.974a.381.381,0,0,1,.339-.263,1,1,0,1,0-1.065-.989.975.975,0,0,0,.166.547.38.38,0,0,1-.069.5c-2.553,2.18-2.836,2.187-3.016,2.193s-.387,0-1.384-1.01a15.808,15.808,0,0,1-1.508-1.813.38.38,0,0,1,.1-.525,1.157,1.157,0,0,0,.595-1.135,1.509,1.509,0,0,0-1.384-1.383,1.481,1.481,0,0,0-1.384,1.384,1.19,1.19,0,0,0,.692,1.177.388.388,0,0,1,.18.262.367.367,0,0,1-.083.312c-.2.235-.408.5-.609.754-1.038,1.294-1.73,2.124-2.373,2.124h-.152c-.367-.076-1.079-.45-3.051-2.837a.387.387,0,0,1,0-.429,1.022,1.022,0,0,0,.131-.491,1,1,0,1,0-1.992,0,1.01,1.01,0,0,0,.692.955.418.418,0,0,1,.249.221l2.166,5.535a.306.306,0,0,1,0,.173Z" transform="translate(-23504.309 -11527.773)" fill="#fff" fill-rule="evenodd"/>
    <path id="路径_4718" data-name="路径 4718" d="M529.84,6889.609s-6.282,15.664-4.739,23.689c0,0-.408,3.051,5.915,3.958a117.987,117.987,0,0,0,15.11.754l-3.577-14.391S529.8,6889.492,529.84,6889.609Z" transform="translate(-23495.656 -11549.036)" fill="#d41652" fill-rule="evenodd"/>
    <path id="路径_4719" data-name="路径 4719" d="M529.8,6890.13c-.477,1.252-1.667,4.469-2.719,8.254-1.785,6.372-2.4,11.45-1.785,14.674a.221.221,0,0,1,0,.118,2.077,2.077,0,0,0,.547,1.384c.595.692,1.958,1.681,5.043,2.117a111.833,111.833,0,0,0,14.57.753L542,6903.594c-3.086-3.417-10.44-11.554-12.225-13.5Zm14.743,28.1a109.625,109.625,0,0,1-13.754-.769c-2.726-.387-4.6-1.217-5.576-2.455a2.872,2.872,0,0,1-.692-1.854c-.636-3.383,0-8.427,1.806-14.979,1.335-4.774,2.871-8.655,2.954-8.869a.448.448,0,0,1,.166-.194.388.388,0,0,1,.505.1,1.651,1.651,0,0,0,.118.118c.055.048.228.256.408.443l1.446,1.591c1.059,1.155,2.525,2.767,4.365,4.843,3.141,3.459,6.31,6.98,6.337,7.015a.313.313,0,0,1,.09.159l3.577,14.39a.381.381,0,0,1-.062.326.388.388,0,0,1-.3.145s-.526-.014-1.391-.014Z" transform="translate(-23495.479 -11548.865)" fill="#070001" fill-rule="evenodd"/>
    <path id="路径_4720" data-name="路径 4720" d="M581,6916.626s15.518-.263,17.9-4.255-2.83-23.412-6.406-26.8-7.458,21.6-7.458,21.6S581,6916.667,581,6916.626Z" transform="translate(-23512.957 -11547.693)" fill="#d41652" fill-rule="evenodd"/>
    <path id="路径_4721" data-name="路径 4721" d="M591.659,6885.463a.468.468,0,0,0-.152,0c-.553.188-2.075,1.647-4.234,11.07-1.2,5.258-2.006,10.439-2.013,10.5a.446.446,0,0,1,0,.09c-.92,2.151-3.106,7.258-3.805,8.911,1.232-.042,4.269-.187,7.437-.616,5.341-.691,8.648-1.909,9.554-3.459,1-1.682.6-6.919-1.01-13.346-1.543-6.137-3.729-11.478-5.327-12.993a.637.637,0,0,0-.422-.207Zm-10.827,31.375a.416.416,0,0,1-.214-.062.429.429,0,0,1-.1-.567l.131-.3.45-1.08,1.384-3.244c.927-2.18,1.861-4.352,2.006-4.684.083-.533.872-5.486,2.013-10.5a67.261,67.261,0,0,1,2.076-7.514c.906-2.5,1.743-3.812,2.636-4.116a1.26,1.26,0,0,1,1.335.352c1.986,1.876,4.213,8.061,5.535,13.36a54.684,54.684,0,0,1,1.487,8.3c.235,2.719.048,4.607-.553,5.624-1.052,1.757-4.449,3.044-10.115,3.8a79.324,79.324,0,0,1-8.095.637Z" transform="translate(-23512.787 -11547.525)" fill="#070001" fill-rule="evenodd"/>
    <path id="路径_4722" data-name="路径 4722" d="M554.874,6875.2c13.422,0,24.456,2.075,24.456,16.03s-10.841,25.342-24.263,25.342-24.3-11.332-24.3-25.314S541.452,6875.2,554.874,6875.2Z" transform="translate(-23497.477 -11544.596)" fill="#fff" fill-rule="evenodd"/>
    <path id="路径_4723" data-name="路径 4723" d="M554.7,6875.393c-5.763,0-12.28.325-16.909,2.733s-6.815,6.613-6.815,12.923c0,13.747,10.73,24.906,23.917,24.906s23.882-11.187,23.882-24.906c0-6.295-2.283-10.522-6.988-12.923s-11.291-2.733-17.088-2.733Zm.194,41.352a23.666,23.666,0,0,1-9.61-2.021,24.509,24.509,0,0,1-7.846-5.534,25.791,25.791,0,0,1-5.285-8.164,26.43,26.43,0,0,1-1.937-10c0-6.621,2.366-11.069,7.223-13.595s11.4-2.815,17.3-2.815a69.134,69.134,0,0,1,9.534.54,24.808,24.808,0,0,1,7.9,2.275c4.981,2.532,7.4,6.98,7.4,13.595a26.559,26.559,0,0,1-1.93,10,25.737,25.737,0,0,1-5.272,8.163,24.432,24.432,0,0,1-7.832,5.535,23.645,23.645,0,0,1-9.644,2.02Z" transform="translate(-23497.309 -11544.414)" fill="#070001" fill-rule="evenodd"/>
    <path id="路径_4724" data-name="路径 4724" d="M541.988,6872.141s-3.459,1.383-2.92,2.864c0,0-4.462,1.861-3.771,4.151,0,0,1.626-1.9,5.279-.242s11.429,1.114,14.141-1.384-3.653-6.87-3.653-6.87S542.029,6872.175,541.988,6872.141Z" transform="translate(-23498.85 -11543.196)" fill="#d41652" fill-rule="evenodd"/>
    <path id="路径_4725" data-name="路径 4725" d="M541.861,6871.615ZM542.082,6871.719ZM542.082,6871.719Zm0,0ZM542.082,6871.719Zm-.131.623.131-.623Zm-4.338,5.369a7.172,7.172,0,0,1,2.94.692c3.4,1.542,11.069,1.127,13.733-1.308a1.528,1.528,0,0,0,.547-1.293,5.982,5.982,0,0,0-2.076-3.287,19.739,19.739,0,0,0-1.937-1.618l-4.372.726-3.12.505-1.038.166-.367.048c-1.031.429-2.954,1.529-2.657,2.359a.373.373,0,0,1-.208.477c-1,.422-3.307,1.688-3.577,3.072a4.07,4.07,0,0,1,2.152-.56Zm8.3,2.387a14.321,14.321,0,0,1-5.673-.982c-3.321-1.508-4.767.083-4.843.146a.352.352,0,0,1-.367.125.368.368,0,0,1-.284-.263c-.692-2.248,2.671-4.012,3.695-4.49-.111-1.6,2.85-2.851,3.21-3a.347.347,0,0,1,.145,0c.422-.042,5.6-.893,8.994-1.46a.354.354,0,0,1,.277.056c.18.125,4.31,3,4.49,5.535a2.275,2.275,0,0,1-.8,1.909c-1.322,1.217-3.854,2.076-6.919,2.338-.637.056-1.287.083-1.923.083Z" transform="translate(-23498.676 -11543.045)" fill="#070001" fill-rule="evenodd"/>
    <path id="路径_4726" data-name="路径 4726" d="M570.93,6877.986s1.6,3.2,7.23,2.934a31.976,31.976,0,0,0,9.153-1.618s.1-2.18-2.712-2.65c0,0,.062-2.131-3.293-2.47S570.909,6878.008,570.93,6877.986Z" transform="translate(-23509.854 -11544.275)" fill="#d41652" fill-rule="evenodd"/>
    <path id="路径_4727" data-name="路径 4727" d="M571.3,6877.965a5.017,5.017,0,0,0,1.225,1.155,8.721,8.721,0,0,0,5.452,1.272,33.589,33.589,0,0,0,8.772-1.508c-.076-.52-.463-1.7-2.38-2.014a.381.381,0,0,1-.311-.387c0-.07,0-1.786-2.954-2.076-2.186-.222-6.441,1.667-9.8,3.563Zm6.054,3.2a9.11,9.11,0,0,1-5.307-1.453,5.041,5.041,0,0,1-1.626-1.716.381.381,0,0,1,.138-.491h.048c1.7-.976,7.493-4.151,10.544-3.818a4.147,4.147,0,0,1,3.176,1.521,2.631,2.631,0,0,1,.429,1,3.4,3.4,0,0,1,2.394,1.641,2.818,2.818,0,0,1,.346,1.35.374.374,0,0,1-.242.339,32.076,32.076,0,0,1-9.271,1.646Z" transform="translate(-23509.684 -11544.123)" fill="#070001" fill-rule="evenodd"/>
    <path id="路径_4728" data-name="路径 4728" d="M555.6,6830.745c.519.318,2.408,1.273,6.552,1.273,4.428,0,4.76-1.425,4.781-1.584l-.145-1.135a.275.275,0,0,1,0-.166l1.674-4.974a.381.381,0,0,1,.339-.263,1,1,0,1,0-1.065-.989.976.976,0,0,0,.166.547.38.38,0,0,1-.069.5c-2.553,2.18-2.837,2.187-3.016,2.193s-.387,0-1.384-1.01a15.8,15.8,0,0,1-1.508-1.813.38.38,0,0,1,.1-.525,1.157,1.157,0,0,0,.595-1.135,1.509,1.509,0,0,0-1.384-1.383,1.481,1.481,0,0,0-1.384,1.384,1.19,1.19,0,0,0,.692,1.177.388.388,0,0,1,.18.262.367.367,0,0,1-.083.312c-.2.235-.408.5-.609.754-1.038,1.294-1.73,2.124-2.373,2.124H557.5c-.367-.076-1.079-.45-3.051-2.837a.387.387,0,0,1,0-.429,1.022,1.022,0,0,0,.131-.491,1,1,0,1,0-1.992,0,1.01,1.01,0,0,0,.692.955.418.418,0,0,1,.249.221l2.166,5.535a.306.306,0,0,1,0,.173l-.131,1.383Zm6.552,2.034c-5.293,0-7.119-1.495-7.2-1.563a.36.36,0,0,1-.131-.325l.145-1.487-2.076-5.272a1.758,1.758,0,1,1,2.421-1.619,1.7,1.7,0,0,1-.111.616c1.743,2.075,2.318,2.366,2.463,2.4,0,0,.194,0,.65-.5.346-.36.74-.858,1.128-1.335l.36-.457a1.923,1.923,0,0,1-.692-1.577,2.131,2.131,0,0,1,4.262,0,1.9,1.9,0,0,1-.616,1.522,12.273,12.273,0,0,0,2.075,2.179,18.6,18.6,0,0,0,2.3-1.792,1.825,1.825,0,0,1-.125-.692,1.757,1.757,0,1,1,2.124,1.715l-1.57,4.67.145,1.079v.042a1.571,1.571,0,0,1-.505,1.059C566.349,6832.309,564.654,6832.779,562.15,6832.779Z" transform="translate(-23503.957 -11527.44)" fill="#070001" fill-rule="evenodd"/>
    <path id="路径_4729" data-name="路径 4729" d="M557.739,6834.52c10.647,0,19.282,7.119,19.282,15.913s-8.634,15.912-19.282,15.912-19.289-7.119-19.289-15.912S547.084,6834.52,557.739,6834.52Z" transform="translate(-23499.844 -11532.059)" fill="#fff" fill-rule="evenodd"/>
    <path id="路径_4730" data-name="路径 4730" d="M557.569,6834.743c-10.433,0-18.915,6.96-18.915,15.518s8.482,15.518,18.915,15.518,18.908-6.96,18.908-15.518S567.995,6834.743,557.569,6834.743Zm0,31.825a21.806,21.806,0,0,1-13.885-4.746,16.406,16.406,0,0,1-4.227-5.175,13.775,13.775,0,0,1,0-12.723,16.458,16.458,0,0,1,4.227-5.168,22.671,22.671,0,0,1,27.763,0,16.459,16.459,0,0,1,4.227,5.168,13.775,13.775,0,0,1,0,12.723,16.4,16.4,0,0,1-4.227,5.175,21.808,21.808,0,0,1-13.878,4.7Z" transform="translate(-23499.674 -11531.902)" fill="#070001" fill-rule="evenodd"/>
    <path id="路径_4731" data-name="路径 4731" d="M552.461,6847.192h-.311a.38.38,0,0,1,.1-.754,2.676,2.676,0,0,0,1.785-.491,2.386,2.386,0,0,0,.8-1.729.379.379,0,1,1,.754.069,3.129,3.129,0,0,1-1.079,2.255,3.305,3.305,0,0,1-2.048.651Z" transform="translate(-23503.969 -11534.942)" fill="#0b318f" fill-rule="evenodd"/>
    <path id="路径_4732" data-name="路径 4732" d="M576.073,6846.532a3.875,3.875,0,0,1-2.657-.954,3.8,3.8,0,0,1-1.017-1.425.381.381,0,0,1,.692-.257c.035.1.913,2.394,3.957,1.771a.381.381,0,1,1,.152.746,5.755,5.755,0,0,1-1.128.118Z" transform="translate(-23510.305 -11534.898)" fill="#0b318f" fill-rule="evenodd"/>
    <path id="路径_4733" data-name="路径 4733" d="M551.518,6851.951a.362.362,0,0,1-.256-.1.381.381,0,0,1,0-.533,7.12,7.12,0,0,1,7.866-1.529.38.38,0,0,1-.284.692,6.267,6.267,0,0,0-5.078,0,6.546,6.546,0,0,0-1.944,1.321.36.36,0,0,1-.3.146Z" transform="translate(-23503.758 -11536.588)" fill="#0b318f" fill-rule="evenodd"/>
    <path id="路径_4734" data-name="路径 4734" d="M578.8,6851.131a.4.4,0,0,1-.228-.076,6.475,6.475,0,0,0-6.282-.754.381.381,0,0,1-.5-.173.388.388,0,0,1,.18-.512,7.023,7.023,0,0,1,2.234-.547,7.117,7.117,0,0,1,4.843,1.384.374.374,0,0,1,.083.526.381.381,0,0,1-.325.152Z" transform="translate(-23510.105 -11536.535)" fill="#0b318f" fill-rule="evenodd"/>
    <path id="路径_4735" data-name="路径 4735" d="M578.078,6853.239a.408.408,0,0,1-.27-.11c-1.384-1.384-4.352-.284-4.379-.276a.381.381,0,0,1-.491-.215.373.373,0,0,1,.221-.491c.138-.056,3.459-1.294,5.182.442a.374.374,0,0,1,0,.533.389.389,0,0,1-.263.118Z" transform="translate(-23510.463 -11537.344)" fill="#0b318f" fill-rule="evenodd"/>
    <path id="路径_4736" data-name="路径 4736" d="M563.457,6854.45c1.432-2.691,3.39-2.387,5.486-1.148s4.912.512,5.535,1.017.36,1.7-2.076,3.148S562.177,6860.123,563.457,6854.45Z" transform="translate(-23507.508 -11537.565)" fill="#de5916" fill-rule="evenodd"/>
    <path id="路径_4737" data-name="路径 4737" d="M554.436,6862.882h-.284a.38.38,0,0,1-.353-.4.388.388,0,0,1,.4-.36,1.657,1.657,0,0,0,1.384-.366,1.252,1.252,0,0,0,.242-.935.386.386,0,0,1,.3-.441.38.38,0,0,1,.443.3,2.014,2.014,0,0,1-.422,1.577,2.206,2.206,0,0,1-1.716.622Z" transform="translate(-23504.574 -11540.026)" fill="#0b318f" fill-rule="evenodd"/>
    <path id="路径_4738" data-name="路径 4738" d="M580.9,6863.2a1.871,1.871,0,0,1-1.453-.54,1.909,1.909,0,0,1-.36-1.6.366.366,0,0,1,.45-.283.381.381,0,0,1,.291.449,1.148,1.148,0,0,0,.187.927,1.615,1.615,0,0,0,1.328.256.379.379,0,0,1,.282.073.383.383,0,0,1,.147.252.373.373,0,0,1-.325.423A3.657,3.657,0,0,1,580.9,6863.2Z" transform="translate(-23512.354 -11540.146)" fill="#0b318f" fill-rule="evenodd"/>
    <path id="路径_4739" data-name="路径 4739" d="M568,6870.447c0-.415.256-.387.692-.387s.837,0,.837.387v11a.761.761,0,1,1-1.515,0Z" transform="translate(-23508.951 -11543.012)" fill="#d41652" fill-rule="evenodd"/>
    <path id="路径_4740" data-name="路径 4740" d="M556.632,6889.479l3.307,19.372s6.918,2.3,10.378-.941l1.916-19.372s.865-.691-.221-1.6-13.837-.547-15.767.691a1.031,1.031,0,0,0,.387,1.854Z" transform="translate(-23505.193 -11548.055)" fill="#d41652" fill-rule="evenodd"/>
    <path id="路径_4741" data-name="路径 4741" d="M560.131,6908.427c1.162.339,6.745,1.778,9.686-.83l1.909-19.219a.339.339,0,0,1,.138-.256.561.561,0,0,0,.18-.374.976.976,0,0,0-.415-.644c-.3-.249-2.843-.54-7.326-.374-3.93.139-7.105.561-7.956,1.045-.18.193-.374.47-.311.691a.87.87,0,0,0,.491.471.389.389,0,0,1,.27.167.4.4,0,0,1,.056.152l3.265,19.157Zm4.7,1.467a9.783,9.783,0,0,1-1.169-.048,18.858,18.858,0,0,1-3.985-.762.372.372,0,0,1-.256-.3l-3.272-19.178h-.062a2.085,2.085,0,0,1-.484-.38c-.242-.277-.692-1.01.242-1.993l.076-.055c1.093-.692,5.05-1.065,8.378-1.183,1.833-.069,3.591-.062,4.953,0,2.387.131,2.767.429,2.878.54a1.625,1.625,0,0,1,.692,1.245,1.265,1.265,0,0,1-.339.823l-1.91,19.226a.368.368,0,0,1-.118.243,8.14,8.14,0,0,1-5.624,1.819Z" transform="translate(-23505.031 -11547.908)" fill="#070001" fill-rule="evenodd"/>
    <path id="路径_4742" data-name="路径 4742" d="M544.419,6887.626a6.734,6.734,0,0,0,5.05,4.553c6.579.1,7.043,8.7-5.092,7.236-8.247-1-9.79-7.209-9.928-11.069S544.4,6887.654,544.419,6887.626Z" transform="translate(-23498.611 -11548.056)" fill="#fff" fill-rule="evenodd"/>
    <path id="路径_4743" data-name="路径 4743" d="M558.318,6890.133a.3.3,0,0,1-.055-.6,66.736,66.736,0,0,1,7.015-.8c2.594-.062,6.607.193,6.642.193a.3.3,0,0,1-.035.609c-.042,0-4.026-.256-6.593-.194a63.782,63.782,0,0,0-6.918.789Z" transform="translate(-23505.875 -11548.764)" fill="#070001" fill-rule="evenodd"/>
    <path id="路径_4744" data-name="路径 4744" d="M547.818,6900.547a18.679,18.679,0,0,1-3.639-.395,12.454,12.454,0,0,1-7.977-4.809,12.149,12.149,0,0,1-2.262-6.635.38.38,0,0,1,.367-.394.386.386,0,0,1,.394.366c.152,4.282,2.767,9.347,9.624,10.724,5.818,1.169,7.928-.616,8.565-1.433a2.768,2.768,0,0,0,.318-2.934,4.2,4.2,0,0,0-3.874-2.116h0a7.1,7.1,0,0,1-5.383-4.8.38.38,0,0,1,.214-.491.387.387,0,0,1,.491.222,6.436,6.436,0,0,0,4.7,4.316,4.858,4.858,0,0,1,4.545,2.547,3.5,3.5,0,0,1-.4,3.722,5.591,5.591,0,0,1-3.307,1.875,11.006,11.006,0,0,1-2.38.234Z" transform="translate(-23498.455 -11548.419)" fill="#070001" fill-rule="evenodd"/>
    <path id="路径_4745" data-name="路径 4745" d="M590.176,6890.7c-2.864,8.627-9.257,10.045-13.484,8.849s-4.151-6.594-.152-7.009,6.3-4.933,6.3-4.933S590.252,6890.647,590.176,6890.7Z" transform="translate(-23510.654 -11548.42)" fill="#fff" fill-rule="evenodd"/>
    <path id="路径_4746" data-name="路径 4746" d="M582.832,6887.934a12.618,12.618,0,0,1-1.536,2.075,7.8,7.8,0,0,1-4.884,2.768,2.767,2.767,0,0,0-2.657,2.553,3.6,3.6,0,0,0,2.871,3.708,9.674,9.674,0,0,0,2.643.367c3.777,0,8.025-2.214,10.274-8.662-.969-.429-4.289-1.806-6.711-2.8Zm-3.653,12.246a10.062,10.062,0,0,1-2.767-.38,4.762,4.762,0,0,1-2.677-1.827,4.054,4.054,0,0,1-.74-2.684,3.522,3.522,0,0,1,3.328-3.238c3.75-.387,5.971-4.69,6-4.732a.38.38,0,0,1,.477-.18s1.861.761,3.674,1.522c1.065.443,1.923.8,2.532,1.059l.837.359c.38.173.526.235.54.471a.311.311,0,0,1,0,.159,17.039,17.039,0,0,1-2.767,5.307,11.4,11.4,0,0,1-3.639,3.016,10.49,10.49,0,0,1-4.795,1.148Z" transform="translate(-23510.484 -11548.267)" fill="#fff" fill-rule="evenodd"/>
    <path id="路径_4747" data-name="路径 4747" d="M579.179,6900.179a10.043,10.043,0,0,1-2.767-.38,4.763,4.763,0,0,1-2.677-1.827,4.054,4.054,0,0,1-.74-2.684,3.522,3.522,0,0,1,3.328-3.238c3.75-.387,5.971-4.684,6-4.731a.374.374,0,0,1,.505-.166.387.387,0,0,1,.173.512,12.455,12.455,0,0,1-1.709,2.394,7.8,7.8,0,0,1-4.884,2.768,2.767,2.767,0,0,0-2.657,2.553,3.6,3.6,0,0,0,2.871,3.708,9.675,9.675,0,0,0,2.643.367c3.84,0,8.157-2.283,10.378-8.994a.379.379,0,0,1,.484-.235.374.374,0,0,1,.235.478,16.929,16.929,0,0,1-2.767,5.313,11.409,11.409,0,0,1-3.639,3.016,10.494,10.494,0,0,1-4.774,1.148Z" transform="translate(-23510.484 -11548.266)" fill="#070001" fill-rule="evenodd"/>
    <path id="路径_4748" data-name="路径 4748" d="M553.208,6854.189a.4.4,0,0,1-.277-.117.381.381,0,0,1,0-.533,6.869,6.869,0,0,1,1.854-1.169,6.6,6.6,0,0,1,4.691-.242.38.38,0,1,1-.228.691,6.136,6.136,0,0,0-5.791,1.231A.382.382,0,0,1,553.208,6854.189Z" transform="translate(-23504.273 -11537.388)" fill="#0b318f" fill-rule="evenodd"/>
    <path id="路径_4749" data-name="路径 4749" d="M552.577,6853.3a.385.385,0,0,1-.277-.657,7.257,7.257,0,0,1,1.951-1.218,7.545,7.545,0,0,1,5.009-.4.373.373,0,0,1,.27.464.388.388,0,0,1-.464.271,6.915,6.915,0,0,0-6.226,1.439.37.37,0,0,1-.263.1Z" transform="translate(-23504.078 -11537.068)" fill="#0b318f" fill-rule="evenodd"/>
    <path id="路径_4750" data-name="路径 4750" d="M552.207,6852.384a.393.393,0,0,1-.389-.388.383.383,0,0,1,.112-.271,7.437,7.437,0,0,1,1.944-1.217,7.566,7.566,0,0,1,5.016-.4.38.38,0,0,1-.194.733,6.7,6.7,0,0,0-4.49.353,6.856,6.856,0,0,0-1.757,1.087A.374.374,0,0,1,552.207,6852.384Z" transform="translate(-23503.963 -11536.785)" fill="#0b318f" fill-rule="evenodd"/>
    <path id="路径_4751" data-name="路径 4751" d="M578.215,6852.435a.366.366,0,0,1-.256-.1c-1.508-1.418-4.67-.312-4.7-.3a.373.373,0,0,1-.484-.228.381.381,0,0,1,.235-.485c.145-.055,3.625-1.266,5.472.464a.38.38,0,0,1,0,.54.388.388,0,0,1-.263.117Z" transform="translate(-23510.414 -11537.092)" fill="#0b318f" fill-rule="evenodd"/>
    <path id="路径_4752" data-name="路径 4752" d="M578.515,6851.69a.4.4,0,0,1-.256-.1c-1.667-1.509-5.32-.54-5.355-.533a.381.381,0,0,1-.2-.733c.166-.041,4.089-1.086,6.061.692a.373.373,0,0,1,0,.539.358.358,0,0,1-.249.132Z" transform="translate(-23510.318 -11536.825)" fill="#0b318f" fill-rule="evenodd"/>
    <path id="路径_4753" data-name="路径 4753" d="M564.979,6868.322a10.154,10.154,0,0,1-6.642-2.525,11.5,11.5,0,0,1-2.338-2.705.393.393,0,1,1,.692-.373,10.712,10.712,0,0,0,2.186,2.518,9.217,9.217,0,0,0,6.51,2.318,7.732,7.732,0,0,0,5.638-2.388,6.092,6.092,0,0,0,1.335-2.234.387.387,0,0,1,.47-.263.376.376,0,0,1,.228.177.372.372,0,0,1,.034.286,6.917,6.917,0,0,1-1.48,2.519,8.476,8.476,0,0,1-6.227,2.664Z" transform="translate(-23505.238 -11540.686)" fill="#0b318f" fill-rule="evenodd"/>
    <path id="路径_4754" data-name="路径 4754" d="M548.05,6858.119c-2.345,0-3.985,1.487-2.518,2.221,1.266.637,3.764.242,4.539-.692.422-.519.111-.961-.367-1.2A3.625,3.625,0,0,0,548.05,6858.119Z" transform="translate(-23501.855 -11539.331)" fill="#f1bdc2" fill-rule="evenodd"/>
    <path id="路径_4755" data-name="路径 4755" d="M586.049,6856.079c-2.345,0-3.985,1.487-2.525,2.221,1.273.637,3.771.242,4.545-.691.422-.513.111-.962-.367-1.2A3.721,3.721,0,0,0,586.049,6856.079Z" transform="translate(-23513.564 -11538.702)" fill="#f1bdc2" fill-rule="evenodd"/>
    <path id="路径_4756" data-name="路径 4756" d="M559.618,6824.942a.906.906,0,1,0,.906.907.907.907,0,0,0-.906-.907Zm0,2.415a1.508,1.508,0,1,1,1.508-1.508A1.508,1.508,0,0,1,559.618,6827.356Z" transform="translate(-23505.902 -11528.923)" fill="#070001" fill-rule="evenodd"/>
    <path id="路径_4757" data-name="路径 4757" d="M569.958,6824.942a.907.907,0,1,0,.9.907.907.907,0,0,0-.9-.907Zm0,2.415a1.508,1.508,0,1,1,1.508-1.508A1.508,1.508,0,0,1,569.958,6827.356Z" transform="translate(-23509.09 -11528.923)" fill="#070001" fill-rule="evenodd"/>
    <path id="路径_4758" data-name="路径 4758" d="M559.886,6825.21a.906.906,0,1,0,.906.907.907.907,0,0,0-.906-.907Z" transform="translate(-23506.17 -11529.19)" fill="#fff" fill-rule="evenodd"/>
    <path id="路径_4759" data-name="路径 4759" d="M570.223,6825.21a.907.907,0,1,0,.9.907.907.907,0,0,0-.9-.907Z" transform="translate(-23509.354 -11529.19)" fill="#fff" fill-rule="evenodd"/>
  </g>
</svg>
