<svg xmlns="http://www.w3.org/2000/svg" xmlns:xlink="http://www.w3.org/1999/xlink" width="514" height="135" viewBox="0 0 514 135">
  <defs>
    <clipPath id="clip-画板_3">
      <rect width="514" height="135"/>
    </clipPath>
  </defs>
  <g id="画板_3" data-name="画板 – 3" clip-path="url(#clip-画板_3)">
    <rect width="514" height="135" fill="#fff"/>
    <g id="组_2613" data-name="组 2613" transform="translate(-1154.679 -110.145)">
      <path id="路径_1325" data-name="路径 1325" d="M1330.251,149.179a.985.985,0,0,0,1.394,0l12.97-12.97c3.777-3.777,3.982-10.171.055-13.792a9.361,9.361,0,0,0-12.927.263l-.794.794-.794-.794a9.361,9.361,0,0,0-12.927-.263c-3.927,3.621-3.724,10.015.053,13.792Z" transform="translate(80.527 6.068)" fill="#e40055"/>
      <path id="路径_1326" data-name="路径 1326" d="M1247.945,119.782h.078l42.576-1.146a2.829,2.829,0,0,0,2.75-2.9,2.859,2.859,0,0,0-2.9-2.75l-42.575,1.146a2.827,2.827,0,0,0,.075,5.653Z" transform="translate(26.747 0.652)" fill="#e40055"/>
      <path id="路径_1327" data-name="路径 1327" d="M1247.252,131.66a2.633,2.633,0,0,0,2.629-2.631v-.251a1.075,1.075,0,0,1,.933-1.155h37.706a1.075,1.075,0,0,1,.931,1.155v.251a2.63,2.63,0,1,0,5.26,0v-.251a6.313,6.313,0,0,0-6.192-6.415h-1.615l.706-1.515a2.828,2.828,0,1,0-5.127-2.39l-1.819,3.905h-8.76l-1.819-3.905a2.829,2.829,0,1,0-5.129,2.39l.707,1.515h-8.269l-1.535-3.329a2.827,2.827,0,1,0-5.135,2.368l.443.961h-.352a6.314,6.314,0,0,0-6.194,6.415v.251A2.633,2.633,0,0,0,1247.252,131.66Z" transform="translate(26.361 3.635)" fill="#e40055"/>
      <path id="路径_1328" data-name="路径 1328" d="M1292.331,127.56h-31.082c.032-.13.066-.259.1-.389a2.829,2.829,0,0,0-5.492-1.359q-.213.871-.441,1.748H1247.4a2.686,2.686,0,0,0,0,5.373h6.51a56.555,56.555,0,0,1-9,18.415,2.827,2.827,0,0,0,4.468,3.464c5.259-6.781,8.26-14.37,10.43-21.879h32.52a2.686,2.686,0,0,0,0-5.373Z" transform="translate(26.126 8.946)" fill="#e40055"/>
      <path id="路径_1329" data-name="路径 1329" d="M1286.441,146.729c-1.025-.165-2.187-.334-3.438-.515l-.092-.012c-1.395-.2-2.949-.426-4.605-.7,4.5-2.208,6.789-5.055,6.789-8.471a7.513,7.513,0,0,0-7.671-7.325h-.459a9.677,9.677,0,0,0-7.026,2.729,9.608,9.608,0,0,0-6.989-2.729,7.55,7.55,0,0,0-7.672,7.4c0,3.3,1.846,6.057,5.484,8.2-2.523.414-4.882.737-6.815,1l-1.2.165a2.5,2.5,0,0,0-1.668.97,2.305,2.305,0,0,0-.437,1.73,2.457,2.457,0,0,0,2.813,2.013l1.935-.263c4.221-.579,9.471-1.3,14.084-2.381a118.223,118.223,0,0,0,12.714,2.37l.4.059c1.1.158,2.116.307,3.036.457a2.907,2.907,0,0,0,.409.034,2.448,2.448,0,0,0,2.445-1.986,2.277,2.277,0,0,0-.393-1.736A2.481,2.481,0,0,0,1286.441,146.729Zm-26.193-9.7a2.494,2.494,0,0,1,2.388-2.549c2.764-.211,5.593,2.521,6.678,3.708a.864.864,0,0,0,.625.286.877.877,0,0,0,.638-.258c1.091-1.091,3.9-3.639,6.387-3.749h.242a3.058,3.058,0,0,1,2.244.959,2.408,2.408,0,0,1,.666,1.823c-.2,2.615-3.853,4.952-10.3,6.581C1266.2,142.8,1260.249,140.562,1260.248,137.032Z" transform="translate(31.015 13.64)" fill="#e40055"/>
      <path id="路径_1330" data-name="路径 1330" d="M1379.829,119.782h.078l42.576-1.146a2.829,2.829,0,0,0,2.75-2.9,2.871,2.871,0,0,0-2.9-2.75l-42.576,1.146a2.827,2.827,0,0,0,.075,5.653Z" transform="translate(129.175 0.652)" fill="#e40055"/>
      <path id="路径_1331" data-name="路径 1331" d="M1379.137,131.66a2.634,2.634,0,0,0,2.631-2.631v-.251a1.075,1.075,0,0,1,.931-1.155h37.7a1.076,1.076,0,0,1,.933,1.155v.251a2.63,2.63,0,1,0,5.261,0v-.251a6.314,6.314,0,0,0-6.193-6.415h-1.613l.705-1.515a2.828,2.828,0,1,0-5.127-2.39l-1.818,3.905h-8.762l-1.818-3.905a2.829,2.829,0,1,0-5.129,2.39l.705,1.515h-8.267l-1.537-3.329a2.828,2.828,0,0,0-5.137,2.368l.444.961h-.352a6.313,6.313,0,0,0-6.191,6.415v.251A2.632,2.632,0,0,0,1379.137,131.66Z" transform="translate(128.789 3.635)" fill="#e40055"/>
      <path id="路径_1332" data-name="路径 1332" d="M1424.218,127.56h-31.086c.033-.13.067-.259.1-.389a2.828,2.828,0,0,0-5.49-1.359q-.214.871-.441,1.748h-8.013a2.686,2.686,0,0,0,0,5.373h6.508a56.541,56.541,0,0,1-9,18.415,2.827,2.827,0,0,0,4.468,3.464c5.261-6.785,8.26-14.371,10.429-21.879h32.522a2.686,2.686,0,0,0,0-5.373Z" transform="translate(128.555 8.946)" fill="#e40055"/>
      <path id="路径_1333" data-name="路径 1333" d="M1384.628,146.473a2.485,2.485,0,0,0-1.663.968,2.31,2.31,0,0,0-.44,1.732,2.456,2.456,0,0,0,2.814,2.013l1.933-.263c4.221-.579,9.471-1.3,14.085-2.381a118.239,118.239,0,0,0,12.714,2.37l.369.053c1.107.162,2.139.309,3.068.462a2.9,2.9,0,0,0,.408.034,2.449,2.449,0,0,0,2.445-1.984,2.278,2.278,0,0,0-.391-1.736,2.478,2.478,0,0,0-1.645-1.013c-1.046-.169-2.232-.341-3.514-.526-1.4-.2-2.955-.426-4.619-.7,4.5-2.208,6.785-5.055,6.785-8.471a7.511,7.511,0,0,0-7.668-7.325h-.458a10.368,10.368,0,0,1-14.02,0,7.55,7.55,0,0,0-7.67,7.4c0,3.3,1.844,6.057,5.485,8.2-2.532.416-4.9.741-6.838,1.006Zm7.506-9.441a2.49,2.49,0,0,1,2.386-2.549c.105-.009.21-.012.313-.012,2.67,0,5.323,2.578,6.368,3.72a.863.863,0,0,0,.625.286l.02,0a.872.872,0,0,0,.618-.259c1.091-1.091,3.9-3.639,6.387-3.749h.241a3.054,3.054,0,0,1,2.24.959,2.406,2.406,0,0,1,.668,1.823c-.2,2.615-3.855,4.952-10.3,6.581C1398.089,142.8,1392.134,140.561,1392.134,137.032Z" transform="translate(133.443 13.64)" fill="#e40055"/>
      <path id="路径_1334" data-name="路径 1334" d="M1302.759,123.858l.116,0c2.068-.075,3.7-2.132,3.639-4.589-.027-1.057-.569-1.921-1.4-3.386a19.547,19.547,0,0,0-1.34-1.985,1.3,1.3,0,0,0-.913-.5,1.573,1.573,0,0,0-1.108.64l-1.253,1.821a5.347,5.347,0,0,0-1.485,3.672C1299.072,121.958,1300.719,123.858,1302.759,123.858Z" transform="translate(68.602 0.972)" fill="#e40055"/>
      <path id="路径_1335" data-name="路径 1335" d="M1326,160.177c-3.054-1.842-5.456-5-7.34-8.841a81.774,81.774,0,0,0,7.119-7.952,2.97,2.97,0,0,0-4.646-3.7c-1.517,1.9-3.12,3.806-4.864,5.643a77.266,77.266,0,0,1-2.628-11.3h10.312a2.97,2.97,0,0,0,0-5.939h-11.092a103.909,103.909,0,0,1-.581-12.794,2.969,2.969,0,0,0-5.936-.16,114.729,114.729,0,0,0,.546,12.954H1292.36v-7.567l6.195-1.117a2.97,2.97,0,0,0-1.055-5.845l-16.953,3.059a2.969,2.969,0,0,0,.524,5.891,3.038,3.038,0,0,0,.533-.048l4.817-.869v6.5H1279.5a2.97,2.97,0,1,0,0,5.939h6.917v10.93c-2.182.688-4.637,1.336-7.521,1.965a2.969,2.969,0,0,0,1.265,5.8c2.308-.5,4.369-1.025,6.256-1.571v3.512c0,2.747-1.679,4.9-3.822,4.9h-2.022a2.97,2.97,0,0,0,0,5.939h2.022c5.472,0,9.761-4.76,9.761-10.838v-5.516a65.247,65.247,0,0,0,8.654-4.2,2.969,2.969,0,0,0-2.939-5.159c-1.893,1.078-3.731,2.041-5.715,2.926v-8.691h15.252a77.691,77.691,0,0,0,3.907,15.738,41.427,41.427,0,0,1-12.477,7.124,2.969,2.969,0,0,0,1,5.763,3.017,3.017,0,0,0,1-.174,47.233,47.233,0,0,0,12.991-7.146,25.362,25.362,0,0,0,8.89,9.93,2.97,2.97,0,0,0,3.067-5.087Z" transform="translate(51.145 0.081)" fill="#e40055"/>
      <path id="路径_1336" data-name="路径 1336" d="M1369.208,123.858l.116,0c2.07-.075,3.7-2.132,3.638-4.589-.026-1.057-.568-1.921-1.4-3.386a19.753,19.753,0,0,0-1.338-1.985,1.309,1.309,0,0,0-.915-.5,1.566,1.566,0,0,0-1.106.64l-1.255,1.821a5.345,5.345,0,0,0-1.485,3.672C1365.522,121.958,1367.169,123.858,1369.208,123.858Z" transform="translate(120.21 0.972)" fill="#e40055"/>
      <path id="路径_1337" data-name="路径 1337" d="M1392.446,160.177c-3.054-1.842-5.456-5-7.339-8.841a81.549,81.549,0,0,0,7.119-7.952,2.97,2.97,0,1,0-4.644-3.7c-1.517,1.9-3.122,3.807-4.866,5.643a76.992,76.992,0,0,1-2.628-11.3H1390.4a2.97,2.97,0,0,0,0-5.939h-11.093a104.548,104.548,0,0,1-.581-12.794,2.968,2.968,0,1,0-5.934-.16,114.412,114.412,0,0,0,.543,12.954H1358.81v-7.567L1365,119.4a2.97,2.97,0,0,0-1.057-5.845L1347,116.619a2.969,2.969,0,0,0,.524,5.891,3.015,3.015,0,0,0,.531-.048l4.818-.869v6.5h-6.918a2.97,2.97,0,0,0,0,5.939h6.918v10.93c-2.182.689-4.637,1.336-7.522,1.965a2.969,2.969,0,0,0,.631,5.87,3,3,0,0,0,.636-.067c2.308-.5,4.369-1.025,6.255-1.571v3.512c0,2.747-1.679,4.9-3.822,4.9h-2.024a2.97,2.97,0,0,0,0,5.939h2.024c5.472,0,9.761-4.76,9.761-10.838v-5.516a65.33,65.33,0,0,0,8.652-4.2,2.969,2.969,0,0,0-2.938-5.159c-1.894,1.078-3.731,2.041-5.714,2.926v-8.691h15.251a77.563,77.563,0,0,0,3.907,15.738,41.483,41.483,0,0,1-12.476,7.124,2.969,2.969,0,0,0,1,5.763,3.011,3.011,0,0,0,1-.174,47.2,47.2,0,0,0,12.989-7.146,25.376,25.376,0,0,0,8.891,9.93,2.97,2.97,0,0,0,3.066-5.087Z" transform="translate(102.754 0.081)" fill="#e40055"/>
      <path id="路径_1338" data-name="路径 1338" d="M1212.578,136.354a2.882,2.882,0,0,0,3.935-1.075l2.035-3.566v30.752a2.884,2.884,0,0,0,5.767,0V121.606l2.938-5.149a2.885,2.885,0,0,0-5.01-2.86l-10.74,18.822A2.886,2.886,0,0,0,1212.578,136.354Z" transform="translate(0.345 0)" fill="#e40055"/>
      <path id="路径_1339" data-name="路径 1339" d="M1221.514,132.861a2.878,2.878,0,0,0,3.917-1.132l4.106-7.442c.044,0,.087.014.133.014H1248.5a1.631,1.631,0,0,1,1.375,1.764l0,3.983a2.881,2.881,0,0,0,2.884,2.88h0a2.882,2.882,0,0,0,2.882-2.885l0-3.981a7.353,7.353,0,0,0-7.142-7.528h-15.784l1.165-2.114a2.883,2.883,0,0,0-5.049-2.786l-8.446,15.309A2.883,2.883,0,0,0,1221.514,132.861Z" transform="translate(7.257 0.001)" fill="#e40055"/>
      <path id="路径_1340" data-name="路径 1340" d="M1234.694,121.008a2.882,2.882,0,0,0-2.883,2.883v25.614c0,1.764-1.167,3.257-2.546,3.257h-1.029a2.883,2.883,0,1,0,0,5.767h1.029c4.584,0,8.313-4.049,8.313-9.024V123.891A2.882,2.882,0,0,0,1234.694,121.008Z" transform="translate(11.397 6.884)" fill="#e40055"/>
      <path id="路径_1341" data-name="路径 1341" d="M1240.353,128.8a2.885,2.885,0,0,0-5.623,1.29l4.545,19.84a2.886,2.886,0,0,0,2.809,2.24,2.917,2.917,0,0,0,.649-.075,2.883,2.883,0,0,0,2.166-3.456Z" transform="translate(18.621 11.2)" fill="#e40055"/>
      <path id="路径_1342" data-name="路径 1342" d="M1223.092,152.172a2.887,2.887,0,0,0,2.811-2.24l4.545-19.84a2.884,2.884,0,0,0-5.623-1.29l-4.545,19.84a2.89,2.89,0,0,0,2.813,3.53Z" transform="translate(7.398 11.2)" fill="#e40055"/>
      <path id="路径_1343" data-name="路径 1343" d="M1409.122,136.354a2.883,2.883,0,0,0,3.935-1.075l2.034-3.566v30.752a2.884,2.884,0,0,0,5.767,0V121.606l2.938-5.149a2.885,2.885,0,0,0-5.012-2.86l-10.738,18.822A2.885,2.885,0,0,0,1409.122,136.354Z" transform="translate(152.99 0)" fill="#e40055"/>
      <path id="路径_1344" data-name="路径 1344" d="M1418.058,132.861a2.878,2.878,0,0,0,3.917-1.132l4.106-7.442c.044,0,.087.014.132.014h18.827a1.631,1.631,0,0,1,1.375,1.764l0,3.983a2.881,2.881,0,0,0,2.883,2.88h0a2.883,2.883,0,0,0,2.882-2.885l0-3.981a7.354,7.354,0,0,0-7.142-7.528h-15.786l1.167-2.114a2.883,2.883,0,1,0-5.049-2.786l-8.446,15.309A2.883,2.883,0,0,0,1418.058,132.861Z" transform="translate(159.902 0.001)" fill="#e40055"/>
      <path id="路径_1345" data-name="路径 1345" d="M1421.9,155.645a2.882,2.882,0,0,0,2.884,2.884h1.028c4.585,0,8.315-4.049,8.315-9.024V123.891a2.883,2.883,0,1,0-5.767,0v25.614c0,1.764-1.167,3.257-2.548,3.257h-1.028A2.882,2.882,0,0,0,1421.9,155.645Z" transform="translate(164.041 6.884)" fill="#e40055"/>
      <path id="路径_1346" data-name="路径 1346" d="M1433.439,126.636a2.882,2.882,0,0,0-2.166,3.456l4.544,19.84a2.885,2.885,0,0,0,5.623-1.29l-4.546-19.84A2.882,2.882,0,0,0,1433.439,126.636Z" transform="translate(171.266 11.2)" fill="#e40055"/>
      <path id="路径_1347" data-name="路径 1347" d="M1424.82,126.636a2.89,2.89,0,0,0-3.454,2.167l-4.543,19.84a2.883,2.883,0,1,0,5.621,1.286l4.544-19.84A2.884,2.884,0,0,0,1424.82,126.636Z" transform="translate(160.044 11.2)" fill="#e40055"/>
      <path id="路径_1348" data-name="路径 1348" d="M1250.282,172.9c-1.849,1.9-1.354,3.141-.62,3.846a2.325,2.325,0,0,0,1.636.684,3.127,3.127,0,0,0,2.13-.984c.574-.531,1.485-1.428,2.217-2.152l.6-.59a6.364,6.364,0,0,0,.9-.99c1.391-1.622-.364-3.242-.947-3.777-.746-.689-.913-.863-1.059-1.016-.206-.211-.368-.375-1.446-1.347a3.953,3.953,0,0,0-2.477-1.222,2.179,2.179,0,0,0-1.531.625c-.4.382-1.546,1.766.311,3.615.464.462,1.192,1.146,1.854,1.766-.066.062-.115.107-.165.151C1251.469,171.712,1251.293,171.867,1250.282,172.9Z" transform="translate(29.741 41.328)" fill="#e40055"/>
      <path id="路径_1349" data-name="路径 1349" d="M1268.776,165.979a2.139,2.139,0,0,0-1.513-.622,3.9,3.9,0,0,0-2.432,1.2c-1.05.945-1.208,1.107-1.407,1.313-.14.151-.305.314-1.03.99-.57.524-2.294,2.114-.924,3.713a5.925,5.925,0,0,0,.856.942l.611.6c.713.7,1.6,1.578,2.157,2.093a3.085,3.085,0,0,0,2.1.965,2.305,2.305,0,0,0,1.613-.672c.727-.7,1.212-1.922-.6-3.788-.984-1.006-1.155-1.162-1.373-1.354-.041-.036-.084-.073-.137-.124.641-.6,1.338-1.253,1.786-1.7C1270.3,167.716,1269.167,166.352,1268.776,165.979Z" transform="translate(39.045 41.328)" fill="#e40055"/>
      <path id="路径_1350" data-name="路径 1350" d="M1292.966,156.906a3.121,3.121,0,0,0-2.2-.858c-.126,0-.249,0-.378-.005-7.112-.055-42.091.005-42.091.005-.286,0-.638-.036-1.1-.028-.286-.018-.428,0-.648,0a3,3,0,0,0-3.088,2.69,2.805,2.805,0,0,0,2.876,2.99c.837.062,1.484.073,1.938.089H1263.8c.222.005,1.766.27,1.787,1.512.021,1.309-1.361,1.869-1.7,1.944-1.633.076-11.2-.028-12.188,0a7.511,7.511,0,0,0-7.673,7.579c-.037,1.089-.093,1.969-.142,2.823a33.483,33.483,0,0,0-.066,5.058l.005.092c.023.4.082.979.1,1.1.24,1.42,1.093,2.612,2.6,2.612a2.846,2.846,0,0,0,2.81-2.533c.055-.455.041-.888.059-1.139l.007-.128c.128-1.8.145-2.713.161-4.241.012-1.05.023-2.141.076-3.377.09-2.183,1.254-2.837,1.947-2.862,1.943-.066,12.509-.005,13.438,0,0,.784-.009,1.512-.016,2.217-.027,2.486-.05,4.635.105,7.288.145,2.633,1.2,4.223,2.858,4.246.88,0,2.935-.423,3.026-4.381l.021-.855c.021-.839.046-1.7.046-2.544v-6.023c1.011,0,10.111.025,12.89-.014a3.622,3.622,0,0,1,2.569.718,3.22,3.22,0,0,1,.767,2.539c0,.712,0,4.822.1,7.034a6.164,6.164,0,0,0,.393,2.134,2.709,2.709,0,0,0,2.624,1.922,2.746,2.746,0,0,0,2.187-1.066c.748-.736.734-1.958.821-3.111.043-.576.211-4.378.146-6.9-.135-4.813-3.45-7.99-8.455-8.087-1.258-.028-10.681,0-12.28,0a1.779,1.779,0,1,1-.055-3.553s14.936.023,17.65,0c.142,0,.233,0,.348,0a2.886,2.886,0,0,0,3.019-3.079,2.284,2.284,0,0,0-.259-.995A2.159,2.159,0,0,0,1292.966,156.906Z" transform="translate(25.465 34.07)" fill="#e40055"/>
      <path id="路径_1351" data-name="路径 1351" d="M1283.683,173.512c-7.736-.028-18.486-.023-26.22-.014l-8.7.005-.6,0c-.325,0-.641,0-1.008,0-.188.011-.259.009-.389.009a2.72,2.72,0,0,0-2.822,2.606,2.585,2.585,0,0,0,2.822,2.425c.1,0,.128.005.3.009.407.016.654.016.931.016.22,0,31.488-.012,36.208,0,1.21,0,1.366.032,1.7.313a1.584,1.584,0,0,1,.347,1.043v1.283h-39.779a2.385,2.385,0,0,0-1.995.968,2.207,2.207,0,0,0-.539,1.437,2.423,2.423,0,0,0,2.34,2.329c.045,0,.087.005.126.005h.044l.023,0,.021,0c1.956,0,39.562.021,39.562.021.108,2.041-.091,2.208-.33,2.351-.258.155-.61.234-2.059.234h-36.833c-.025,0-.051-.005-.073-.005s-.05.005-.071.005h-.09a1.885,1.885,0,0,0-.433.057c-1.272.252-2.226.942-2.226,2.192l0,.05,0,.044a2.2,2.2,0,0,0,1.356,2.128,2.926,2.926,0,0,0,1.178.368,10.878,10.878,0,0,0,1.888.162c6.922.092,31.429,0,31.429,0,6.085,0,9.74.9,11.811-2.349,1.286-2.017.938-9.5.938-9.5C1292.229,174.367,1290.511,173.532,1283.683,173.512Z" transform="translate(25.834 47.645)" fill="#e40055"/>
      <path id="路径_1352" data-name="路径 1352" d="M1331.881,159.453a3.369,3.369,0,0,0,3.381,3.289l.1,0a3.4,3.4,0,0,0,3.285-3.486,5.284,5.284,0,0,0-1.265-2.573,15.337,15.337,0,0,0-1.208-1.507,1.238,1.238,0,0,0-.824-.378,1.505,1.505,0,0,0-1,.483l-1.13,1.384A3.756,3.756,0,0,0,1331.881,159.453Z" transform="translate(94.129 33.126)" fill="#e40055"/>
      <path id="路径_1353" data-name="路径 1353" d="M1354.081,195.061a27.413,27.413,0,0,0,4.584-14.2,2.89,2.89,0,0,0-2.882-2.889h-.01a2.9,2.9,0,0,0-2.9,2.878,21.341,21.341,0,0,1-1.414,6.8,109.042,109.042,0,0,1-3.394-17.221l8-.092a3.163,3.163,0,0,0,2.495-.881,3.111,3.111,0,0,0,.73-2.423c-.137-1.9-1.812-2.516-3.449-2.546-.469-.007-4.113-.009-8.364-.005-.334-4.346-.352-7.2-.352-7.293a2.894,2.894,0,0,0-5.788,0c0,.38.012,3.148.311,7.3-3.973.007-7.487.018-8.484.034-3.965.059-8.789,1.537-9.066,9.512-.19,5.426-.389,9.455-.583,13.353-.139,2.816-.274,5.541-.4,8.665a3.541,3.541,0,0,0-1.229-.211,21.864,21.864,0,0,0-2.478.771V171.389c.353-.025.819-.009,1.276-.016.058,0,.112.016.172.016a2.944,2.944,0,0,0,.721-.1,1.358,1.358,0,0,0,.147-.028,2.167,2.167,0,0,0,.306-.11.177.177,0,0,1,.041-.02,2.729,2.729,0,0,0,.327-.179,3.03,3.03,0,0,0-1.542-5.644c-.042,0-.08.011-.121.014-.3-.014-.709-.014-1.411-.018.018-1.089.055-1.915.089-3.289l.025-1.128a5.59,5.59,0,0,0-1.235-3.989,2.778,2.778,0,0,0-2.015-.849c-1.426,0-3.115,1.123-3.173,4.282-.025,1.279.005,1.862.036,3.186.01.593.027,1.185.033,1.766-.142,0-.29,0-.428.007l-.783.018-.077.005c-.139,0-.27.009-.4.016-.066-.005-.13-.021-.2-.021a3.033,3.033,0,0,0-.164,6.062,18.285,18.285,0,0,0,2.054.016c0,1.6-.005,4.477-.007,6.248-.011,5.927-.023,12.644.039,18.493.029,2.445-.21,3.289-1.771,3.813a4.173,4.173,0,0,0-2.27,2,2.914,2.914,0,0,0-.08,2.326,2.788,2.788,0,0,0,2.755,1.855,5.057,5.057,0,0,0,1.589-.279,63.109,63.109,0,0,0,9.028-3.615c.165-.087.348-.2.533-.32-.009.322-.023.645-.028.981-.009.233-.02.478-.036.739-.083,1.713-.188,3.838.927,5.01a2.567,2.567,0,0,0,1.915.787c2.967,0,2.478-4.013,2.562-6.165l.007-.153c.13-3.269.238-5.721.337-7.949.18-3.978.322-7.991.492-13.76.316,0,.542-.009.748-.011.3-.009.556-.014,1.024-.014h.192c1.76.005,3.255.046,3.688.515.467.5.508,2.15.515,4.1l.005,3.075c.006,2.846.011,4.23.029,8.791.009,2.786-.385,3.534-2.065,3.647a3.141,3.141,0,0,0-2.118,1.064,2.545,2.545,0,0,0-.661,1.91,2.963,2.963,0,0,0,2.813,2.8c4.081.128,7.009-3.154,7.064-7.951.086-7.446.1-7.478-.014-15.03-.084-5.49-1.3-8.155-8-8.432-1.271-.05-1.724-.032-2.324-.009-.149.007-.312.012-.5.02.3-5.39.8-5.286,4.7-5.286l8.034-.092a105.8,105.8,0,0,0,5.239,23.549,17.362,17.362,0,0,1-4.547,3.354,2.895,2.895,0,1,0,2.651,5.147,23.561,23.561,0,0,0,4.281-2.82,42.906,42.906,0,0,0,4.952,8.062,2.9,2.9,0,0,0,4.534-3.6A39.686,39.686,0,0,1,1354.081,195.061Z" transform="translate(75.715 32.734)" fill="#e40055"/>
      <path id="路径_1354" data-name="路径 1354" d="M1298.835,155.5a2.976,2.976,0,0,0-2.052-.766c-1.811,0-3.075,1.4-3.157,3.482-.02.5-.048,31.3.014,38.967.014,2.015-.137,3.518-.945,4.315a3.861,3.861,0,0,1-2.786.807s-3.377.043-3.377,2.807c0,1.524.839,2.734,3.129,3.042a13.423,13.423,0,0,0,1.709.155,8.254,8.254,0,0,0,8.4-8.343c.121-4.442.032-39.086.094-41.5A4.3,4.3,0,0,0,1298.835,155.5Z" transform="translate(58.911 33.075)" fill="#e40055"/>
      <path id="路径_1355" data-name="路径 1355" d="M1302.151,172.942c-.286-1.679-.373-2.768-.476-4.035-.064-.73-.128-1.535-.24-2.546.372,0,5.271,0,6.106-.023a3.273,3.273,0,0,0,3.36-3.129,2.777,2.777,0,0,0-.846-2.048,3.646,3.646,0,0,0-2.448-1.029h-9.2a3.163,3.163,0,0,0-2.413.991,3.566,3.566,0,0,0-.787,2.86c1.24,13.9,2.663,24.482,9.322,35.927a15.619,15.619,0,0,0,1.1,1.663,4.349,4.349,0,0,0,3.182,1.949,2.341,2.341,0,0,0,1.558-.59c1.373-1.2.688-3.708.012-4.785C1306.092,191.3,1303.944,183.522,1302.151,172.942Z" transform="translate(65.629 37.27)" fill="#e40055"/>
      <path id="路径_1356" data-name="路径 1356" d="M1295.512,161.123a3.178,3.178,0,0,0-2.418-.991h-9.2a3.647,3.647,0,0,0-2.447,1.029,2.774,2.774,0,0,0-.844,2.048,3.268,3.268,0,0,0,3.356,3.127c.835.025,5.735.028,6.107.025-.11,1.013-.176,1.816-.24,2.548-.1,1.263-.192,2.354-.474,4.033-1.794,10.58-3.942,18.363-8.228,25.205-.672,1.078-1.361,3.583.016,4.786a2.329,2.329,0,0,0,1.556.59,4.351,4.351,0,0,0,3.18-1.949,14.887,14.887,0,0,0,1.1-1.663c6.661-11.447,8.086-22.027,9.322-35.927A3.565,3.565,0,0,0,1295.512,161.123Z" transform="translate(54.106 37.27)" fill="#e40055"/>
      <path id="路径_1357" data-name="路径 1357" d="M1279.083,163.223c-2.72,0-3.078,2.121-3.113,3.349-.151,5.552.014,28.643,0,30.628-.062,1.245.5,3.926,2.941,3.813,2.231-.1,2.873-1.915,2.933-3.79.213-7.371.1-23.192,0-30.077C1281.823,165.861,1281.766,163.225,1279.083,163.223Z" transform="translate(50.659 39.67)" fill="#e40055"/>
      <path id="路径_1358" data-name="路径 1358" d="M1280.1,156.169a1.239,1.239,0,0,0-.855-.442,1.5,1.5,0,0,0-1.039.563l-1.174,1.6a4.589,4.589,0,0,0-1.394,3.241,3.7,3.7,0,0,0,3.512,3.813l.107,0a3.77,3.77,0,0,0,3.413-4.044c-.025-.929-.531-1.693-1.315-2.983A17.152,17.152,0,0,0,1280.1,156.169Z" transform="translate(50.446 33.849)" fill="#e40055"/>
      <path id="路径_1359" data-name="路径 1359" d="M1253.752,159.058c-2.26-.059-8.249-.083-14-.091a6.662,6.662,0,0,0-.361-2,3.728,3.728,0,0,0-3.42-2.2,3.294,3.294,0,0,0-3.141,1.88,6.994,6.994,0,0,0-.467,2.319c-5.747.011-11.477.034-13.678.082-4.7.1-7.4,2.711-7.524,6.8-.005.274-.026,1.032-.026,1.174a2.544,2.544,0,0,0,5.088,0c0-.043.048-.4.06-.513.156-1.892.972-2.2,2.9-2.2h0q8.477.04,16.962.039c5.627,0,11.33-.012,16.951-.039h.064c2.047,0,2.914.336,2.987,2.409a2.7,2.7,0,0,0,1.068,2.208,2.545,2.545,0,0,0,1.569.535,2.671,2.671,0,0,0,.576-.066,2.014,2.014,0,0,0,1.174-.618,2.955,2.955,0,0,0,.833-1.9v-.418a6.81,6.81,0,0,0-1.72-4.968A8.034,8.034,0,0,0,1253.752,159.058Z" transform="translate(0.353 33.105)" fill="#e40055"/>
      <path id="路径_1360" data-name="路径 1360" d="M1216.205,174a2.394,2.394,0,0,0-1.76,1.818,1.658,1.658,0,0,0-.052.423v.02a2.4,2.4,0,0,0,2.393,2.406,10.254,10.254,0,0,0,3.477-.963l.1-.037c5.629-1.887,9.342-3.125,13-4.349,1.077.362,2.175.736,3.34,1.132l9.274,3.139a24.812,24.812,0,0,0,3.292.979,2.358,2.358,0,0,0,.755.135,2.561,2.561,0,0,0,.538-.055,1.4,1.4,0,0,0,.72-.274,2.349,2.349,0,0,0,1.2-2.008,2.374,2.374,0,0,0-1.725-2.306,9.729,9.729,0,0,0-1.272-.437l-.213-.069c-1.464-.492-4.175-1.414-7.405-2.514q-.413-.144-.832-.284l6.689-2.235a28.352,28.352,0,0,0,2.687-.968,2.412,2.412,0,0,0,1.455-1.281l0-.007c.006-.011.011-.028.016-.037.025-.057.048-.116.071-.179l0-.011a1.939,1.939,0,0,0,.014-1.425l-.005,0a2.385,2.385,0,0,0-1.244-1.427,1.807,1.807,0,0,0-.839-.243c-.037,0-.082,0-.123,0a.537.537,0,0,0-.075-.005,2.454,2.454,0,0,0-.661.08,14.108,14.108,0,0,0-2.226.654l-.206.069c-1.416.481-4.035,1.35-7.167,2.39-1.9.633-3.973,1.318-6.071,2.02-5.577-1.89-12.7-4.116-15.345-4.928-.078-.028-.16-.052-.238-.075a.348.348,0,0,1-.05-.014.078.078,0,0,0,.029.009,2.57,2.57,0,0,0-.552-.069,2.413,2.413,0,0,0-2.356,1.679,1.763,1.763,0,0,0-.1.762,2.373,2.373,0,0,0,1.679,2.187h0l2.1.6c2.779.933,5.085,1.713,7.153,2.413-3.761,1.267-6.945,2.413-8.572,2.955C1216.755,173.786,1216.463,173.891,1216.205,174Z" transform="translate(2.884 39.443)" fill="#e40055"/>
      <path id="路径_1361" data-name="路径 1361" d="M1262.031,188.906a2.442,2.442,0,0,0-3.427.91l-.284.5a1.884,1.884,0,0,1-1.624.965H1239.2v-2.942c1.094,0,2.178.005,3.26.007,3.114.009,6.175.014,9.229-.02,3.941-.041,7.5-.842,7.645-6.352.146-5.739-2.731-7.6-7.6-7.727-.915-.02-1.915-.028-3.134-.028l-2.075,0c-1.478.007-2.958.014-4.436-.009a3.37,3.37,0,0,1-3.186-1.736l-.029-.1a2.544,2.544,0,0,0-5.088,0c0,.037-.012.112-.014.151a3.4,3.4,0,0,1-3.056,1.69c-1.363.014-2.724.009-4.085,0-.738,0-1.471-.009-2.2-.009-1.468,0-2.652.016-3.733.053-4.76.163-7.217,2.192-7.135,7.7s3.9,6.295,7.27,6.36c2.549.046,5.143.05,7.65.05,1.622,0,3.242,0,4.907.016l.181,0v2.894h-20.387a2.618,2.618,0,0,0,0,5.23H1256.7a6.868,6.868,0,0,0,5.92-3.521l.282-.5A2.682,2.682,0,0,0,1262.031,188.906Zm-28.5-5.728c-.947,0-1.894.012-2.836.021-1.2.011-2.386.021-3.576.021-2.638,0-4.656-.059-6.545-.19-1.032-.069-1.508-.8-1.508-1.984a1.852,1.852,0,0,1,1.736-1.862c1.825-.123,3.775-.185,6.321-.185,1.173,0,2.353.014,3.545.027.947.009,1.9.02,2.864.021Zm5.625-4.122c.945,0,1.883-.011,2.816-.021q1.78-.019,3.539-.018c2.681,0,4.727.055,6.637.187.35.02,1.48.073,1.48,2.022a1.6,1.6,0,0,1-1.681,1.837c-1.812.126-3.752.183-6.286.183-1.182,0-2.365-.012-3.568-.025-.972-.011-1.949-.02-2.939-.025Z" transform="translate(0 44.805)" fill="#e40055"/>
      <path id="路径_1362" data-name="路径 1362" d="M1213.819,171.892l.091,0a3.208,3.208,0,0,0,2.9-3.44,5.44,5.44,0,0,0-1.118-2.535,14.711,14.711,0,0,0-1.066-1.487,1.061,1.061,0,0,0-.727-.375,1.283,1.283,0,0,0-.885.48l-1,1.363a3.9,3.9,0,0,0-1.185,2.754A3.151,3.151,0,0,0,1213.819,171.892Z" transform="translate(0.118 40.315)" fill="#e40055"/>
      <path id="路径_1363" data-name="路径 1363" d="M1240.018,164.428a1.061,1.061,0,0,0-.727-.375,1.279,1.279,0,0,0-.885.48l-1,1.363a3.9,3.9,0,0,0-1.185,2.754,3.15,3.15,0,0,0,2.985,3.242l.092,0a3.208,3.208,0,0,0,2.9-3.44,5.464,5.464,0,0,0-1.118-2.535A15.01,15.01,0,0,0,1240.018,164.428Z" transform="translate(19.837 40.315)" fill="#e40055"/>
      <path id="路径_1364" data-name="路径 1364" d="M1226.464,168.367a3.107,3.107,0,0,0,2.809-3.329,5.3,5.3,0,0,0-1.084-2.454,14.275,14.275,0,0,0-1.031-1.439,1.028,1.028,0,0,0-.7-.362,1.229,1.229,0,0,0-.856.464l-.966,1.318a3.771,3.771,0,0,0-1.148,2.667,3.048,3.048,0,0,0,2.89,3.139Z" transform="translate(9.945 37.775)" fill="#e40055"/>
      <path id="路径_1365" data-name="路径 1365" d="M1377.592,169.568a2.545,2.545,0,0,0,2.546-2.542c0-.043.046-.4.058-.513.157-1.892.972-2.2,2.907-2.2h0q8.48.04,16.962.039c5.627,0,11.33-.012,16.951-.039h.064c2.047,0,2.913.336,2.986,2.409a2.708,2.708,0,0,0,1.068,2.208,2.544,2.544,0,0,0,1.57.535,2.7,2.7,0,0,0,.576-.066,2.009,2.009,0,0,0,1.172-.618,2.957,2.957,0,0,0,.835-1.9v-.418a6.819,6.819,0,0,0-1.722-4.968,8.033,8.033,0,0,0-5.9-2.438c-2.26-.059-8.247-.083-14-.091a6.68,6.68,0,0,0-.359-2,3.734,3.734,0,0,0-3.422-2.2,3.291,3.291,0,0,0-3.139,1.88,7.009,7.009,0,0,0-.468,2.319c-5.749.011-11.477.034-13.678.082-4.7.1-7.4,2.711-7.526,6.8-.005.274-.026,1.032-.026,1.174A2.545,2.545,0,0,0,1377.592,169.568Z" transform="translate(127.656 33.105)" fill="#e40055"/>
      <path id="路径_1366" data-name="路径 1366" d="M1380.118,174a2.392,2.392,0,0,0-1.759,1.818,1.565,1.565,0,0,0-.052.423v.02a2.4,2.4,0,0,0,2.391,2.406,10.24,10.24,0,0,0,3.477-.963l.1-.037c5.628-1.887,9.342-3.125,13-4.349,1.077.362,2.175.736,3.338,1.132l9.274,3.139a24.818,24.818,0,0,0,3.292.979,2.362,2.362,0,0,0,.755.135,2.585,2.585,0,0,0,.54-.055,1.406,1.406,0,0,0,.719-.274,2.349,2.349,0,0,0-.528-4.314,9.645,9.645,0,0,0-1.272-.437l-.213-.069c-1.462-.492-4.175-1.414-7.4-2.514q-.416-.144-.833-.284l6.691-2.235a28.47,28.47,0,0,0,2.686-.968,2.386,2.386,0,0,0,1.282-.975,2.7,2.7,0,0,0,.173-.306v-.007a.225.225,0,0,1,.018-.037c.023-.057.046-.116.069-.179l0-.011a1.951,1.951,0,0,0,.013-1.425l-.005,0a2.379,2.379,0,0,0-1.242-1.427,1.807,1.807,0,0,0-.838-.243c-.039,0-.082,0-.123,0a.559.559,0,0,0-.076-.005,2.453,2.453,0,0,0-.661.08,14.021,14.021,0,0,0-2.224.654l-.208.069c-1.416.481-4.033,1.35-7.167,2.39-1.9.633-3.972,1.318-6.071,2.02-5.575-1.89-12.7-4.116-15.343-4.928-.08-.028-.16-.052-.24-.075a.288.288,0,0,1-.048-.014.069.069,0,0,0,.027.009,2.558,2.558,0,0,0-.552-.069,2.413,2.413,0,0,0-2.356,1.679,1.8,1.8,0,0,0-.1.762,2.375,2.375,0,0,0,1.679,2.187h0l2.1.6c2.779.933,5.083,1.713,7.153,2.413-3.763,1.267-6.945,2.413-8.574,2.955C1380.668,173.786,1380.375,173.891,1380.118,174Z" transform="translate(130.187 39.443)" fill="#e40055"/>
      <path id="路径_1367" data-name="路径 1367" d="M1425.944,188.906a2.443,2.443,0,0,0-3.427.91l-.282.5a1.889,1.889,0,0,1-1.625.965h-17.5v-2.942c1.095,0,2.18.005,3.262.007,3.114.009,6.176.014,9.229-.02,3.939-.041,7.5-.842,7.645-6.352.146-5.739-2.732-7.6-7.606-7.727-.915-.02-1.915-.028-3.134-.028l-2.074,0c-1.478.007-2.958.014-4.438-.009a3.365,3.365,0,0,1-3.184-1.736l-.03-.1a2.544,2.544,0,0,0-5.088,0c0,.037-.011.112-.014.151a3.4,3.4,0,0,1-3.056,1.69c-1.361.014-2.723.009-4.085,0-.737,0-1.471-.009-2.2-.009-1.468,0-2.653.016-3.733.053-4.76.163-7.217,2.192-7.135,7.7s3.9,6.295,7.272,6.36c2.549.046,5.141.05,7.65.05,1.62,0,3.24,0,4.905.016l.181,0v2.894h-20.387a2.618,2.618,0,0,0,0,5.23h43.517a6.871,6.871,0,0,0,5.922-3.521l.282-.5A2.684,2.684,0,0,0,1425.944,188.906Zm-28.5-5.728c-.947,0-1.894.012-2.833.021-1.2.011-2.388.021-3.577.021-2.64,0-4.656-.059-6.547-.19-1.032-.069-1.507-.8-1.507-1.984a1.85,1.85,0,0,1,1.734-1.862c1.827-.123,3.776-.185,6.322-.185,1.174,0,2.352.014,3.544.027.947.009,1.9.02,2.864.021Zm5.627-4.122c.944,0,1.882-.011,2.816-.021,1.187-.012,2.368-.018,3.537-.018,2.683,0,4.729.055,6.637.187.35.02,1.48.073,1.48,2.022a1.6,1.6,0,0,1-1.681,1.837c-1.812.126-3.752.183-6.286.183-1.179,0-2.365-.012-3.566-.025q-1.458-.016-2.939-.025Z" transform="translate(127.302 44.805)" fill="#e40055"/>
      <path id="路径_1368" data-name="路径 1368" d="M1377.732,171.892l.091,0a3.211,3.211,0,0,0,2.9-3.44,5.471,5.471,0,0,0-1.119-2.535,14.711,14.711,0,0,0-1.066-1.487,1.056,1.056,0,0,0-.727-.375,1.277,1.277,0,0,0-.883.48l-1,1.363a3.9,3.9,0,0,0-1.187,2.754A3.152,3.152,0,0,0,1377.732,171.892Z" transform="translate(127.421 40.315)" fill="#e40055"/>
      <path id="路径_1369" data-name="路径 1369" d="M1403.931,164.428a1.06,1.06,0,0,0-.727-.375,1.277,1.277,0,0,0-.883.48l-1,1.363a3.9,3.9,0,0,0-1.185,2.754,3.151,3.151,0,0,0,2.987,3.242l.09,0a3.211,3.211,0,0,0,2.9-3.44,5.467,5.467,0,0,0-1.119-2.535A14.782,14.782,0,0,0,1403.931,164.428Z" transform="translate(147.14 40.315)" fill="#e40055"/>
      <path id="路径_1370" data-name="路径 1370" d="M1390.377,168.367a3.105,3.105,0,0,0,2.809-3.329,5.27,5.27,0,0,0-1.082-2.454,14.51,14.51,0,0,0-1.032-1.439,1.019,1.019,0,0,0-.7-.362,1.233,1.233,0,0,0-.856.464l-.967,1.318a3.779,3.779,0,0,0-1.148,2.667,3.051,3.051,0,0,0,2.891,3.139Z" transform="translate(137.247 37.775)" fill="#e40055"/>
      <path id="路径_1371" data-name="路径 1371" d="M1453.335,166.72a2.708,2.708,0,0,0,1.067,2.208,2.546,2.546,0,0,0,1.571.535,2.7,2.7,0,0,0,.576-.066,2.01,2.01,0,0,0,1.173-.618,2.957,2.957,0,0,0,.835-1.9v-.418a6.827,6.827,0,0,0-1.72-4.968,8.042,8.042,0,0,0-5.9-2.438c-2.26-.059-8.247-.083-14-.091a6.671,6.671,0,0,0-.359-2,3.734,3.734,0,0,0-3.422-2.2,3.291,3.291,0,0,0-3.139,1.88,7,7,0,0,0-.467,2.319c-5.749.011-11.479.034-13.678.082-4.7.1-7.4,2.711-7.526,6.8-.005.274-.027,1.032-.027,1.174a2.544,2.544,0,0,0,5.089,0c0-.043.048-.4.061-.513.156-1.892.972-2.2,2.906-2.2h0q8.48.04,16.962.039c5.627,0,11.329-.012,16.951-.039h.064C1452.394,164.311,1453.261,164.647,1453.335,166.72Z" transform="translate(153.492 33.105)" fill="#e40055"/>
      <path id="路径_1372" data-name="路径 1372" d="M1413.385,174a2.4,2.4,0,0,0-1.76,1.818,1.652,1.652,0,0,0-.05.423v.02a2.4,2.4,0,0,0,2.391,2.406,10.242,10.242,0,0,0,3.477-.963l.1-.037c5.629-1.887,9.342-3.125,13-4.349,1.077.362,2.175.736,3.338,1.132l9.274,3.139a24.836,24.836,0,0,0,3.292.979,2.367,2.367,0,0,0,.755.135,2.55,2.55,0,0,0,.538-.055,1.405,1.405,0,0,0,.721-.274,2.349,2.349,0,0,0-.528-4.314,9.628,9.628,0,0,0-1.272-.437l-.213-.069c-1.464-.492-4.175-1.414-7.4-2.514-.277-.1-.554-.19-.833-.284l6.689-2.235a28.29,28.29,0,0,0,2.688-.968,2.385,2.385,0,0,0,1.282-.975,2.661,2.661,0,0,0,.172-.306v-.007c.006-.011.011-.028.016-.037.025-.057.048-.116.071-.179l0-.011a1.955,1.955,0,0,0,.012-1.425l-.005,0a2.38,2.38,0,0,0-1.242-1.427,1.807,1.807,0,0,0-.839-.243c-.039,0-.082,0-.123,0a.548.548,0,0,0-.076-.005,2.449,2.449,0,0,0-.661.08,14.013,14.013,0,0,0-2.225.654l-.208.069c-1.417.481-4.033,1.35-7.167,2.39-1.9.633-3.973,1.318-6.071,2.02-5.577-1.89-12.7-4.116-15.343-4.928-.08-.028-.16-.052-.24-.075a.286.286,0,0,1-.048-.014.07.07,0,0,0,.027.009,2.559,2.559,0,0,0-.553-.069,2.413,2.413,0,0,0-2.356,1.679,1.792,1.792,0,0,0-.1.762,2.375,2.375,0,0,0,1.679,2.187h0l2.1.6c2.779.933,5.083,1.713,7.153,2.413-3.763,1.267-6.946,2.413-8.574,2.955C1413.935,173.786,1413.643,173.891,1413.385,174Z" transform="translate(156.024 39.443)" fill="#e40055"/>
      <path id="路径_1373" data-name="路径 1373" d="M1459.211,188.906a2.443,2.443,0,0,0-3.427.91l-.282.5a1.888,1.888,0,0,1-1.625.965h-17.495v-2.942c1.094,0,2.18.005,3.262.007,3.113.009,6.176.014,9.23-.02,3.939-.041,7.5-.842,7.645-6.352.146-5.739-2.732-7.6-7.606-7.727-.915-.02-1.915-.028-3.134-.028l-2.073,0c-1.478.007-2.958.014-4.438-.009a3.366,3.366,0,0,1-3.184-1.736l-.03-.1a2.544,2.544,0,0,0-5.088,0c0,.037-.012.112-.014.151a3.4,3.4,0,0,1-3.056,1.69c-1.361.014-2.723.009-4.084,0-.738,0-1.471-.009-2.205-.009-1.468,0-2.652.016-3.732.053-4.76.163-7.217,2.192-7.135,7.7s3.9,6.295,7.272,6.36c2.55.046,5.141.05,7.65.05,1.62,0,3.24,0,4.906.016l.181,0v2.894h-20.387a2.618,2.618,0,0,0,0,5.23h43.517a6.87,6.87,0,0,0,5.921-3.521l.282-.5A2.682,2.682,0,0,0,1459.211,188.906Zm-28.5-5.728c-.947,0-1.894.012-2.835.021-1.2.011-2.386.021-3.575.021-2.64,0-4.657-.059-6.547-.19-1.032-.069-1.509-.8-1.509-1.984a1.851,1.851,0,0,1,1.736-1.862c1.826-.123,3.775-.185,6.321-.185,1.175,0,2.352.014,3.544.027.947.009,1.9.02,2.864.021Zm5.627-4.122c.943,0,1.882-.011,2.816-.021,1.187-.012,2.368-.018,3.537-.018,2.683,0,4.73.055,6.637.187.35.02,1.48.073,1.48,2.022a1.6,1.6,0,0,1-1.681,1.837c-1.812.126-3.752.183-6.286.183-1.18,0-2.365-.012-3.566-.025-.974-.011-1.951-.02-2.939-.025Z" transform="translate(153.139 44.805)" fill="#e40055"/>
      <path id="路径_1374" data-name="路径 1374" d="M1411.807,164.428a1.055,1.055,0,0,0-.726-.375,1.276,1.276,0,0,0-.883.48l-1,1.363a3.9,3.9,0,0,0-1.187,2.754,3.152,3.152,0,0,0,2.987,3.242l.091,0a3.211,3.211,0,0,0,2.9-3.44,5.47,5.47,0,0,0-1.119-2.535A14.639,14.639,0,0,0,1411.807,164.428Z" transform="translate(153.257 40.315)" fill="#e40055"/>
      <path id="路径_1375" data-name="路径 1375" d="M1436.389,171.892l.091,0a3.211,3.211,0,0,0,2.9-3.44,5.47,5.47,0,0,0-1.119-2.535,14.7,14.7,0,0,0-1.066-1.487,1.059,1.059,0,0,0-.726-.375,1.282,1.282,0,0,0-.885.48l-1,1.363a3.9,3.9,0,0,0-1.185,2.754A3.152,3.152,0,0,0,1436.389,171.892Z" transform="translate(172.977 40.315)" fill="#e40055"/>
      <path id="路径_1376" data-name="路径 1376" d="M1423.644,168.367a3.105,3.105,0,0,0,2.809-3.329,5.289,5.289,0,0,0-1.082-2.454,14.553,14.553,0,0,0-1.032-1.439,1.02,1.02,0,0,0-.7-.362,1.23,1.23,0,0,0-.856.464l-.967,1.318a3.777,3.777,0,0,0-1.148,2.667,3.051,3.051,0,0,0,2.891,3.139Z" transform="translate(163.083 37.775)" fill="#e40055"/>
      <path id="路径_1377" data-name="路径 1377" d="M1362.666,176.813a2.828,2.828,0,0,0,0-5.655h-6.151V161.98l0-.043,5.456-.807a2.828,2.828,0,1,0-.826-5.595l-16.265,2.406a2.829,2.829,0,0,0,.409,5.627,3.024,3.024,0,0,0,.417-.032l5.16-.762v8.384h-6.4a2.828,2.828,0,0,0,0,5.655h6.4v6.43h-2.294a5.875,5.875,0,0,0-5.87,5.87v12.829a5.875,5.875,0,0,0,5.87,5.87h10.241a5.876,5.876,0,0,0,5.87-5.87V189.113a5.876,5.876,0,0,0-5.87-5.87h-2.294v-6.43Zm-3.642,12.3v12.829a.216.216,0,0,1-.215.215h-10.241a.217.217,0,0,1-.217-.215V189.113a.217.217,0,0,1,.217-.215h10.241A.216.216,0,0,1,1359.024,189.113Z" transform="translate(101.704 33.679)" fill="#e40055"/>
      <path id="路径_1378" data-name="路径 1378" d="M1381.594,163.352h-1.955v-5.294a2.827,2.827,0,0,0-5.655,0l0,5.294h-9.924v-5.294a2.827,2.827,0,1,0-5.653,0v5.294h-1.688a2.828,2.828,0,0,0,0,5.655h1.688v33.63a5.323,5.323,0,0,0,5.083,5.524h11.07a5.323,5.323,0,0,0,5.081-5.524v-33.63h1.955a2.828,2.828,0,0,0,0-5.655Zm-17.536,39.155V187.019h9.914l-.007,15.489Zm9.917-21.142h-9.917V169.007h9.922Z" transform="translate(111.225 33.463)" fill="#e40055"/>
    </g>
  </g>
</svg>
